<svg width="250" height="333" viewBox="0 0 250 333" fill="none" xmlns="http://www.w3.org/2000/svg">
<g clip-path="url(#clip0_931_53)">
<g filter="url(#filter0_bd_931_53)">
<path d="M105.216 41.1748L244.146 122.719C246.774 124.262 246.781 128.06 244.158 129.612L105.228 211.809C103.984 212.545 102.441 212.552 101.189 211.829L-40.9863 129.632C-43.6556 128.089 -43.6489 124.233 -40.9744 122.699L101.202 41.1547C102.446 40.4407 103.979 40.4483 105.216 41.1748Z" fill="url(#paint0_linear_931_53)" fill-opacity="0.5" shape-rendering="crispEdges"/>
<path d="M105.216 41.1748L244.146 122.719C246.774 124.262 246.781 128.06 244.158 129.612L105.228 211.809C103.984 212.545 102.441 212.552 101.189 211.829L-40.9863 129.632C-43.6556 128.089 -43.6489 124.233 -40.9744 122.699L101.202 41.1547C102.446 40.4407 103.979 40.4483 105.216 41.1748Z" stroke="#C1A090" stroke-width="0.1" shape-rendering="crispEdges"/>
</g>
<g filter="url(#filter1_bd_931_53)">
<path d="M26.9828 225.174L103.144 269.867C105.773 271.409 105.78 275.208 103.156 276.759L26.9946 321.809C25.7511 322.545 24.2075 322.553 22.9565 321.83L-54.9845 276.78C-57.6542 275.237 -57.6476 271.38 -54.9726 269.847L22.9686 225.154C24.2134 224.44 25.7452 224.448 26.9828 225.174Z" fill="url(#paint1_linear_931_53)" fill-opacity="0.5" shape-rendering="crispEdges"/>
<path d="M26.9828 225.174L103.144 269.867C105.773 271.409 105.78 275.208 103.156 276.759L26.9946 321.809C25.7511 322.545 24.2075 322.553 22.9565 321.83L-54.9845 276.78C-57.6542 275.237 -57.6476 271.38 -54.9726 269.847L22.9686 225.154C24.2134 224.44 25.7452 224.448 26.9828 225.174Z" stroke="#C1A090" stroke-width="0.1" shape-rendering="crispEdges"/>
</g>
<g filter="url(#filter2_b_931_53)">
<path d="M105.208 36.163L244.103 117.216C246.743 118.757 246.75 122.569 244.115 124.119L105.22 205.821C103.98 206.55 102.445 206.557 101.198 205.841L-40.9426 124.139C-43.6234 122.598 -43.6168 118.728 -40.9307 117.196L101.21 36.143C102.451 35.4356 103.974 35.4433 105.208 36.163Z" fill="url(#paint2_linear_931_53)" fill-opacity="0.5"/>
<path d="M105.208 36.163L244.103 117.216C246.743 118.757 246.75 122.569 244.115 124.119L105.22 205.821C103.98 206.55 102.445 206.557 101.198 205.841L-40.9426 124.139C-43.6234 122.598 -43.6168 118.728 -40.9307 117.196L101.21 36.143C102.451 35.4356 103.974 35.4433 105.208 36.163Z" stroke="#ECD4C7" stroke-width="0.1"/>
</g>
<g filter="url(#filter3_b_931_53)">
<path d="M26.9828 221.174L103.144 265.867C105.773 267.409 105.78 271.208 103.156 272.759L26.9946 317.809C25.7511 318.545 24.2075 318.553 22.9565 317.83L-54.9845 272.78C-57.6542 271.237 -57.6476 267.38 -54.9726 265.847L22.9686 221.154C24.2134 220.44 25.7452 220.448 26.9828 221.174Z" fill="url(#paint3_linear_931_53)" fill-opacity="0.5"/>
<path d="M26.9828 221.174L103.144 265.867C105.773 267.409 105.78 271.208 103.156 272.759L26.9946 317.809C25.7511 318.545 24.2075 318.553 22.9565 317.83L-54.9845 272.78C-57.6542 271.237 -57.6476 267.38 -54.9726 265.847L22.9686 221.154C24.2134 220.44 25.7452 220.448 26.9828 221.174Z" stroke="white" stroke-width="0.1"/>
</g>
<g filter="url(#filter4_bd_931_53)">
<path d="M64.2352 32.3734L195.377 109.792C200.61 112.881 200.623 120.448 195.401 123.556L64.2589 201.593C61.7628 203.079 58.6576 203.095 56.1465 201.634L-78.0591 123.597C-83.3745 120.506 -83.3612 112.824 -78.0352 109.751L56.1707 32.3329C58.6696 30.8914 61.7509 30.9069 64.2352 32.3734Z" fill="url(#paint4_linear_931_53)" fill-opacity="0.5" shape-rendering="crispEdges"/>
<path d="M64.2352 32.3734L195.377 109.792C200.61 112.881 200.623 120.448 195.401 123.556L64.2589 201.593C61.7628 203.079 58.6576 203.095 56.1465 201.634L-78.0591 123.597C-83.3745 120.506 -83.3612 112.824 -78.0352 109.751L56.1707 32.3329C58.6696 30.8914 61.7509 30.9069 64.2352 32.3734Z" stroke="url(#paint5_linear_931_53)" stroke-width="0.3" shape-rendering="crispEdges"/>
</g>
<g filter="url(#filter5_b_931_53)">
<path d="M64.2352 26.3734L195.377 103.792C200.61 106.881 200.623 114.448 195.401 117.556L64.2589 195.593C61.7628 197.079 58.6576 197.095 56.1465 195.634L-78.0591 117.597C-83.3745 114.506 -83.3612 106.824 -78.0352 103.751L56.1707 26.3329C58.6696 24.8914 61.7509 24.9069 64.2352 26.3734Z" fill="url(#paint6_linear_931_53)" fill-opacity="0.5"/>
<path d="M64.2352 26.3734L195.377 103.792C200.61 106.881 200.623 114.448 195.401 117.556L64.2589 195.593C61.7628 197.079 58.6576 197.095 56.1465 195.634L-78.0591 117.597C-83.3745 114.506 -83.3612 106.824 -78.0352 103.751L56.1707 26.3329C58.6696 24.8914 61.7509 24.9069 64.2352 26.3734Z" stroke="url(#paint7_linear_931_53)" stroke-width="0.3"/>
</g>
<g filter="url(#filter6_bd_931_53)">
<path d="M-16.8174 236.306L51.6884 276.422C56.9544 279.506 56.9677 287.113 51.7124 290.215L-16.7937 330.651C-19.2777 332.118 -22.3587 332.133 -24.8573 330.692L-94.9637 290.256C-100.312 287.171 -100.298 279.448 -94.9398 276.382L-24.8331 236.266C-22.3467 234.844 -19.2894 234.859 -16.8174 236.306Z" fill="url(#paint8_linear_931_53)" fill-opacity="0.5" shape-rendering="crispEdges"/>
<path d="M-16.8174 236.306L51.6884 276.422C56.9544 279.506 56.9677 287.113 51.7124 290.215L-16.7937 330.651C-19.2777 332.118 -22.3587 332.133 -24.8573 330.692L-94.9637 290.256C-100.312 287.171 -100.298 279.448 -94.9398 276.382L-24.8331 236.266C-22.3467 234.844 -19.2894 234.859 -16.8174 236.306Z" stroke="url(#paint9_linear_931_53)" stroke-width="0.3" shape-rendering="crispEdges"/>
</g>
<g filter="url(#filter7_b_931_53)">
<path d="M-16.8174 233.09L51.6884 273.206C56.9544 276.289 56.9677 283.897 51.7124 286.998L-16.7937 327.435C-19.2777 328.901 -22.3587 328.917 -24.8573 327.476L-94.9637 287.039C-100.312 283.955 -100.298 276.232 -94.9398 273.166L-24.8331 233.05C-22.3467 231.627 -19.2894 231.643 -16.8174 233.09Z" fill="url(#paint10_linear_931_53)" fill-opacity="0.5"/>
<path d="M-16.8174 233.09L51.6884 273.206C56.9544 276.289 56.9677 283.897 51.7124 286.998L-16.7937 327.435C-19.2777 328.901 -22.3587 328.917 -24.8573 327.476L-94.9637 287.039C-100.312 283.955 -100.298 276.232 -94.9398 273.166L-24.8331 233.05C-22.3467 231.627 -19.2894 231.643 -16.8174 233.09Z" stroke="url(#paint11_linear_931_53)" stroke-width="0.3"/>
</g>
<g filter="url(#filter8_bd_931_53)">
<path d="M64.9877 19.0873L180.457 86.6079C185.728 89.6905 185.742 97.3048 180.481 100.406L65.0114 168.467C62.5295 169.93 59.4528 169.945 56.9563 168.507L-61.2105 100.446C-66.564 97.3629 -66.5507 89.633 -61.1866 86.568L56.9805 19.0472C59.4647 17.6277 62.5178 17.643 64.9877 19.0873Z" fill="url(#paint12_linear_931_53)" fill-opacity="0.5" shape-rendering="crispEdges"/>
<path d="M64.9877 19.0873L180.457 86.6079C185.728 89.6905 185.742 97.3048 180.481 100.406L65.0114 168.467C62.5295 169.93 59.4528 169.945 56.9563 168.507L-61.2105 100.446C-66.564 97.3629 -66.5507 89.633 -61.1866 86.568L56.9805 19.0472C59.4647 17.6277 62.5178 17.643 64.9877 19.0873Z" stroke="url(#paint13_linear_931_53)" stroke-width="0.3" shape-rendering="crispEdges"/>
</g>
<g filter="url(#filter9_b_931_53)">
<path d="M64.9877 13.5844L180.457 81.1049C185.728 84.1876 185.742 91.8018 180.481 94.9028L65.0114 162.964C62.5295 164.427 59.4528 164.442 56.9563 163.004L-61.2105 94.9434C-66.564 91.8599 -66.5507 84.1301 -61.1866 81.065L56.9805 13.5443C59.4647 12.1248 62.5178 12.1401 64.9877 13.5844Z" fill="url(#paint14_linear_931_53)" fill-opacity="0.5"/>
<path d="M64.9877 13.5844L180.457 81.1049C185.728 84.1876 185.742 91.8018 180.481 94.9028L65.0114 162.964C62.5295 164.427 59.4528 164.442 56.9563 163.004L-61.2105 94.9434C-66.564 91.8599 -66.5507 84.1301 -61.1866 81.065L56.9805 13.5443C59.4647 12.1248 62.5178 12.1401 64.9877 13.5844Z" stroke="url(#paint15_linear_931_53)" stroke-width="0.3"/>
</g>
<g filter="url(#filter10_bd_931_53)">
<path d="M-41.1393 240.094L18.2193 274.804C23.491 277.886 23.5043 285.501 18.2433 288.601L-41.1155 323.589C-43.5974 325.052 -46.6742 325.068 -49.1706 323.63L-109.916 288.642C-115.27 285.559 -115.256 277.829 -109.892 274.764L-49.1465 240.054C-46.6623 238.634 -43.6092 238.649 -41.1393 240.094Z" fill="url(#paint16_linear_931_53)" fill-opacity="0.5" shape-rendering="crispEdges"/>
<path d="M-41.1393 240.094L18.2193 274.804C23.491 277.886 23.5043 285.501 18.2433 288.601L-41.1155 323.589C-43.5974 325.052 -46.6742 325.068 -49.1706 323.63L-109.916 288.642C-115.27 285.559 -115.256 277.829 -109.892 274.764L-49.1465 240.054C-46.6623 238.634 -43.6092 238.649 -41.1393 240.094Z" stroke="url(#paint17_linear_931_53)" stroke-width="0.3" shape-rendering="crispEdges"/>
</g>
<g filter="url(#filter11_b_931_53)">
<path d="M-41.1393 236.944L18.2193 271.654C23.491 274.736 23.5043 282.351 18.2433 285.452L-41.1155 320.439C-43.5974 321.902 -46.6742 321.918 -49.1706 320.48L-109.916 285.492C-115.27 282.409 -115.256 274.679 -109.892 271.614L-49.1465 236.904C-46.6623 235.484 -43.6092 235.499 -41.1393 236.944Z" fill="url(#paint18_linear_931_53)" fill-opacity="0.5"/>
<path d="M-41.1393 236.944L18.2193 271.654C23.491 274.736 23.5043 282.351 18.2433 285.452L-41.1155 320.439C-43.5974 321.902 -46.6742 321.918 -49.1706 320.48L-109.916 285.492C-115.27 282.409 -115.256 274.679 -109.892 271.614L-49.1465 236.904C-46.6623 235.484 -43.6092 235.499 -41.1393 236.944Z" stroke="url(#paint19_linear_931_53)" stroke-width="0.3"/>
</g>
<g filter="url(#filter12_bd_931_53)">
<path d="M64.8504 7.03454L136.349 49.0829C142.91 52.9414 142.927 62.4236 136.379 66.3049L64.8801 108.69C61.767 110.535 57.8998 110.555 54.7682 108.741L-18.4011 66.3561C-25.0645 62.4962 -25.0478 52.8696 -18.3712 49.0327L54.7985 6.9841C57.9147 5.19329 61.7523 5.21255 64.8504 7.03454Z" fill="url(#paint20_linear_931_53)" fill-opacity="0.5" shape-rendering="crispEdges"/>
<path d="M64.8504 7.03454L136.349 49.0829C142.91 52.9414 142.927 62.4236 136.379 66.3049L64.8801 108.69C61.767 110.535 57.8998 110.555 54.7682 108.741L-18.4011 66.3561C-25.0645 62.4962 -25.0478 52.8696 -18.3712 49.0327L54.7985 6.9841C57.9147 5.19329 61.7523 5.21255 64.8504 7.03454Z" stroke="url(#paint21_linear_931_53)" stroke-width="0.3" shape-rendering="crispEdges"/>
</g>
<g filter="url(#filter13_b_931_53)">
<path d="M64.8504 3.19176L136.349 45.2402C142.91 49.0986 142.927 58.5808 136.379 62.4621L64.8801 104.847C61.767 106.693 57.8998 106.712 54.7682 104.898L-18.4011 62.5133C-25.0645 58.6534 -25.0478 49.0268 -18.3712 45.1899L54.7985 3.14133C57.9147 1.35052 61.7523 1.36977 64.8504 3.19176Z" fill="url(#paint22_linear_931_53)" fill-opacity="0.5"/>
<path d="M64.8504 3.19176L136.349 45.2402C142.91 49.0986 142.927 58.5808 136.379 62.4621L64.8801 104.847C61.767 106.693 57.8998 106.712 54.7682 104.898L-18.4011 62.5133C-25.0645 58.6534 -25.0478 49.0268 -18.3712 45.1899L54.7985 3.14133C57.9147 1.35052 61.7523 1.36977 64.8504 3.19176Z" stroke="url(#paint23_linear_931_53)" stroke-width="0.3"/>
</g>
<g filter="url(#filter14_bd_931_53)">
<path d="M-36.4552 249.82L-3.91375 268.958C2.64718 272.816 2.66372 282.298 -3.88371 286.18L-36.4255 305.471C-39.5385 307.316 -43.4058 307.336 -46.5373 305.522L-79.839 286.231C-86.5023 282.371 -86.4857 272.744 -79.8091 268.908L-46.5071 249.77C-43.3908 247.979 -39.5533 247.998 -36.4552 249.82Z" fill="url(#paint24_linear_931_53)" fill-opacity="0.5" shape-rendering="crispEdges"/>
<path d="M-36.4552 249.82L-3.91375 268.958C2.64718 272.816 2.66372 282.298 -3.88371 286.18L-36.4255 305.471C-39.5385 307.316 -43.4058 307.336 -46.5373 305.522L-79.839 286.231C-86.5023 282.371 -86.4857 272.744 -79.8091 268.908L-46.5071 249.77C-43.3908 247.979 -39.5533 247.998 -36.4552 249.82Z" stroke="url(#paint25_linear_931_53)" stroke-width="0.3" shape-rendering="crispEdges"/>
</g>
<g filter="url(#filter15_b_931_53)">
<path d="M-36.4552 247.62L-3.91375 266.758C2.64718 270.617 2.66372 280.099 -3.88371 283.98L-36.4255 303.271C-39.5385 305.116 -43.4058 305.136 -46.5373 303.322L-79.839 284.031C-86.5023 280.171 -86.4857 270.545 -79.8091 266.708L-46.5071 247.57C-43.3908 245.779 -39.5533 245.798 -36.4552 247.62Z" fill="url(#paint26_linear_931_53)" fill-opacity="0.5"/>
<path d="M-36.4552 247.62L-3.91375 266.758C2.64718 270.617 2.66372 280.099 -3.88371 283.98L-36.4255 303.271C-39.5385 305.116 -43.4058 305.136 -46.5373 303.322L-79.839 284.031C-86.5023 280.171 -86.4857 270.545 -79.8091 266.708L-46.5071 247.57C-43.3908 245.779 -39.5533 245.798 -36.4552 247.62Z" stroke="url(#paint27_linear_931_53)" stroke-width="0.3"/>
</g>
</g>
<defs>
<filter id="filter0_bd_931_53" x="-53.0342" y="34.5747" width="309.206" height="191.841" filterUnits="userSpaceOnUse" color-interpolation-filters="sRGB">
<feFlood flood-opacity="0" result="BackgroundImageFix"/>
<feGaussianBlur in="BackgroundImageFix" stdDeviation="2"/>
<feComposite in2="SourceAlpha" operator="in" result="effect1_backgroundBlur_931_53"/>
<feColorMatrix in="SourceAlpha" type="matrix" values="0 0 0 0 0 0 0 0 0 0 0 0 0 0 0 0 0 0 127 0" result="hardAlpha"/>
<feOffset dy="4"/>
<feGaussianBlur stdDeviation="5"/>
<feComposite in2="hardAlpha" operator="out"/>
<feColorMatrix type="matrix" values="0 0 0 0 0.619608 0 0 0 0 0.478431 0 0 0 0 0.407843 0 0 0 0.5 0"/>
<feBlend mode="normal" in2="effect1_backgroundBlur_931_53" result="effect2_dropShadow_931_53"/>
<feBlend mode="normal" in="SourceGraphic" in2="effect2_dropShadow_931_53" result="shape"/>
</filter>
<filter id="filter1_bd_931_53" x="-67.0327" y="218.574" width="182.203" height="117.842" filterUnits="userSpaceOnUse" color-interpolation-filters="sRGB">
<feFlood flood-opacity="0" result="BackgroundImageFix"/>
<feGaussianBlur in="BackgroundImageFix" stdDeviation="2"/>
<feComposite in2="SourceAlpha" operator="in" result="effect1_backgroundBlur_931_53"/>
<feColorMatrix in="SourceAlpha" type="matrix" values="0 0 0 0 0 0 0 0 0 0 0 0 0 0 0 0 0 0 127 0" result="hardAlpha"/>
<feOffset dy="4"/>
<feGaussianBlur stdDeviation="5"/>
<feComposite in2="hardAlpha" operator="out"/>
<feColorMatrix type="matrix" values="0 0 0 0 0.619608 0 0 0 0 0.478431 0 0 0 0 0.407843 0 0 0 0.5 0"/>
<feBlend mode="normal" in2="effect1_backgroundBlur_931_53" result="effect2_dropShadow_931_53"/>
<feBlend mode="normal" in="SourceGraphic" in2="effect2_dropShadow_931_53" result="shape"/>
</filter>
<filter id="filter2_b_931_53" x="-47.9993" y="30.5679" width="299.136" height="180.855" filterUnits="userSpaceOnUse" color-interpolation-filters="sRGB">
<feFlood flood-opacity="0" result="BackgroundImageFix"/>
<feGaussianBlur in="BackgroundImageFix" stdDeviation="2.5"/>
<feComposite in2="SourceAlpha" operator="in" result="effect1_backgroundBlur_931_53"/>
<feBlend mode="normal" in="SourceGraphic" in2="effect1_backgroundBlur_931_53" result="shape"/>
</filter>
<filter id="filter3_b_931_53" x="-62.0327" y="215.574" width="172.203" height="107.842" filterUnits="userSpaceOnUse" color-interpolation-filters="sRGB">
<feFlood flood-opacity="0" result="BackgroundImageFix"/>
<feGaussianBlur in="BackgroundImageFix" stdDeviation="2.5"/>
<feComposite in2="SourceAlpha" operator="in" result="effect1_backgroundBlur_931_53"/>
<feBlend mode="normal" in="SourceGraphic" in2="effect1_backgroundBlur_931_53" result="shape"/>
</filter>
<filter id="filter4_bd_931_53" x="-92.1877" y="25.1123" width="301.647" height="191.756" filterUnits="userSpaceOnUse" color-interpolation-filters="sRGB">
<feFlood flood-opacity="0" result="BackgroundImageFix"/>
<feGaussianBlur in="BackgroundImageFix" stdDeviation="2"/>
<feComposite in2="SourceAlpha" operator="in" result="effect1_backgroundBlur_931_53"/>
<feColorMatrix in="SourceAlpha" type="matrix" values="0 0 0 0 0 0 0 0 0 0 0 0 0 0 0 0 0 0 127 0" result="hardAlpha"/>
<feOffset dy="4"/>
<feGaussianBlur stdDeviation="5"/>
<feComposite in2="hardAlpha" operator="out"/>
<feColorMatrix type="matrix" values="0 0 0 0 0.520833 0 0 0 0 0.520833 0 0 0 0 0.520833 0 0 0 0.25 0"/>
<feBlend mode="normal" in2="effect1_backgroundBlur_931_53" result="effect2_dropShadow_931_53"/>
<feBlend mode="normal" in="SourceGraphic" in2="effect2_dropShadow_931_53" result="shape"/>
</filter>
<filter id="filter5_b_931_53" x="-87.1877" y="20.1123" width="291.647" height="181.756" filterUnits="userSpaceOnUse" color-interpolation-filters="sRGB">
<feFlood flood-opacity="0" result="BackgroundImageFix"/>
<feGaussianBlur in="BackgroundImageFix" stdDeviation="2.5"/>
<feComposite in2="SourceAlpha" operator="in" result="effect1_backgroundBlur_931_53"/>
<feBlend mode="normal" in="SourceGraphic" in2="effect1_backgroundBlur_931_53" result="shape"/>
</filter>
<filter id="filter6_bd_931_53" x="-109.117" y="229.06" width="174.913" height="116.852" filterUnits="userSpaceOnUse" color-interpolation-filters="sRGB">
<feFlood flood-opacity="0" result="BackgroundImageFix"/>
<feGaussianBlur in="BackgroundImageFix" stdDeviation="2"/>
<feComposite in2="SourceAlpha" operator="in" result="effect1_backgroundBlur_931_53"/>
<feColorMatrix in="SourceAlpha" type="matrix" values="0 0 0 0 0 0 0 0 0 0 0 0 0 0 0 0 0 0 127 0" result="hardAlpha"/>
<feOffset dy="4"/>
<feGaussianBlur stdDeviation="5"/>
<feComposite in2="hardAlpha" operator="out"/>
<feColorMatrix type="matrix" values="0 0 0 0 0.520833 0 0 0 0 0.520833 0 0 0 0 0.520833 0 0 0 0.25 0"/>
<feBlend mode="normal" in2="effect1_backgroundBlur_931_53" result="effect2_dropShadow_931_53"/>
<feBlend mode="normal" in="SourceGraphic" in2="effect2_dropShadow_931_53" result="shape"/>
</filter>
<filter id="filter7_b_931_53" x="-104.117" y="226.844" width="164.913" height="106.852" filterUnits="userSpaceOnUse" color-interpolation-filters="sRGB">
<feFlood flood-opacity="0" result="BackgroundImageFix"/>
<feGaussianBlur in="BackgroundImageFix" stdDeviation="2.5"/>
<feComposite in2="SourceAlpha" operator="in" result="effect1_backgroundBlur_931_53"/>
<feBlend mode="normal" in="SourceGraphic" in2="effect1_backgroundBlur_931_53" result="shape"/>
</filter>
<filter id="filter8_bd_931_53" x="-75.3677" y="11.8433" width="269.936" height="171.881" filterUnits="userSpaceOnUse" color-interpolation-filters="sRGB">
<feFlood flood-opacity="0" result="BackgroundImageFix"/>
<feGaussianBlur in="BackgroundImageFix" stdDeviation="2"/>
<feComposite in2="SourceAlpha" operator="in" result="effect1_backgroundBlur_931_53"/>
<feColorMatrix in="SourceAlpha" type="matrix" values="0 0 0 0 0 0 0 0 0 0 0 0 0 0 0 0 0 0 127 0" result="hardAlpha"/>
<feOffset dy="4"/>
<feGaussianBlur stdDeviation="5"/>
<feComposite in2="hardAlpha" operator="out"/>
<feColorMatrix type="matrix" values="0 0 0 0 0.520833 0 0 0 0 0.520833 0 0 0 0 0.520833 0 0 0 0.25 0"/>
<feBlend mode="normal" in2="effect1_backgroundBlur_931_53" result="effect2_dropShadow_931_53"/>
<feBlend mode="normal" in="SourceGraphic" in2="effect2_dropShadow_931_53" result="shape"/>
</filter>
<filter id="filter9_b_931_53" x="-70.3677" y="7.34033" width="259.936" height="161.881" filterUnits="userSpaceOnUse" color-interpolation-filters="sRGB">
<feFlood flood-opacity="0" result="BackgroundImageFix"/>
<feGaussianBlur in="BackgroundImageFix" stdDeviation="2.5"/>
<feComposite in2="SourceAlpha" operator="in" result="effect1_backgroundBlur_931_53"/>
<feBlend mode="normal" in="SourceGraphic" in2="effect1_backgroundBlur_931_53" result="shape"/>
</filter>
<filter id="filter10_bd_931_53" x="-124.073" y="232.85" width="156.404" height="105.998" filterUnits="userSpaceOnUse" color-interpolation-filters="sRGB">
<feFlood flood-opacity="0" result="BackgroundImageFix"/>
<feGaussianBlur in="BackgroundImageFix" stdDeviation="2"/>
<feComposite in2="SourceAlpha" operator="in" result="effect1_backgroundBlur_931_53"/>
<feColorMatrix in="SourceAlpha" type="matrix" values="0 0 0 0 0 0 0 0 0 0 0 0 0 0 0 0 0 0 127 0" result="hardAlpha"/>
<feOffset dy="4"/>
<feGaussianBlur stdDeviation="5"/>
<feComposite in2="hardAlpha" operator="out"/>
<feColorMatrix type="matrix" values="0 0 0 0 0.520833 0 0 0 0 0.520833 0 0 0 0 0.520833 0 0 0 0.25 0"/>
<feBlend mode="normal" in2="effect1_backgroundBlur_931_53" result="effect2_dropShadow_931_53"/>
<feBlend mode="normal" in="SourceGraphic" in2="effect2_dropShadow_931_53" result="shape"/>
</filter>
<filter id="filter11_b_931_53" x="-119.073" y="230.7" width="146.404" height="95.998" filterUnits="userSpaceOnUse" color-interpolation-filters="sRGB">
<feFlood flood-opacity="0" result="BackgroundImageFix"/>
<feGaussianBlur in="BackgroundImageFix" stdDeviation="2.5"/>
<feComposite in2="SourceAlpha" operator="in" result="effect1_backgroundBlur_931_53"/>
<feBlend mode="normal" in="SourceGraphic" in2="effect1_backgroundBlur_931_53" result="shape"/>
</filter>
<filter id="filter12_bd_931_53" x="-33.5386" y="-0.495605" width="184.969" height="124.733" filterUnits="userSpaceOnUse" color-interpolation-filters="sRGB">
<feFlood flood-opacity="0" result="BackgroundImageFix"/>
<feGaussianBlur in="BackgroundImageFix" stdDeviation="2"/>
<feComposite in2="SourceAlpha" operator="in" result="effect1_backgroundBlur_931_53"/>
<feColorMatrix in="SourceAlpha" type="matrix" values="0 0 0 0 0 0 0 0 0 0 0 0 0 0 0 0 0 0 127 0" result="hardAlpha"/>
<feOffset dy="4"/>
<feGaussianBlur stdDeviation="5"/>
<feComposite in2="hardAlpha" operator="out"/>
<feColorMatrix type="matrix" values="0 0 0 0 0.520833 0 0 0 0 0.520833 0 0 0 0 0.520833 0 0 0 0.25 0"/>
<feBlend mode="normal" in2="effect1_backgroundBlur_931_53" result="effect2_dropShadow_931_53"/>
<feBlend mode="normal" in="SourceGraphic" in2="effect2_dropShadow_931_53" result="shape"/>
</filter>
<filter id="filter13_b_931_53" x="-28.5386" y="-3.33838" width="174.969" height="114.733" filterUnits="userSpaceOnUse" color-interpolation-filters="sRGB">
<feFlood flood-opacity="0" result="BackgroundImageFix"/>
<feGaussianBlur in="BackgroundImageFix" stdDeviation="2.5"/>
<feComposite in2="SourceAlpha" operator="in" result="effect1_backgroundBlur_931_53"/>
<feBlend mode="normal" in="SourceGraphic" in2="effect1_backgroundBlur_931_53" result="shape"/>
</filter>
<filter id="filter14_bd_931_53" x="-94.9766" y="242.29" width="106.144" height="78.7285" filterUnits="userSpaceOnUse" color-interpolation-filters="sRGB">
<feFlood flood-opacity="0" result="BackgroundImageFix"/>
<feGaussianBlur in="BackgroundImageFix" stdDeviation="2"/>
<feComposite in2="SourceAlpha" operator="in" result="effect1_backgroundBlur_931_53"/>
<feColorMatrix in="SourceAlpha" type="matrix" values="0 0 0 0 0 0 0 0 0 0 0 0 0 0 0 0 0 0 127 0" result="hardAlpha"/>
<feOffset dy="4"/>
<feGaussianBlur stdDeviation="5"/>
<feComposite in2="hardAlpha" operator="out"/>
<feColorMatrix type="matrix" values="0 0 0 0 0.520833 0 0 0 0 0.520833 0 0 0 0 0.520833 0 0 0 0.25 0"/>
<feBlend mode="normal" in2="effect1_backgroundBlur_931_53" result="effect2_dropShadow_931_53"/>
<feBlend mode="normal" in="SourceGraphic" in2="effect2_dropShadow_931_53" result="shape"/>
</filter>
<filter id="filter15_b_931_53" x="-89.9766" y="241.09" width="96.1436" height="68.7285" filterUnits="userSpaceOnUse" color-interpolation-filters="sRGB">
<feFlood flood-opacity="0" result="BackgroundImageFix"/>
<feGaussianBlur in="BackgroundImageFix" stdDeviation="2.5"/>
<feComposite in2="SourceAlpha" operator="in" result="effect1_backgroundBlur_931_53"/>
<feBlend mode="normal" in="SourceGraphic" in2="effect1_backgroundBlur_931_53" result="shape"/>
</filter>
<linearGradient id="paint0_linear_931_53" x1="101.5" y1="40" x2="101.5" y2="213" gradientUnits="userSpaceOnUse">
<stop stop-color="#745545"/>
<stop offset="1" stop-color="#C1A090"/>
</linearGradient>
<linearGradient id="paint1_linear_931_53" x1="24" y1="224" x2="24" y2="323" gradientUnits="userSpaceOnUse">
<stop stop-color="#745545"/>
<stop offset="1" stop-color="#C1A090"/>
</linearGradient>
<linearGradient id="paint2_linear_931_53" x1="101.5" y1="35" x2="101.5" y2="207" gradientUnits="userSpaceOnUse">
<stop stop-color="#ECD4C7" stop-opacity="0.5"/>
<stop offset="1" stop-color="white" stop-opacity="0.5"/>
</linearGradient>
<linearGradient id="paint3_linear_931_53" x1="24" y1="220" x2="24" y2="319" gradientUnits="userSpaceOnUse">
<stop stop-color="#ECD4C7" stop-opacity="0.5"/>
<stop offset="1" stop-color="white" stop-opacity="0.5"/>
</linearGradient>
<linearGradient id="paint4_linear_931_53" x1="58.5" y1="30" x2="58.5" y2="204" gradientUnits="userSpaceOnUse">
<stop stop-color="#ECD4C7"/>
<stop offset="1" stop-color="#F5F5F5"/>
</linearGradient>
<linearGradient id="paint5_linear_931_53" x1="58.5" y1="30" x2="58.5" y2="204" gradientUnits="userSpaceOnUse">
<stop stop-color="white" stop-opacity="0.435"/>
<stop offset="0.52" stop-color="white"/>
<stop offset="1" stop-color="white" stop-opacity="0"/>
</linearGradient>
<linearGradient id="paint6_linear_931_53" x1="58.5" y1="24" x2="58.5" y2="198" gradientUnits="userSpaceOnUse">
<stop stop-color="#ECD4C7" stop-opacity="0.5"/>
<stop offset="1" stop-color="white" stop-opacity="0.5"/>
</linearGradient>
<linearGradient id="paint7_linear_931_53" x1="58.5" y1="24" x2="58.5" y2="198" gradientUnits="userSpaceOnUse">
<stop stop-color="white" stop-opacity="0.435"/>
<stop offset="0.52" stop-color="white"/>
<stop offset="1" stop-color="white" stop-opacity="0"/>
</linearGradient>
<linearGradient id="paint8_linear_931_53" x1="-21.7978" y1="233.966" x2="-21.7978" y2="333.024" gradientUnits="userSpaceOnUse">
<stop stop-color="#ECD4C7"/>
<stop offset="1" stop-color="#F5F5F5"/>
</linearGradient>
<linearGradient id="paint9_linear_931_53" x1="-21.7978" y1="233.966" x2="-21.7978" y2="333.024" gradientUnits="userSpaceOnUse">
<stop stop-color="white" stop-opacity="0.435"/>
<stop offset="0.52" stop-color="white"/>
<stop offset="1" stop-color="white" stop-opacity="0"/>
</linearGradient>
<linearGradient id="paint10_linear_931_53" x1="-21.7978" y1="230.75" x2="-21.7978" y2="329.808" gradientUnits="userSpaceOnUse">
<stop stop-color="#ECD4C7" stop-opacity="0.5"/>
<stop offset="1" stop-color="white" stop-opacity="0.5"/>
</linearGradient>
<linearGradient id="paint11_linear_931_53" x1="-21.7978" y1="230.75" x2="-21.7978" y2="329.808" gradientUnits="userSpaceOnUse">
<stop stop-color="white" stop-opacity="0.435"/>
<stop offset="0.52" stop-color="white"/>
<stop offset="1" stop-color="white" stop-opacity="0"/>
</linearGradient>
<linearGradient id="paint12_linear_931_53" x1="59.4627" y1="16.7529" x2="59.4627" y2="170.834" gradientUnits="userSpaceOnUse">
<stop stop-color="#ECD4C7"/>
<stop offset="1" stop-color="#F5F5F5"/>
</linearGradient>
<linearGradient id="paint13_linear_931_53" x1="59.4627" y1="16.7529" x2="59.4627" y2="170.834" gradientUnits="userSpaceOnUse">
<stop stop-color="white" stop-opacity="0.435"/>
<stop offset="0.52" stop-color="white"/>
<stop offset="1" stop-color="white" stop-opacity="0"/>
</linearGradient>
<linearGradient id="paint14_linear_931_53" x1="59.4627" y1="11.25" x2="59.4627" y2="165.331" gradientUnits="userSpaceOnUse">
<stop stop-color="#ECD4C7" stop-opacity="0.5"/>
<stop offset="1" stop-color="white" stop-opacity="0.5"/>
</linearGradient>
<linearGradient id="paint15_linear_931_53" x1="59.4627" y1="11.25" x2="59.4627" y2="165.331" gradientUnits="userSpaceOnUse">
<stop stop-color="white" stop-opacity="0.435"/>
<stop offset="0.52" stop-color="white"/>
<stop offset="1" stop-color="white" stop-opacity="0"/>
</linearGradient>
<linearGradient id="paint16_linear_931_53" x1="-46.0088" y1="237.759" x2="-46.0088" y2="325.956" gradientUnits="userSpaceOnUse">
<stop stop-color="#D9D9D9"/>
<stop offset="1" stop-color="#F5F5F5"/>
</linearGradient>
<linearGradient id="paint17_linear_931_53" x1="-46.0088" y1="237.759" x2="-46.0088" y2="325.956" gradientUnits="userSpaceOnUse">
<stop stop-color="white" stop-opacity="0.435"/>
<stop offset="0.52" stop-color="white"/>
<stop offset="1" stop-color="white" stop-opacity="0"/>
</linearGradient>
<linearGradient id="paint18_linear_931_53" x1="-46.0088" y1="234.609" x2="-46.0088" y2="322.806" gradientUnits="userSpaceOnUse">
<stop stop-color="#ECECEC" stop-opacity="0.5"/>
<stop offset="1" stop-color="white" stop-opacity="0.5"/>
</linearGradient>
<linearGradient id="paint19_linear_931_53" x1="-46.0088" y1="234.609" x2="-46.0088" y2="322.806" gradientUnits="userSpaceOnUse">
<stop stop-color="white" stop-opacity="0.435"/>
<stop offset="0.52" stop-color="white"/>
<stop offset="1" stop-color="white" stop-opacity="0"/>
</linearGradient>
<linearGradient id="paint20_linear_931_53" x1="58.7747" y1="4.0874" x2="58.7747" y2="111.678" gradientUnits="userSpaceOnUse">
<stop stop-color="#ECECEC"/>
<stop offset="1" stop-color="#F5F5F5"/>
</linearGradient>
<linearGradient id="paint21_linear_931_53" x1="58.7747" y1="4.0874" x2="58.7747" y2="111.678" gradientUnits="userSpaceOnUse">
<stop stop-color="white" stop-opacity="0.435"/>
<stop offset="0.52" stop-color="white"/>
<stop offset="1" stop-color="white" stop-opacity="0"/>
</linearGradient>
<linearGradient id="paint22_linear_931_53" x1="58.7747" y1="0.244629" x2="58.7747" y2="107.835" gradientUnits="userSpaceOnUse">
<stop stop-color="#ECD4C7" stop-opacity="0.5"/>
<stop offset="1" stop-color="white" stop-opacity="0.5"/>
</linearGradient>
<linearGradient id="paint23_linear_931_53" x1="58.7747" y1="0.244629" x2="58.7747" y2="107.835" gradientUnits="userSpaceOnUse">
<stop stop-color="white" stop-opacity="0.435"/>
<stop offset="0.52" stop-color="white"/>
<stop offset="1" stop-color="white" stop-opacity="0"/>
</linearGradient>
<linearGradient id="paint24_linear_931_53" x1="-42.0757" y1="246.873" x2="-42.0757" y2="308.459" gradientUnits="userSpaceOnUse">
<stop stop-color="#D9D9D9"/>
<stop offset="1" stop-color="#F5F5F5"/>
</linearGradient>
<linearGradient id="paint25_linear_931_53" x1="-42.0757" y1="246.873" x2="-42.0757" y2="308.459" gradientUnits="userSpaceOnUse">
<stop stop-color="white" stop-opacity="0.435"/>
<stop offset="0.52" stop-color="white"/>
<stop offset="1" stop-color="white" stop-opacity="0"/>
</linearGradient>
<linearGradient id="paint26_linear_931_53" x1="-42.0757" y1="244.673" x2="-42.0757" y2="306.259" gradientUnits="userSpaceOnUse">
<stop stop-color="#ECECEC" stop-opacity="0.5"/>
<stop offset="1" stop-color="white" stop-opacity="0.5"/>
</linearGradient>
<linearGradient id="paint27_linear_931_53" x1="-42.0757" y1="244.673" x2="-42.0757" y2="306.259" gradientUnits="userSpaceOnUse">
<stop stop-color="white" stop-opacity="0.435"/>
<stop offset="0.52" stop-color="white"/>
<stop offset="1" stop-color="white" stop-opacity="0"/>
</linearGradient>
<clipPath id="clip0_931_53">
<rect width="250" height="333" fill="white"/>
</clipPath>
</defs>
</svg>
