<svg width="297" height="77" viewBox="0 0 297 77" fill="none" xmlns="http://www.w3.org/2000/svg">
<g clip-path="url(#clip0_931_52)">
<g filter="url(#filter0_di_931_52)">
<path d="M4.04545 62V15.4545H22.4091C25.9394 15.4545 28.947 16.1288 31.4318 17.4773C33.9167 18.8106 35.8106 20.6667 37.1136 23.0455C38.4318 25.4091 39.0909 28.1364 39.0909 31.2273C39.0909 34.3182 38.4242 37.0455 37.0909 39.4091C35.7576 41.7727 33.8258 43.6136 31.2955 44.9318C28.7803 46.25 25.7348 46.9091 22.1591 46.9091H10.4545V39.0227H20.5682C22.4621 39.0227 24.0227 38.697 25.25 38.0455C26.4924 37.3788 27.4167 36.4621 28.0227 35.2955C28.6439 34.1136 28.9545 32.7576 28.9545 31.2273C28.9545 29.6818 28.6439 28.3333 28.0227 27.1818C27.4167 26.0151 26.4924 25.1136 25.25 24.4773C24.0076 23.8258 22.4318 23.5 20.5227 23.5H13.8864V62H4.04545ZM45.3011 62V27.0909H54.6875V33.1818H55.0511C55.6875 31.0152 56.7557 29.3788 58.2557 28.2727C59.7557 27.1515 61.483 26.5909 63.4375 26.5909C63.9223 26.5909 64.4451 26.6212 65.0057 26.6818C65.5663 26.7424 66.0587 26.8258 66.483 26.9318V35.5227C66.0284 35.3864 65.3996 35.2652 64.5966 35.1591C63.7936 35.053 63.0587 35 62.392 35C60.9678 35 59.6951 35.3106 58.5739 35.9318C57.4678 36.5379 56.589 37.3864 55.9375 38.4773C55.3011 39.5682 54.983 40.8258 54.983 42.25V62H45.3011ZM85.7727 62.6818C82.1818 62.6818 79.0909 61.9545 76.5 60.5C73.9242 59.0303 71.9394 56.9545 70.5455 54.2727C69.1515 51.5758 68.4545 48.3864 68.4545 44.7045C68.4545 41.1136 69.1515 37.9621 70.5455 35.25C71.9394 32.5379 73.9015 30.4242 76.4318 28.9091C78.9773 27.3939 81.9621 26.6364 85.3864 26.6364C87.6894 26.6364 89.8333 27.0076 91.8182 27.75C93.8182 28.4773 95.5606 29.5758 97.0455 31.0455C98.5455 32.5152 99.7121 34.3636 100.545 36.5909C101.379 38.803 101.795 41.3939 101.795 44.3636V47.0227H72.3182V41.0227H92.6818C92.6818 39.6288 92.3788 38.3939 91.7727 37.3182C91.1667 36.2424 90.3258 35.4015 89.25 34.7955C88.1894 34.1742 86.9545 33.8636 85.5455 33.8636C84.0758 33.8636 82.7727 34.2045 81.6364 34.8864C80.5152 35.553 79.6364 36.4545 79 37.5909C78.3636 38.7121 78.0379 39.9621 78.0227 41.3409V47.0455C78.0227 48.7727 78.3409 50.2652 78.9773 51.5227C79.6288 52.7803 80.5455 53.75 81.7273 54.4318C82.9091 55.1136 84.3106 55.4545 85.9318 55.4545C87.0076 55.4545 87.9924 55.303 88.8864 55C89.7803 54.697 90.5455 54.2424 91.1818 53.6364C91.8182 53.0303 92.303 52.2879 92.6364 51.4091L101.591 52C101.136 54.1515 100.205 56.0303 98.7955 57.6364C97.4015 59.2273 95.5985 60.4697 93.3864 61.3636C91.1894 62.2424 88.6515 62.6818 85.7727 62.6818ZM118.068 62.6591C115.841 62.6591 113.856 62.2727 112.114 61.5C110.371 60.7121 108.992 59.553 107.977 58.0227C106.977 56.4773 106.477 54.553 106.477 52.25C106.477 50.3106 106.833 48.6818 107.545 47.3636C108.258 46.0455 109.227 44.9848 110.455 44.1818C111.682 43.3788 113.076 42.7727 114.636 42.3636C116.212 41.9545 117.864 41.6667 119.591 41.5C121.621 41.2879 123.258 41.0909 124.5 40.9091C125.742 40.7121 126.644 40.4242 127.205 40.0455C127.765 39.6667 128.045 39.1061 128.045 38.3636V38.2273C128.045 36.7879 127.591 35.6742 126.682 34.8864C125.788 34.0985 124.515 33.7045 122.864 33.7045C121.121 33.7045 119.735 34.0909 118.705 34.8636C117.674 35.6212 116.992 36.5758 116.659 37.7273L107.705 37C108.159 34.8788 109.053 33.0455 110.386 31.5C111.72 29.9394 113.439 28.7424 115.545 27.9091C117.667 27.0606 120.121 26.6364 122.909 26.6364C124.848 26.6364 126.705 26.8636 128.477 27.3182C130.265 27.7727 131.848 28.4773 133.227 29.4318C134.621 30.3864 135.72 31.6136 136.523 33.1136C137.326 34.5985 137.727 36.3788 137.727 38.4545V62H128.545V57.1591H128.273C127.712 58.25 126.962 59.2121 126.023 60.0455C125.083 60.8636 123.955 61.5076 122.636 61.9773C121.318 62.4318 119.795 62.6591 118.068 62.6591ZM120.841 55.9773C122.265 55.9773 123.523 55.697 124.614 55.1364C125.705 54.5606 126.561 53.7879 127.182 52.8182C127.803 51.8485 128.114 50.75 128.114 49.5227V45.8182C127.811 46.0152 127.394 46.197 126.864 46.3636C126.348 46.5152 125.765 46.6591 125.114 46.7955C124.462 46.9167 123.811 47.0303 123.159 47.1364C122.508 47.2273 121.917 47.3106 121.386 47.3864C120.25 47.553 119.258 47.8182 118.409 48.1818C117.561 48.5455 116.902 49.0379 116.432 49.6591C115.962 50.2652 115.727 51.0227 115.727 51.9318C115.727 53.25 116.205 54.2576 117.159 54.9545C118.129 55.6364 119.356 55.9773 120.841 55.9773ZM145.239 62V27.0909H154.466V33.25H154.875C155.602 31.2045 156.814 29.5909 158.511 28.4091C160.208 27.2273 162.239 26.6364 164.602 26.6364C166.996 26.6364 169.034 27.2348 170.716 28.4318C172.398 29.6136 173.519 31.2197 174.08 33.25H174.443C175.155 31.25 176.443 29.6515 178.307 28.4545C180.186 27.2424 182.405 26.6364 184.966 26.6364C188.223 26.6364 190.867 27.6742 192.898 29.75C194.943 31.8106 195.966 34.7348 195.966 38.5227V62H186.307V40.4318C186.307 38.4924 185.792 37.0379 184.761 36.0682C183.731 35.0985 182.443 34.6136 180.898 34.6136C179.14 34.6136 177.769 35.1742 176.784 36.2955C175.799 37.4015 175.307 38.8636 175.307 40.6818V62H165.92V40.2273C165.92 38.5152 165.428 37.1515 164.443 36.1364C163.473 35.1212 162.193 34.6136 160.602 34.6136C159.527 34.6136 158.557 34.8864 157.693 35.4318C156.845 35.9621 156.17 36.7121 155.67 37.6818C155.17 38.6364 154.92 39.7576 154.92 41.0455V62H145.239ZM203.795 62V15.4545H213.477V32.9545H213.773C214.197 32.0152 214.811 31.0606 215.614 30.0909C216.432 29.1061 217.492 28.2879 218.795 27.6364C220.114 26.9697 221.75 26.6364 223.705 26.6364C226.25 26.6364 228.598 27.303 230.75 28.6364C232.902 29.9545 234.621 31.947 235.909 34.6136C237.197 37.2652 237.841 40.5909 237.841 44.5909C237.841 48.4848 237.212 51.7727 235.955 54.4545C234.712 57.1212 233.015 59.1439 230.864 60.5227C228.727 61.8864 226.333 62.5682 223.682 62.5682C221.803 62.5682 220.205 62.2576 218.886 61.6364C217.583 61.0152 216.515 60.2348 215.682 59.2955C214.848 58.3409 214.212 57.3788 213.773 56.4091H213.341V62H203.795ZM213.273 44.5455C213.273 46.6212 213.561 48.4318 214.136 49.9773C214.712 51.5227 215.545 52.7273 216.636 53.5909C217.727 54.4394 219.053 54.8636 220.614 54.8636C222.189 54.8636 223.523 54.4318 224.614 53.5682C225.705 52.6894 226.53 51.4773 227.091 49.9318C227.667 48.3712 227.955 46.5758 227.955 44.5455C227.955 42.5303 227.674 40.7576 227.114 39.2273C226.553 37.697 225.727 36.5 224.636 35.6364C223.545 34.7727 222.205 34.3409 220.614 34.3409C219.038 34.3409 217.705 34.7576 216.614 35.5909C215.538 36.4242 214.712 37.6061 214.136 39.1364C213.561 40.6667 213.273 42.4697 213.273 44.5455ZM253.983 15.4545V62H244.301V15.4545H253.983ZM277.648 62.6818C274.057 62.6818 270.966 61.9545 268.375 60.5C265.799 59.0303 263.814 56.9545 262.42 54.2727C261.027 51.5758 260.33 48.3864 260.33 44.7045C260.33 41.1136 261.027 37.9621 262.42 35.25C263.814 32.5379 265.777 30.4242 268.307 28.9091C270.852 27.3939 273.837 26.6364 277.261 26.6364C279.564 26.6364 281.708 27.0076 283.693 27.75C285.693 28.4773 287.436 29.5758 288.92 31.0455C290.42 32.5152 291.587 34.3636 292.42 36.5909C293.254 38.803 293.67 41.3939 293.67 44.3636V47.0227H264.193V41.0227H284.557C284.557 39.6288 284.254 38.3939 283.648 37.3182C283.042 36.2424 282.201 35.4015 281.125 34.7955C280.064 34.1742 278.83 33.8636 277.42 33.8636C275.951 33.8636 274.648 34.2045 273.511 34.8864C272.39 35.553 271.511 36.4545 270.875 37.5909C270.239 38.7121 269.913 39.9621 269.898 41.3409V47.0455C269.898 48.7727 270.216 50.2652 270.852 51.5227C271.504 52.7803 272.42 53.75 273.602 54.4318C274.784 55.1136 276.186 55.4545 277.807 55.4545C278.883 55.4545 279.867 55.303 280.761 55C281.655 54.697 282.42 54.2424 283.057 53.6364C283.693 53.0303 284.178 52.2879 284.511 51.4091L293.466 52C293.011 54.1515 292.08 56.0303 290.67 57.6364C289.277 59.2273 287.473 60.4697 285.261 61.3636C283.064 62.2424 280.527 62.6818 277.648 62.6818Z" fill="url(#paint0_linear_931_52)"/>
</g>
</g>
<defs>
<filter id="filter0_di_931_52" x="-245.955" y="-230.545" width="789.625" height="547.227" filterUnits="userSpaceOnUse" color-interpolation-filters="sRGB">
<feFlood flood-opacity="0" result="BackgroundImageFix"/>
<feColorMatrix in="SourceAlpha" type="matrix" values="0 0 0 0 0 0 0 0 0 0 0 0 0 0 0 0 0 0 127 0" result="hardAlpha"/>
<feOffset dy="4"/>
<feGaussianBlur stdDeviation="125"/>
<feComposite in2="hardAlpha" operator="out"/>
<feColorMatrix type="matrix" values="0 0 0 0 0.054902 0 0 0 0 0.211765 0 0 0 0 1 0 0 0 0.25 0"/>
<feBlend mode="normal" in2="BackgroundImageFix" result="effect1_dropShadow_931_52"/>
<feBlend mode="normal" in="SourceGraphic" in2="effect1_dropShadow_931_52" result="shape"/>
<feColorMatrix in="SourceAlpha" type="matrix" values="0 0 0 0 0 0 0 0 0 0 0 0 0 0 0 0 0 0 127 0" result="hardAlpha"/>
<feOffset dy="2"/>
<feGaussianBlur stdDeviation="5"/>
<feComposite in2="hardAlpha" operator="arithmetic" k2="-1" k3="1"/>
<feColorMatrix type="matrix" values="0 0 0 0 0 0 0 0 0 0 0 0 0 0 0 0 0 0 0.25 0"/>
<feBlend mode="normal" in2="shape" result="effect2_innerShadow_931_52"/>
</filter>
<linearGradient id="paint0_linear_931_52" x1="9.16586e-07" y1="77" x2="478.836" y2="-20.4779" gradientUnits="userSpaceOnUse">
<stop stop-color="#AD7561"/>
<stop offset="0.424895" stop-color="#ECC7B8"/>
<stop offset="1" stop-color="#F1F1E6"/>
</linearGradient>
<clipPath id="clip0_931_52">
<rect width="297" height="77" fill="white"/>
</clipPath>
</defs>
</svg>
