<svg width="467" height="77" viewBox="0 0 467 77" fill="none" xmlns="http://www.w3.org/2000/svg">
<g clip-path="url(#clip0_929_52)">
<g filter="url(#filter0_di_929_52)">
<path d="M22.6818 15.4545H32.4091V47.9091C32.4091 50.9091 31.7348 53.5152 30.3864 55.7273C29.053 57.9394 27.197 59.6439 24.8182 60.8409C22.4394 62.0379 19.6742 62.6364 16.5227 62.6364C13.7197 62.6364 11.1742 62.1439 8.88636 61.1591C6.61364 60.1591 4.81061 58.6439 3.47727 56.6136C2.14394 54.5682 1.48485 52 1.5 48.9091H11.2955C11.3258 50.1364 11.5758 51.1894 12.0455 52.0682C12.5303 52.9318 13.1894 53.5985 14.0227 54.0682C14.8712 54.5227 15.8712 54.75 17.0227 54.75C18.2348 54.75 19.2576 54.4924 20.0909 53.9773C20.9394 53.447 21.5833 52.6742 22.0227 51.6591C22.4621 50.6439 22.6818 49.3939 22.6818 47.9091V15.4545ZM56.1364 62.6818C52.6061 62.6818 49.553 61.9318 46.9773 60.4318C44.4167 58.9167 42.4394 56.8106 41.0455 54.1136C39.6515 51.4015 38.9545 48.2576 38.9545 44.6818C38.9545 41.0758 39.6515 37.9242 41.0455 35.2273C42.4394 32.5152 44.4167 30.4091 46.9773 28.9091C49.553 27.3939 52.6061 26.6364 56.1364 26.6364C59.6667 26.6364 62.7121 27.3939 65.2727 28.9091C67.8485 30.4091 69.8333 32.5152 71.2273 35.2273C72.6212 37.9242 73.3182 41.0758 73.3182 44.6818C73.3182 48.2576 72.6212 51.4015 71.2273 54.1136C69.8333 56.8106 67.8485 58.9167 65.2727 60.4318C62.7121 61.9318 59.6667 62.6818 56.1364 62.6818ZM56.1818 55.1818C57.7879 55.1818 59.1288 54.7273 60.2045 53.8182C61.2803 52.8939 62.0909 51.6364 62.6364 50.0455C63.197 48.4545 63.4773 46.6439 63.4773 44.6136C63.4773 42.5833 63.197 40.7727 62.6364 39.1818C62.0909 37.5909 61.2803 36.3333 60.2045 35.4091C59.1288 34.4848 57.7879 34.0227 56.1818 34.0227C54.5606 34.0227 53.197 34.4848 52.0909 35.4091C51 36.3333 50.1742 37.5909 49.6136 39.1818C49.0682 40.7727 48.7955 42.5833 48.7955 44.6136C48.7955 46.6439 49.0682 48.4545 49.6136 50.0455C50.1742 51.6364 51 52.8939 52.0909 53.8182C53.197 54.7273 54.5606 55.1818 56.1818 55.1818ZM108.659 37.0455L99.7955 37.5909C99.6439 36.8333 99.3182 36.1515 98.8182 35.5455C98.3182 34.9242 97.6591 34.4318 96.8409 34.0682C96.0379 33.6894 95.0758 33.5 93.9545 33.5C92.4545 33.5 91.1894 33.8182 90.1591 34.4545C89.1288 35.0758 88.6136 35.9091 88.6136 36.9545C88.6136 37.7879 88.947 38.4924 89.6136 39.0682C90.2803 39.6439 91.4242 40.1061 93.0455 40.4545L99.3636 41.7273C102.758 42.4242 105.288 43.5455 106.955 45.0909C108.621 46.6364 109.455 48.6667 109.455 51.1818C109.455 53.4697 108.78 55.4773 107.432 57.2045C106.098 58.9318 104.265 60.2803 101.932 61.25C99.6136 62.2045 96.9394 62.6818 93.9091 62.6818C89.2879 62.6818 85.6061 61.7197 82.8636 59.7955C80.1364 57.8561 78.5379 55.2197 78.0682 51.8864L87.5909 51.3864C87.8788 52.7955 88.5758 53.8712 89.6818 54.6136C90.7879 55.3409 92.2045 55.7045 93.9318 55.7045C95.6288 55.7045 96.9924 55.3788 98.0227 54.7273C99.0682 54.0606 99.5985 53.2045 99.6136 52.1591C99.5985 51.2803 99.2273 50.5606 98.5 50C97.7727 49.4242 96.6515 48.9848 95.1364 48.6818L89.0909 47.4773C85.6818 46.7955 83.1439 45.6136 81.4773 43.9318C79.8258 42.25 79 40.1061 79 37.5C79 35.2576 79.6061 33.3258 80.8182 31.7045C82.0455 30.0833 83.7652 28.8333 85.9773 27.9545C88.2045 27.0758 90.8106 26.6364 93.7955 26.6364C98.2045 26.6364 101.674 27.5682 104.205 29.4318C106.75 31.2955 108.235 33.8333 108.659 37.0455ZM131.324 62.6818C127.748 62.6818 124.672 61.9242 122.097 60.4091C119.536 58.8788 117.566 56.7576 116.188 54.0455C114.824 51.3333 114.142 48.2121 114.142 44.6818C114.142 41.1061 114.831 37.9697 116.21 35.2727C117.604 32.5606 119.581 30.447 122.142 28.9318C124.703 27.4015 127.748 26.6364 131.278 26.6364C134.324 26.6364 136.991 27.1894 139.278 28.2955C141.566 29.4015 143.377 30.9545 144.71 32.9545C146.044 34.9545 146.778 37.303 146.915 40H137.778C137.521 38.2576 136.839 36.8561 135.733 35.7955C134.642 34.7197 133.21 34.1818 131.438 34.1818C129.938 34.1818 128.627 34.5909 127.506 35.4091C126.4 36.2121 125.536 37.3864 124.915 38.9318C124.294 40.4773 123.983 42.3485 123.983 44.5455C123.983 46.7727 124.286 48.6667 124.892 50.2273C125.513 51.7879 126.384 52.9773 127.506 53.7955C128.627 54.6136 129.938 55.0227 131.438 55.0227C132.544 55.0227 133.536 54.7955 134.415 54.3409C135.309 53.8864 136.044 53.2273 136.619 52.3636C137.21 51.4848 137.597 50.4318 137.778 49.2045H146.915C146.763 51.8712 146.036 54.2197 144.733 56.25C143.445 58.2652 141.665 59.8409 139.392 60.9773C137.119 62.1136 134.43 62.6818 131.324 62.6818ZM162.795 41.8182V62H153.114V15.4545H162.523V33.25H162.932C163.72 31.1894 164.992 29.5758 166.75 28.4091C168.508 27.2273 170.712 26.6364 173.364 26.6364C175.788 26.6364 177.902 27.1667 179.705 28.2273C181.523 29.2727 182.932 30.7803 183.932 32.75C184.947 34.7045 185.447 37.0455 185.432 39.7727V62H175.75V41.5C175.765 39.3485 175.22 37.6742 174.114 36.4773C173.023 35.2803 171.492 34.6818 169.523 34.6818C168.205 34.6818 167.038 34.9621 166.023 35.5227C165.023 36.0833 164.235 36.9015 163.659 37.9773C163.098 39.0379 162.811 40.3182 162.795 41.8182ZM203.006 62.6591C200.778 62.6591 198.794 62.2727 197.051 61.5C195.309 60.7121 193.93 59.553 192.915 58.0227C191.915 56.4773 191.415 54.553 191.415 52.25C191.415 50.3106 191.771 48.6818 192.483 47.3636C193.195 46.0455 194.165 44.9848 195.392 44.1818C196.619 43.3788 198.013 42.7727 199.574 42.3636C201.15 41.9545 202.801 41.6667 204.528 41.5C206.559 41.2879 208.195 41.0909 209.438 40.9091C210.68 40.7121 211.581 40.4242 212.142 40.0455C212.703 39.6667 212.983 39.1061 212.983 38.3636V38.2273C212.983 36.7879 212.528 35.6742 211.619 34.8864C210.725 34.0985 209.453 33.7045 207.801 33.7045C206.059 33.7045 204.672 34.0909 203.642 34.8636C202.612 35.6212 201.93 36.5758 201.597 37.7273L192.642 37C193.097 34.8788 193.991 33.0455 195.324 31.5C196.657 29.9394 198.377 28.7424 200.483 27.9091C202.604 27.0606 205.059 26.6364 207.847 26.6364C209.786 26.6364 211.642 26.8636 213.415 27.3182C215.203 27.7727 216.786 28.4773 218.165 29.4318C219.559 30.3864 220.657 31.6136 221.46 33.1136C222.263 34.5985 222.665 36.3788 222.665 38.4545V62H213.483V57.1591H213.21C212.65 58.25 211.9 59.2121 210.96 60.0455C210.021 60.8636 208.892 61.5076 207.574 61.9773C206.256 62.4318 204.733 62.6591 203.006 62.6591ZM205.778 55.9773C207.203 55.9773 208.46 55.697 209.551 55.1364C210.642 54.5606 211.498 53.7879 212.119 52.8182C212.741 51.8485 213.051 50.75 213.051 49.5227V45.8182C212.748 46.0152 212.331 46.197 211.801 46.3636C211.286 46.5152 210.703 46.6591 210.051 46.7955C209.4 46.9167 208.748 47.0303 208.097 47.1364C207.445 47.2273 206.854 47.3106 206.324 47.3864C205.188 47.553 204.195 47.8182 203.347 48.1818C202.498 48.5455 201.839 49.0379 201.369 49.6591C200.9 50.2652 200.665 51.0227 200.665 51.9318C200.665 53.25 201.142 54.2576 202.097 54.9545C203.066 55.6364 204.294 55.9773 205.778 55.9773ZM276.034 30.5C275.716 29.3939 275.269 28.4167 274.693 27.5682C274.117 26.7045 273.413 25.9773 272.58 25.3864C271.761 24.7803 270.822 24.3182 269.761 24C268.716 23.6818 267.557 23.5227 266.284 23.5227C263.905 23.5227 261.814 24.1136 260.011 25.2955C258.223 26.4773 256.83 28.197 255.83 30.4545C254.83 32.697 254.33 35.4394 254.33 38.6818C254.33 41.9242 254.822 44.6818 255.807 46.9545C256.792 49.2273 258.186 50.9621 259.989 52.1591C261.792 53.3409 263.92 53.9318 266.375 53.9318C268.602 53.9318 270.504 53.5379 272.08 52.75C273.67 51.947 274.883 50.8182 275.716 49.3636C276.564 47.9091 276.989 46.1894 276.989 44.2045L278.989 44.5H266.989V37.0909H286.466V42.9545C286.466 47.0455 285.602 50.5606 283.875 53.5C282.148 56.4242 279.769 58.6818 276.739 60.2727C273.708 61.8485 270.239 62.6364 266.33 62.6364C261.966 62.6364 258.133 61.6742 254.83 59.75C251.527 57.8106 248.951 55.0606 247.102 51.5C245.269 47.9242 244.352 43.6818 244.352 38.7727C244.352 35 244.898 31.6364 245.989 28.6818C247.095 25.7121 248.64 23.197 250.625 21.1364C252.61 19.0758 254.92 17.5076 257.557 16.4318C260.193 15.3561 263.049 14.8182 266.125 14.8182C268.761 14.8182 271.216 15.2045 273.489 15.9773C275.761 16.7348 277.777 17.8106 279.534 19.2045C281.307 20.5985 282.754 22.2576 283.875 24.1818C284.996 26.0909 285.716 28.197 286.034 30.5H276.034ZM303.631 62.6591C301.403 62.6591 299.419 62.2727 297.676 61.5C295.934 60.7121 294.555 59.553 293.54 58.0227C292.54 56.4773 292.04 54.553 292.04 52.25C292.04 50.3106 292.396 48.6818 293.108 47.3636C293.82 46.0455 294.79 44.9848 296.017 44.1818C297.244 43.3788 298.638 42.7727 300.199 42.3636C301.775 41.9545 303.426 41.6667 305.153 41.5C307.184 41.2879 308.82 41.0909 310.062 40.9091C311.305 40.7121 312.206 40.4242 312.767 40.0455C313.328 39.6667 313.608 39.1061 313.608 38.3636V38.2273C313.608 36.7879 313.153 35.6742 312.244 34.8864C311.35 34.0985 310.078 33.7045 308.426 33.7045C306.684 33.7045 305.297 34.0909 304.267 34.8636C303.237 35.6212 302.555 36.5758 302.222 37.7273L293.267 37C293.722 34.8788 294.616 33.0455 295.949 31.5C297.282 29.9394 299.002 28.7424 301.108 27.9091C303.229 27.0606 305.684 26.6364 308.472 26.6364C310.411 26.6364 312.267 26.8636 314.04 27.3182C315.828 27.7727 317.411 28.4773 318.79 29.4318C320.184 30.3864 321.282 31.6136 322.085 33.1136C322.888 34.5985 323.29 36.3788 323.29 38.4545V62H314.108V57.1591H313.835C313.275 58.25 312.525 59.2121 311.585 60.0455C310.646 60.8636 309.517 61.5076 308.199 61.9773C306.881 62.4318 305.358 62.6591 303.631 62.6591ZM306.403 55.9773C307.828 55.9773 309.085 55.697 310.176 55.1364C311.267 54.5606 312.123 53.7879 312.744 52.8182C313.366 51.8485 313.676 50.75 313.676 49.5227V45.8182C313.373 46.0152 312.956 46.197 312.426 46.3636C311.911 46.5152 311.328 46.6591 310.676 46.7955C310.025 46.9167 309.373 47.0303 308.722 47.1364C308.07 47.2273 307.479 47.3106 306.949 47.3864C305.813 47.553 304.82 47.8182 303.972 48.1818C303.123 48.5455 302.464 49.0379 301.994 49.6591C301.525 50.2652 301.29 51.0227 301.29 51.9318C301.29 53.25 301.767 54.2576 302.722 54.9545C303.691 55.6364 304.919 55.9773 306.403 55.9773ZM330.983 62V15.4545H340.665V32.9545H340.96C341.384 32.0152 341.998 31.0606 342.801 30.0909C343.619 29.1061 344.68 28.2879 345.983 27.6364C347.301 26.9697 348.938 26.6364 350.892 26.6364C353.438 26.6364 355.786 27.303 357.938 28.6364C360.089 29.9545 361.809 31.947 363.097 34.6136C364.384 37.2652 365.028 40.5909 365.028 44.5909C365.028 48.4848 364.4 51.7727 363.142 54.4545C361.9 57.1212 360.203 59.1439 358.051 60.5227C355.915 61.8864 353.521 62.5682 350.869 62.5682C348.991 62.5682 347.392 62.2576 346.074 61.6364C344.771 61.0152 343.703 60.2348 342.869 59.2955C342.036 58.3409 341.4 57.3788 340.96 56.4091H340.528V62H330.983ZM340.46 44.5455C340.46 46.6212 340.748 48.4318 341.324 49.9773C341.9 51.5227 342.733 52.7273 343.824 53.5909C344.915 54.4394 346.241 54.8636 347.801 54.8636C349.377 54.8636 350.71 54.4318 351.801 53.5682C352.892 52.6894 353.718 51.4773 354.278 49.9318C354.854 48.3712 355.142 46.5758 355.142 44.5455C355.142 42.5303 354.862 40.7576 354.301 39.2273C353.741 37.697 352.915 36.5 351.824 35.6364C350.733 34.7727 349.392 34.3409 347.801 34.3409C346.225 34.3409 344.892 34.7576 343.801 35.5909C342.725 36.4242 341.9 37.6061 341.324 39.1364C340.748 40.6667 340.46 42.4697 340.46 44.5455ZM371.489 62V27.0909H380.875V33.1818H381.239C381.875 31.0152 382.943 29.3788 384.443 28.2727C385.943 27.1515 387.67 26.5909 389.625 26.5909C390.11 26.5909 390.633 26.6212 391.193 26.6818C391.754 26.7424 392.246 26.8258 392.67 26.9318V35.5227C392.216 35.3864 391.587 35.2652 390.784 35.1591C389.981 35.053 389.246 35 388.58 35C387.155 35 385.883 35.3106 384.761 35.9318C383.655 36.5379 382.777 37.3864 382.125 38.4773C381.489 39.5682 381.17 40.8258 381.17 42.25V62H371.489ZM397.676 62V27.0909H407.358V62H397.676ZM402.54 22.5909C401.1 22.5909 399.866 22.1136 398.835 21.1591C397.82 20.1894 397.312 19.0303 397.312 17.6818C397.312 16.3485 397.82 15.2045 398.835 14.25C399.866 13.2803 401.1 12.7955 402.54 12.7955C403.979 12.7955 405.206 13.2803 406.222 14.25C407.252 15.2045 407.767 16.3485 407.767 17.6818C407.767 19.0303 407.252 20.1894 406.222 21.1591C405.206 22.1136 403.979 22.5909 402.54 22.5909ZM431.023 62.6818C427.432 62.6818 424.341 61.9545 421.75 60.5C419.174 59.0303 417.189 56.9545 415.795 54.2727C414.402 51.5758 413.705 48.3864 413.705 44.7045C413.705 41.1136 414.402 37.9621 415.795 35.25C417.189 32.5379 419.152 30.4242 421.682 28.9091C424.227 27.3939 427.212 26.6364 430.636 26.6364C432.939 26.6364 435.083 27.0076 437.068 27.75C439.068 28.4773 440.811 29.5758 442.295 31.0455C443.795 32.5152 444.962 34.3636 445.795 36.5909C446.629 38.803 447.045 41.3939 447.045 44.3636V47.0227H417.568V41.0227H437.932C437.932 39.6288 437.629 38.3939 437.023 37.3182C436.417 36.2424 435.576 35.4015 434.5 34.7955C433.439 34.1742 432.205 33.8636 430.795 33.8636C429.326 33.8636 428.023 34.2045 426.886 34.8864C425.765 35.553 424.886 36.4545 424.25 37.5909C423.614 38.7121 423.288 39.9621 423.273 41.3409V47.0455C423.273 48.7727 423.591 50.2652 424.227 51.5227C424.879 52.7803 425.795 53.75 426.977 54.4318C428.159 55.1136 429.561 55.4545 431.182 55.4545C432.258 55.4545 433.242 55.303 434.136 55C435.03 54.697 435.795 54.2424 436.432 53.6364C437.068 53.0303 437.553 52.2879 437.886 51.4091L446.841 52C446.386 54.1515 445.455 56.0303 444.045 57.6364C442.652 59.2273 440.848 60.4697 438.636 61.3636C436.439 62.2424 433.902 62.6818 431.023 62.6818ZM463.045 15.4545V62H453.364V15.4545H463.045Z" fill="url(#paint0_linear_929_52)"/>
</g>
</g>
<defs>
<filter id="filter0_di_929_52" x="-248.523" y="-233.205" width="961.568" height="549.886" filterUnits="userSpaceOnUse" color-interpolation-filters="sRGB">
<feFlood flood-opacity="0" result="BackgroundImageFix"/>
<feColorMatrix in="SourceAlpha" type="matrix" values="0 0 0 0 0 0 0 0 0 0 0 0 0 0 0 0 0 0 127 0" result="hardAlpha"/>
<feOffset dy="4"/>
<feGaussianBlur stdDeviation="125"/>
<feComposite in2="hardAlpha" operator="out"/>
<feColorMatrix type="matrix" values="0 0 0 0 0.054902 0 0 0 0 0.211765 0 0 0 0 1 0 0 0 0.25 0"/>
<feBlend mode="normal" in2="BackgroundImageFix" result="effect1_dropShadow_929_52"/>
<feBlend mode="normal" in="SourceGraphic" in2="effect1_dropShadow_929_52" result="shape"/>
<feColorMatrix in="SourceAlpha" type="matrix" values="0 0 0 0 0 0 0 0 0 0 0 0 0 0 0 0 0 0 127 0" result="hardAlpha"/>
<feOffset dy="2"/>
<feGaussianBlur stdDeviation="5"/>
<feComposite in2="hardAlpha" operator="arithmetic" k2="-1" k3="1"/>
<feColorMatrix type="matrix" values="0 0 0 0 0 0 0 0 0 0 0 0 0 0 0 0 0 0 0.25 0"/>
<feBlend mode="normal" in2="shape" result="effect2_innerShadow_929_52"/>
</filter>
<linearGradient id="paint0_linear_929_52" x1="1.44123e-06" y1="77" x2="711.245" y2="-150.666" gradientUnits="userSpaceOnUse">
<stop stop-color="#AD7561"/>
<stop offset="0.424895" stop-color="#ECC7B8"/>
<stop offset="1" stop-color="#F1F1E6"/>
</linearGradient>
<clipPath id="clip0_929_52">
<rect width="467" height="77" fill="white"/>
</clipPath>
</defs>
</svg>
