<svg width="202" height="176" viewBox="0 0 202 176" fill="none" xmlns="http://www.w3.org/2000/svg">
<g clip-path="url(#clip0_932_58)">
<g filter="url(#filter0_bd_932_58)">
<path d="M145.853 17.0128L26.8711 86.6863C24.2381 88.2281 24.2315 92.0318 26.8591 93.5827L145.842 163.814C147.084 164.547 148.624 164.555 149.873 163.834L271.636 93.6031C274.31 92.0608 274.303 88.1994 271.624 86.6663L149.861 16.9928C148.618 16.2814 147.089 16.2891 145.853 17.0128Z" fill="url(#paint0_linear_932_58)" fill-opacity="0.8" shape-rendering="crispEdges"/>
<path d="M145.853 17.0128L26.8711 86.6863C24.2381 88.2281 24.2315 92.0318 26.8591 93.5827L145.842 163.814C147.084 164.547 148.624 164.555 149.873 163.834L271.636 93.6031C274.31 92.0608 274.303 88.1994 271.624 86.6663L149.861 16.9928C148.618 16.2814 147.089 16.2891 145.853 17.0128Z" stroke="#C1A090" stroke-width="0.1" shape-rendering="crispEdges"/>
</g>
<g filter="url(#filter1_b_932_58)">
<path d="M145.853 12.1701L26.8711 81.8435C24.2381 83.3854 24.2315 87.189 26.8591 88.74L145.842 158.971C147.084 159.704 148.624 159.712 149.873 158.991L271.636 88.7603C274.31 87.218 274.303 83.3566 271.624 81.8236L149.861 12.15C148.618 11.4386 147.089 11.4463 145.853 12.1701Z" fill="url(#paint1_linear_932_58)" fill-opacity="0.5"/>
<path d="M145.853 12.1701L26.8711 81.8435C24.2381 83.3854 24.2315 87.189 26.8591 88.74L145.842 158.971C147.084 159.704 148.624 159.712 149.873 158.991L271.636 88.7603C274.31 87.218 274.303 83.3566 271.624 81.8236L149.861 12.15C148.618 11.4386 147.089 11.4463 145.853 12.1701Z" stroke="#C1A090" stroke-width="0.1"/>
</g>
</g>
<defs>
<filter id="filter0_bd_932_58" x="14.8423" y="10.4146" width="268.845" height="168.004" filterUnits="userSpaceOnUse" color-interpolation-filters="sRGB">
<feFlood flood-opacity="0" result="BackgroundImageFix"/>
<feGaussianBlur in="BackgroundImageFix" stdDeviation="2"/>
<feComposite in2="SourceAlpha" operator="in" result="effect1_backgroundBlur_932_58"/>
<feColorMatrix in="SourceAlpha" type="matrix" values="0 0 0 0 0 0 0 0 0 0 0 0 0 0 0 0 0 0 127 0" result="hardAlpha"/>
<feOffset dy="4"/>
<feGaussianBlur stdDeviation="5"/>
<feComposite in2="hardAlpha" operator="out"/>
<feColorMatrix type="matrix" values="0 0 0 0 0.619608 0 0 0 0 0.478431 0 0 0 0 0.407843 0 0 0 0.5 0"/>
<feBlend mode="normal" in2="effect1_backgroundBlur_932_58" result="effect2_dropShadow_932_58"/>
<feBlend mode="normal" in="SourceGraphic" in2="effect2_dropShadow_932_58" result="shape"/>
</filter>
<filter id="filter1_b_932_58" x="19.8423" y="6.57178" width="258.845" height="158.004" filterUnits="userSpaceOnUse" color-interpolation-filters="sRGB">
<feFlood flood-opacity="0" result="BackgroundImageFix"/>
<feGaussianBlur in="BackgroundImageFix" stdDeviation="2.5"/>
<feComposite in2="SourceAlpha" operator="in" result="effect1_backgroundBlur_932_58"/>
<feBlend mode="normal" in="SourceGraphic" in2="effect1_backgroundBlur_932_58" result="shape"/>
</filter>
<linearGradient id="paint0_linear_932_58" x1="149.333" y1="15.8428" x2="149.333" y2="165" gradientUnits="userSpaceOnUse">
<stop stop-color="#643B27"/>
<stop offset="1" stop-color="#9E7A68"/>
</linearGradient>
<linearGradient id="paint1_linear_932_58" x1="149.333" y1="11" x2="149.333" y2="160.157" gradientUnits="userSpaceOnUse">
<stop stop-color="#ECD4C7" stop-opacity="0.5"/>
<stop offset="1" stop-color="white" stop-opacity="0.5"/>
</linearGradient>
<clipPath id="clip0_932_58">
<rect width="299" height="176" fill="white"/>
</clipPath>
</defs>
</svg>
