<svg width="252" height="77" viewBox="0 0 252 77" fill="none" xmlns="http://www.w3.org/2000/svg">
<g clip-path="url(#clip0_932_56)">
<g filter="url(#filter0_di_932_56)">
<path d="M45.1136 31.75H35.1591C34.9773 30.4621 34.6061 29.3182 34.0455 28.3182C33.4849 27.303 32.7652 26.4394 31.8864 25.7273C31.0076 25.0151 29.9924 24.4697 28.8409 24.0909C27.7045 23.7121 26.4697 23.5227 25.1364 23.5227C22.7273 23.5227 20.6288 24.1212 18.8409 25.3182C17.053 26.5 15.6667 28.2273 14.6818 30.5C13.697 32.7576 13.2045 35.5 13.2045 38.7273C13.2045 42.0455 13.697 44.8333 14.6818 47.0909C15.6818 49.3485 17.0758 51.053 18.8636 52.2045C20.6515 53.3561 22.7197 53.9318 25.0682 53.9318C26.3864 53.9318 27.6061 53.7576 28.7273 53.4091C29.8636 53.0606 30.8712 52.553 31.75 51.8864C32.6288 51.2045 33.3561 50.3788 33.9318 49.4091C34.5227 48.4394 34.9318 47.3333 35.1591 46.0909L45.1136 46.1364C44.8561 48.2727 44.2121 50.3333 43.1818 52.3182C42.1667 54.2879 40.7955 56.053 39.0682 57.6136C37.3561 59.1591 35.3106 60.3864 32.9318 61.2955C30.5682 62.1894 27.8939 62.6364 24.9091 62.6364C20.7576 62.6364 17.0455 61.697 13.7727 59.8182C10.5152 57.9394 7.93939 55.2197 6.04545 51.6591C4.16667 48.0985 3.22727 43.7879 3.22727 38.7273C3.22727 33.6515 4.18182 29.3333 6.09091 25.7727C8 22.2121 10.5909 19.5 13.8636 17.6364C17.1364 15.7576 20.8182 14.8182 24.9091 14.8182C27.6061 14.8182 30.1061 15.197 32.4091 15.9545C34.7273 16.7121 36.7803 17.8182 38.5682 19.2727C40.3561 20.7121 41.8106 22.4773 42.9318 24.5682C44.0682 26.6591 44.7955 29.053 45.1136 31.75ZM67.7614 62.6818C64.2311 62.6818 61.178 61.9318 58.6023 60.4318C56.0417 58.9167 54.0644 56.8106 52.6705 54.1136C51.2765 51.4015 50.5795 48.2576 50.5795 44.6818C50.5795 41.0758 51.2765 37.9242 52.6705 35.2273C54.0644 32.5152 56.0417 30.4091 58.6023 28.9091C61.178 27.3939 64.2311 26.6364 67.7614 26.6364C71.2917 26.6364 74.3371 27.3939 76.8977 28.9091C79.4735 30.4091 81.4583 32.5152 82.8523 35.2273C84.2462 37.9242 84.9432 41.0758 84.9432 44.6818C84.9432 48.2576 84.2462 51.4015 82.8523 54.1136C81.4583 56.8106 79.4735 58.9167 76.8977 60.4318C74.3371 61.9318 71.2917 62.6818 67.7614 62.6818ZM67.8068 55.1818C69.4129 55.1818 70.7538 54.7273 71.8295 53.8182C72.9053 52.8939 73.7159 51.6364 74.2614 50.0455C74.822 48.4545 75.1023 46.6439 75.1023 44.6136C75.1023 42.5833 74.822 40.7727 74.2614 39.1818C73.7159 37.5909 72.9053 36.3333 71.8295 35.4091C70.7538 34.4848 69.4129 34.0227 67.8068 34.0227C66.1856 34.0227 64.822 34.4848 63.7159 35.4091C62.625 36.3333 61.7992 37.5909 61.2386 39.1818C60.6932 40.7727 60.4205 42.5833 60.4205 44.6136C60.4205 46.6439 60.6932 48.4545 61.2386 50.0455C61.7992 51.6364 62.625 52.8939 63.7159 53.8182C64.822 54.7273 66.1856 55.1818 67.8068 55.1818ZM100.92 41.8182V62H91.2386V27.0909H100.466V33.25H100.875C101.648 31.2197 102.943 29.6136 104.761 28.4318C106.58 27.2348 108.784 26.6364 111.375 26.6364C113.799 26.6364 115.913 27.1667 117.716 28.2273C119.519 29.2879 120.92 30.803 121.92 32.7727C122.92 34.7273 123.42 37.0606 123.42 39.7727V62H113.739V41.5C113.754 39.3636 113.208 37.697 112.102 36.5C110.996 35.2879 109.473 34.6818 107.534 34.6818C106.231 34.6818 105.08 34.9621 104.08 35.5227C103.095 36.0833 102.322 36.9015 101.761 37.9773C101.216 39.0379 100.936 40.3182 100.92 41.8182ZM149.619 27.0909V34.3636H128.597V27.0909H149.619ZM133.369 18.7273H143.051V51.2727C143.051 52.1667 143.188 52.8636 143.46 53.3636C143.733 53.8485 144.112 54.1894 144.597 54.3864C145.097 54.5833 145.672 54.6818 146.324 54.6818C146.778 54.6818 147.233 54.6439 147.688 54.5682C148.142 54.4773 148.491 54.4091 148.733 54.3636L150.256 61.5682C149.771 61.7197 149.089 61.8939 148.21 62.0909C147.331 62.303 146.263 62.4318 145.006 62.4773C142.672 62.5682 140.627 62.2576 138.869 61.5455C137.127 60.8333 135.771 59.7273 134.801 58.2273C133.831 56.7273 133.354 54.8333 133.369 52.5455V18.7273ZM165.881 62.6591C163.653 62.6591 161.669 62.2727 159.926 61.5C158.184 60.7121 156.805 59.553 155.79 58.0227C154.79 56.4773 154.29 54.553 154.29 52.25C154.29 50.3106 154.646 48.6818 155.358 47.3636C156.07 46.0455 157.04 44.9848 158.267 44.1818C159.494 43.3788 160.888 42.7727 162.449 42.3636C164.025 41.9545 165.676 41.6667 167.403 41.5C169.434 41.2879 171.07 41.0909 172.312 40.9091C173.555 40.7121 174.456 40.4242 175.017 40.0455C175.578 39.6667 175.858 39.1061 175.858 38.3636V38.2273C175.858 36.7879 175.403 35.6742 174.494 34.8864C173.6 34.0985 172.328 33.7045 170.676 33.7045C168.934 33.7045 167.547 34.0909 166.517 34.8636C165.487 35.6212 164.805 36.5758 164.472 37.7273L155.517 37C155.972 34.8788 156.866 33.0455 158.199 31.5C159.532 29.9394 161.252 28.7424 163.358 27.9091C165.479 27.0606 167.934 26.6364 170.722 26.6364C172.661 26.6364 174.517 26.8636 176.29 27.3182C178.078 27.7727 179.661 28.4773 181.04 29.4318C182.434 30.3864 183.532 31.6136 184.335 33.1136C185.138 34.5985 185.54 36.3788 185.54 38.4545V62H176.358V57.1591H176.085C175.525 58.25 174.775 59.2121 173.835 60.0455C172.896 60.8636 171.767 61.5076 170.449 61.9773C169.131 62.4318 167.608 62.6591 165.881 62.6591ZM168.653 55.9773C170.078 55.9773 171.335 55.697 172.426 55.1364C173.517 54.5606 174.373 53.7879 174.994 52.8182C175.616 51.8485 175.926 50.75 175.926 49.5227V45.8182C175.623 46.0152 175.206 46.197 174.676 46.3636C174.161 46.5152 173.578 46.6591 172.926 46.7955C172.275 46.9167 171.623 47.0303 170.972 47.1364C170.32 47.2273 169.729 47.3106 169.199 47.3864C168.063 47.553 167.07 47.8182 166.222 48.1818C165.373 48.5455 164.714 49.0379 164.244 49.6591C163.775 50.2652 163.54 51.0227 163.54 51.9318C163.54 53.25 164.017 54.2576 164.972 54.9545C165.941 55.6364 167.169 55.9773 168.653 55.9773ZM208.824 62.6818C205.248 62.6818 202.172 61.9242 199.597 60.4091C197.036 58.8788 195.066 56.7576 193.688 54.0455C192.324 51.3333 191.642 48.2121 191.642 44.6818C191.642 41.1061 192.331 37.9697 193.71 35.2727C195.104 32.5606 197.081 30.447 199.642 28.9318C202.203 27.4015 205.248 26.6364 208.778 26.6364C211.824 26.6364 214.491 27.1894 216.778 28.2955C219.066 29.4015 220.877 30.9545 222.21 32.9545C223.544 34.9545 224.278 37.303 224.415 40H215.278C215.021 38.2576 214.339 36.8561 213.233 35.7955C212.142 34.7197 210.71 34.1818 208.938 34.1818C207.438 34.1818 206.127 34.5909 205.006 35.4091C203.9 36.2121 203.036 37.3864 202.415 38.9318C201.794 40.4773 201.483 42.3485 201.483 44.5455C201.483 46.7727 201.786 48.6667 202.392 50.2273C203.013 51.7879 203.884 52.9773 205.006 53.7955C206.127 54.6136 207.438 55.0227 208.938 55.0227C210.044 55.0227 211.036 54.7955 211.915 54.3409C212.809 53.8864 213.544 53.2273 214.119 52.3636C214.71 51.4848 215.097 50.4318 215.278 49.2045H224.415C224.263 51.8712 223.536 54.2197 222.233 56.25C220.945 58.2652 219.165 59.8409 216.892 60.9773C214.619 62.1136 211.93 62.6818 208.824 62.6818ZM249.182 27.0909V34.3636H228.159V27.0909H249.182ZM232.932 18.7273H242.614V51.2727C242.614 52.1667 242.75 52.8636 243.023 53.3636C243.295 53.8485 243.674 54.1894 244.159 54.3864C244.659 54.5833 245.235 54.6818 245.886 54.6818C246.341 54.6818 246.795 54.6439 247.25 54.5682C247.705 54.4773 248.053 54.4091 248.295 54.3636L249.818 61.5682C249.333 61.7197 248.652 61.8939 247.773 62.0909C246.894 62.303 245.826 62.4318 244.568 62.4773C242.235 62.5682 240.189 62.2576 238.432 61.5455C236.689 60.8333 235.333 59.7273 234.364 58.2273C233.394 56.7273 232.917 54.8333 232.932 52.5455V18.7273Z" fill="url(#paint0_linear_932_56)"/>
</g>
</g>
<defs>
<filter id="filter0_di_932_56" x="-246.773" y="-231.182" width="746.591" height="547.863" filterUnits="userSpaceOnUse" color-interpolation-filters="sRGB">
<feFlood flood-opacity="0" result="BackgroundImageFix"/>
<feColorMatrix in="SourceAlpha" type="matrix" values="0 0 0 0 0 0 0 0 0 0 0 0 0 0 0 0 0 0 127 0" result="hardAlpha"/>
<feOffset dy="4"/>
<feGaussianBlur stdDeviation="125"/>
<feComposite in2="hardAlpha" operator="out"/>
<feColorMatrix type="matrix" values="0 0 0 0 0.054902 0 0 0 0 0.211765 0 0 0 0 1 0 0 0 0.25 0"/>
<feBlend mode="normal" in2="BackgroundImageFix" result="effect1_dropShadow_932_56"/>
<feBlend mode="normal" in="SourceGraphic" in2="effect1_dropShadow_932_56" result="shape"/>
<feColorMatrix in="SourceAlpha" type="matrix" values="0 0 0 0 0 0 0 0 0 0 0 0 0 0 0 0 0 0 127 0" result="hardAlpha"/>
<feOffset dy="2"/>
<feGaussianBlur stdDeviation="5"/>
<feComposite in2="hardAlpha" operator="arithmetic" k2="-1" k3="1"/>
<feColorMatrix type="matrix" values="0 0 0 0 0 0 0 0 0 0 0 0 0 0 0 0 0 0 0.25 0"/>
<feBlend mode="normal" in2="shape" result="effect2_innerShadow_932_56"/>
</filter>
<linearGradient id="paint0_linear_932_56" x1="7.77709e-07" y1="77" x2="410.864" y2="6.03215" gradientUnits="userSpaceOnUse">
<stop stop-color="#AD7561"/>
<stop offset="0.424895" stop-color="#ECC7B8"/>
<stop offset="1" stop-color="#F1F1E6"/>
</linearGradient>
<clipPath id="clip0_932_56">
<rect width="252" height="77" fill="white"/>
</clipPath>
</defs>
</svg>
