<svg width="144" height="42" viewBox="0 0 144 42" fill="none" xmlns="http://www.w3.org/2000/svg">
<g clip-path="url(#clip0_932_59)">
<g filter="url(#filter0_d_932_59)">
<path d="M45.446 28L41.4119 13.4545H43.7202L46.554 24.7188H46.6889L49.6364 13.4545H51.9233L54.8707 24.7259H55.0057L57.8324 13.4545H60.1477L56.1065 28H53.8977L50.8366 17.1051H50.723L47.6619 28H45.446ZM64.1019 21.5227V28H61.9783V13.4545H64.0735V18.8665H64.2085C64.4641 18.2794 64.8548 17.813 65.3803 17.4673C65.9059 17.1217 66.5924 16.9489 67.44 16.9489C68.1881 16.9489 68.8415 17.1027 69.4002 17.4105C69.9637 17.7183 70.3993 18.1776 70.707 18.7884C71.0195 19.3944 71.1758 20.152 71.1758 21.0611V28H69.0522V21.3168C69.0522 20.5166 68.8462 19.8963 68.4343 19.456C68.0224 19.0109 67.4495 18.7884 66.7156 18.7884C66.2137 18.7884 65.7638 18.8949 65.3661 19.108C64.9731 19.321 64.663 19.6335 64.4357 20.0455C64.2132 20.4527 64.1019 20.9451 64.1019 21.5227ZM77.1843 28.2415C76.493 28.2415 75.868 28.1136 75.3093 27.858C74.7506 27.5975 74.3079 27.2211 73.9812 26.7287C73.6592 26.2363 73.4982 25.6326 73.4982 24.9176C73.4982 24.3021 73.6166 23.7955 73.8533 23.3977C74.0901 23 74.4097 22.6851 74.8121 22.4531C75.2146 22.2211 75.6644 22.0459 76.1616 21.9276C76.6587 21.8092 77.1654 21.7192 77.6815 21.6577C78.3349 21.5819 78.8652 21.5204 79.2724 21.473C79.6796 21.4209 79.9755 21.3381 80.1602 21.2244C80.3448 21.1108 80.4371 20.9261 80.4371 20.6705V20.6207C80.4371 20.0005 80.262 19.5199 79.9116 19.179C79.5659 18.8381 79.0498 18.6676 78.3633 18.6676C77.6483 18.6676 77.0849 18.8262 76.6729 19.1435C76.2657 19.456 75.984 19.804 75.8278 20.1875L73.832 19.733C74.0688 19.0701 74.4144 18.535 74.869 18.1278C75.3282 17.7159 75.8562 17.4176 76.4528 17.233C77.0494 17.0436 77.6767 16.9489 78.3349 16.9489C78.7705 16.9489 79.2321 17.0009 79.7198 17.1051C80.2122 17.2045 80.6715 17.3892 81.0977 17.6591C81.5285 17.929 81.8813 18.3149 82.1559 18.8168C82.4305 19.3139 82.5678 19.9602 82.5678 20.7557V28H80.494V26.5085H80.4087C80.2714 26.7831 80.0655 27.053 79.7908 27.3182C79.5162 27.5833 79.1635 27.8035 78.7326 27.9787C78.3017 28.1539 77.7856 28.2415 77.1843 28.2415ZM77.646 26.5369C78.2331 26.5369 78.735 26.4209 79.1516 26.1889C79.573 25.9569 79.8926 25.6539 80.1104 25.2798C80.333 24.901 80.4442 24.4962 80.4442 24.0653V22.6591C80.3685 22.7348 80.2217 22.8059 80.0039 22.8722C79.7908 22.9337 79.547 22.9882 79.2724 23.0355C78.9978 23.0781 78.7302 23.1184 78.4698 23.1562C78.2094 23.1894 77.9916 23.2178 77.8164 23.2415C77.4045 23.2936 77.0281 23.3812 76.6871 23.5043C76.351 23.6274 76.0811 23.8049 75.8775 24.0369C75.6786 24.2642 75.5792 24.5672 75.5792 24.946C75.5792 25.4716 75.7733 25.8693 76.1616 26.1392C76.5498 26.4044 77.0446 26.5369 77.646 26.5369ZM90.4886 17.0909V18.7955H84.5298V17.0909H90.4886ZM86.1278 14.4773H88.2514V24.7969C88.2514 25.2088 88.313 25.5189 88.4361 25.7273C88.5592 25.9309 88.7178 26.0705 88.9119 26.1463C89.1108 26.2173 89.3262 26.2528 89.5582 26.2528C89.7287 26.2528 89.8778 26.241 90.0057 26.2173C90.1335 26.1937 90.233 26.1747 90.304 26.1605L90.6875 27.9148C90.5644 27.9621 90.3892 28.0095 90.1619 28.0568C89.9347 28.1089 89.6506 28.1373 89.3097 28.142C88.7509 28.1515 88.2301 28.0521 87.7472 27.8438C87.2642 27.6354 86.8736 27.3134 86.5753 26.8778C86.277 26.4422 86.1278 25.8954 86.1278 25.2372V14.4773ZM100.837 19.7543L98.9119 20.0952C98.8314 19.849 98.7036 19.6146 98.5284 19.392C98.358 19.1695 98.1259 18.9872 97.8324 18.8452C97.5388 18.7031 97.1719 18.6321 96.7315 18.6321C96.1302 18.6321 95.6283 18.767 95.2259 19.0369C94.8234 19.3021 94.6222 19.6454 94.6222 20.0668C94.6222 20.4313 94.7571 20.7249 95.027 20.9474C95.2969 21.17 95.7325 21.3523 96.3338 21.4943L98.0668 21.892C99.0705 22.1241 99.8187 22.4815 100.311 22.9645C100.804 23.4474 101.05 24.0748 101.05 24.8466C101.05 25.5 100.86 26.0824 100.482 26.5938C100.107 27.1004 99.5843 27.4981 98.9119 27.7869C98.2443 28.0758 97.4702 28.2202 96.5895 28.2202C95.3679 28.2202 94.3712 27.9598 93.5994 27.4389C92.8277 26.9134 92.3542 26.1676 92.179 25.2017L94.2315 24.8892C94.3594 25.4242 94.6222 25.8291 95.0199 26.1037C95.4176 26.3736 95.9361 26.5085 96.5753 26.5085C97.2713 26.5085 97.8277 26.3641 98.2443 26.0753C98.661 25.7817 98.8693 25.4242 98.8693 25.0028C98.8693 24.6619 98.7415 24.3755 98.4858 24.1435C98.2348 23.9115 97.849 23.7363 97.3281 23.6179L95.4815 23.2131C94.4635 22.9811 93.7107 22.6117 93.223 22.1051C92.7401 21.5985 92.4986 20.9569 92.4986 20.1804C92.4986 19.5365 92.6785 18.973 93.0384 18.4901C93.3982 18.0071 93.8954 17.6307 94.5298 17.3608C95.1643 17.0862 95.8911 16.9489 96.7102 16.9489C97.8892 16.9489 98.8172 17.2045 99.4943 17.7159C100.171 18.2225 100.619 18.902 100.837 19.7543ZM106.559 28.2415C105.868 28.2415 105.243 28.1136 104.684 27.858C104.126 27.5975 103.683 27.2211 103.356 26.7287C103.034 26.2363 102.873 25.6326 102.873 24.9176C102.873 24.3021 102.992 23.7955 103.228 23.3977C103.465 23 103.785 22.6851 104.187 22.4531C104.59 22.2211 105.039 22.0459 105.537 21.9276C106.034 21.8092 106.54 21.7192 107.056 21.6577C107.71 21.5819 108.24 21.5204 108.647 21.473C109.055 21.4209 109.35 21.3381 109.535 21.2244C109.72 21.1108 109.812 20.9261 109.812 20.6705V20.6207C109.812 20.0005 109.637 19.5199 109.287 19.179C108.941 18.8381 108.425 18.6676 107.738 18.6676C107.023 18.6676 106.46 18.8262 106.048 19.1435C105.641 19.456 105.359 19.804 105.203 20.1875L103.207 19.733C103.444 19.0701 103.789 18.535 104.244 18.1278C104.703 17.7159 105.231 17.4176 105.828 17.233C106.424 17.0436 107.052 16.9489 107.71 16.9489C108.145 16.9489 108.607 17.0009 109.095 17.1051C109.587 17.2045 110.047 17.3892 110.473 17.6591C110.904 17.929 111.256 18.3149 111.531 18.8168C111.806 19.3139 111.943 19.9602 111.943 20.7557V28H109.869V26.5085H109.784C109.646 26.7831 109.44 27.053 109.166 27.3182C108.891 27.5833 108.538 27.8035 108.108 27.9787C107.677 28.1539 107.161 28.2415 106.559 28.2415ZM107.021 26.5369C107.608 26.5369 108.11 26.4209 108.527 26.1889C108.948 25.9569 109.268 25.6539 109.485 25.2798C109.708 24.901 109.819 24.4962 109.819 24.0653V22.6591C109.743 22.7348 109.597 22.8059 109.379 22.8722C109.166 22.9337 108.922 22.9882 108.647 23.0355C108.373 23.0781 108.105 23.1184 107.845 23.1562C107.584 23.1894 107.367 23.2178 107.191 23.2415C106.779 23.2936 106.403 23.3812 106.062 23.5043C105.726 23.6274 105.456 23.8049 105.252 24.0369C105.054 24.2642 104.954 24.5672 104.954 24.946C104.954 25.4716 105.148 25.8693 105.537 26.1392C105.925 26.4044 106.42 26.5369 107.021 26.5369ZM114.771 32.0909V17.0909H116.845V18.8594H117.023C117.146 18.6321 117.323 18.3693 117.555 18.071C117.787 17.7727 118.109 17.5123 118.521 17.2898C118.933 17.0625 119.478 16.9489 120.155 16.9489C121.036 16.9489 121.821 17.1714 122.513 17.6165C123.204 18.0616 123.746 18.7031 124.139 19.5412C124.537 20.3793 124.736 21.3878 124.736 22.5668C124.736 23.7457 124.539 24.7566 124.146 25.5994C123.753 26.4375 123.214 27.0838 122.527 27.5384C121.84 27.9882 121.057 28.2131 120.176 28.2131C119.513 28.2131 118.971 28.1018 118.55 27.8793C118.133 27.6567 117.806 27.3963 117.57 27.098C117.333 26.7997 117.151 26.5346 117.023 26.3026H116.895V32.0909H114.771ZM116.852 22.5455C116.852 23.3125 116.964 23.9848 117.186 24.5625C117.409 25.1402 117.731 25.5923 118.152 25.919C118.573 26.241 119.089 26.402 119.7 26.402C120.335 26.402 120.865 26.2339 121.291 25.8977C121.717 25.5568 122.039 25.0952 122.257 24.5128C122.48 23.9304 122.591 23.2746 122.591 22.5455C122.591 21.8258 122.482 21.1795 122.264 20.6065C122.051 20.0336 121.729 19.5814 121.298 19.25C120.872 18.9186 120.339 18.7528 119.7 18.7528C119.085 18.7528 118.564 18.9115 118.138 19.2287C117.716 19.5459 117.397 19.9886 117.179 20.5568C116.961 21.125 116.852 21.7879 116.852 22.5455ZM127.115 32.0909V17.0909H129.189V18.8594H129.366C129.49 18.6321 129.667 18.3693 129.899 18.071C130.131 17.7727 130.453 17.5123 130.865 17.2898C131.277 17.0625 131.821 16.9489 132.499 16.9489C133.379 16.9489 134.165 17.1714 134.857 17.6165C135.548 18.0616 136.09 18.7031 136.483 19.5412C136.881 20.3793 137.08 21.3878 137.08 22.5668C137.08 23.7457 136.883 24.7566 136.49 25.5994C136.097 26.4375 135.557 27.0838 134.871 27.5384C134.184 27.9882 133.401 28.2131 132.52 28.2131C131.857 28.2131 131.315 28.1018 130.893 27.8793C130.477 27.6567 130.15 27.3963 129.913 27.098C129.677 26.7997 129.494 26.5346 129.366 26.3026H129.239V32.0909H127.115ZM129.196 22.5455C129.196 23.3125 129.307 23.9848 129.53 24.5625C129.752 25.1402 130.074 25.5923 130.496 25.919C130.917 26.241 131.433 26.402 132.044 26.402C132.679 26.402 133.209 26.2339 133.635 25.8977C134.061 25.5568 134.383 25.0952 134.601 24.5128C134.823 23.9304 134.935 23.2746 134.935 22.5455C134.935 21.8258 134.826 21.1795 134.608 20.6065C134.395 20.0336 134.073 19.5814 133.642 19.25C133.216 18.9186 132.683 18.7528 132.044 18.7528C131.429 18.7528 130.908 18.9115 130.482 19.2287C130.06 19.5459 129.741 19.9886 129.523 20.5568C129.305 21.125 129.196 21.7879 129.196 22.5455Z" fill="#ECD4C7"/>
</g>
<path d="M8.46629 16.1693C8.7346 15.0746 9.73907 13.7704 10.5096 13.5203C10.6128 13.4865 11.0187 13.473 11.4178 13.4865C11.9117 13.505 12.0679 13.5109 12.1789 13.584C12.2302 13.6178 12.2719 13.6661 12.3328 13.7366C12.6217 14.0677 13.9633 17.2708 13.9633 17.6222C13.9633 17.9196 13.7775 18.2237 13.0276 19.1427C12.7868 19.4401 12.6561 19.6631 12.6561 19.7847C12.6561 20.1564 13.75 21.6363 14.7063 22.5621C15.0228 22.8662 15.5663 23.3122 15.9103 23.5555C16.6327 24.0691 18.3871 24.9476 18.676 24.9476C18.9031 24.9476 19.2402 24.63 19.9557 23.7244C20.6505 22.8392 20.6643 22.8257 21.0221 22.8797C21.3179 22.9203 24.5101 24.3664 24.8404 24.6164C24.9917 24.7246 25.0055 24.7854 24.9986 25.2652C24.9849 25.8801 24.8266 26.5559 24.5858 26.9546C24.2212 27.5696 23.086 28.3264 22.1779 28.5629C21.5931 28.7116 20.3341 28.6981 19.6392 28.5359C18.3114 28.2183 16.3025 27.3601 15.1466 26.6167C13.3648 25.4679 11.7411 23.8934 10.2413 21.8661C8.59013 19.636 8.0535 17.8993 8.46629 16.1693Z" fill="#ECD4C7"/>
<path fill-rule="evenodd" clip-rule="evenodd" d="M6.65225 7.86789C9.23287 5.93751 12.1102 4.87958 15.5533 4.58419C16.1881 4.52923 18.1339 4.62541 18.9895 4.74906C25.9793 5.77264 31.5959 11.234 32.762 18.1449C33.3347 21.5454 32.8724 24.8909 31.3889 28.0029C30.416 30.0638 28.6979 32.2346 26.9177 33.6704C25.0892 35.1336 22.8053 36.2602 20.5214 36.8304C16.8988 37.7304 12.8623 37.3319 9.52957 35.745L8.68087 35.3397L4.35454 36.4732C1.97402 37.0983 0.014408 37.593 0.000607866 37.5792C-0.0200923 37.5655 0.490511 35.6557 1.13222 33.3406L2.29142 29.1227L1.95332 28.4975C1.09772 26.8694 0.504311 24.9802 0.228309 22.9537C0.0972085 21.9919 0.111009 19.67 0.25591 18.6945C0.718213 15.6787 1.92572 12.9034 3.78873 10.6226C4.45804 9.80514 5.83805 8.47242 6.65225 7.86789ZM26.1518 11.3714C24.0128 9.24869 21.3908 7.93659 18.4789 7.53815C16.3744 7.24962 14.5183 7.40075 12.5242 8.01902C7.81146 9.48226 4.20964 13.4461 3.23673 18.248C2.54673 21.6691 3.15393 25.0558 5.01694 28.0922L5.36884 28.6624L4.69954 31.108C4.32694 32.4544 4.04404 33.5673 4.05784 33.5811C4.07164 33.5948 5.21704 33.3132 6.60395 32.9559L9.11557 32.2964L9.72968 32.6468C11.1718 33.478 12.7243 34.0276 14.4838 34.3367C15.4291 34.4947 17.6578 34.4947 18.6238 34.3367C21.9842 33.7597 24.8546 32.1384 26.9936 29.5829C28.4081 27.8998 29.4293 25.7909 29.8709 23.6544C30.7955 19.1548 29.4293 14.6414 26.1518 11.3714Z" fill="#ECD4C7"/>
</g>
<defs>
<filter id="filter0_d_932_59" x="26" y="-8" width="128" height="62" filterUnits="userSpaceOnUse" color-interpolation-filters="sRGB">
<feFlood flood-opacity="0" result="BackgroundImageFix"/>
<feColorMatrix in="SourceAlpha" type="matrix" values="0 0 0 0 0 0 0 0 0 0 0 0 0 0 0 0 0 0 127 0" result="hardAlpha"/>
<feOffset dy="2"/>
<feGaussianBlur stdDeviation="5"/>
<feComposite in2="hardAlpha" operator="out"/>
<feColorMatrix type="matrix" values="0 0 0 0 0.341176 0 0 0 0 0.443137 0 0 0 0 0.992157 0 0 0 0.25 0"/>
<feBlend mode="normal" in2="BackgroundImageFix" result="effect1_dropShadow_932_59"/>
<feBlend mode="normal" in="SourceGraphic" in2="effect1_dropShadow_932_59" result="shape"/>
</filter>
<clipPath id="clip0_932_59">
<rect width="144" height="42" fill="white"/>
</clipPath>
</defs>
</svg>
