<svg width="35" height="35" viewBox="0 0 35 35" fill="none" xmlns="http://www.w3.org/2000/svg">
<path d="M20.196 17.5L14.2169 23.4792L15.5556 24.8665L22.922 17.5L15.5556 10.1335L14.2169 11.5208L20.196 17.5ZM17.5065 35C15.0866 35 12.8114 34.5408 10.681 33.6224C8.55066 32.704 6.69753 31.4576 5.12162 29.8831C3.54574 28.3087 2.29817 26.4573 1.3789 24.329C0.459634 22.2006 0 19.9264 0 17.5065C0 15.0866 0.459197 12.8114 1.37759 10.681C2.29602 8.55066 3.54244 6.69753 5.11685 5.12162C6.69127 3.54574 8.54266 2.29817 10.671 1.3789C12.7994 0.459636 15.0736 0 17.4935 0C19.9134 0 22.1886 0.459196 24.319 1.37759C26.4493 2.29602 28.3025 3.54244 29.8784 5.11685C31.4543 6.69127 32.7018 8.54266 33.6211 10.671C34.5404 12.7994 35 15.0736 35 17.4935C35 19.9134 34.5408 22.1886 33.6224 24.319C32.704 26.4493 31.4576 28.3025 29.8831 29.8784C28.3087 31.4543 26.4573 32.7018 24.329 33.6211C22.2006 34.5404 19.9264 35 17.5065 35ZM17.5 33.0556C21.8426 33.0556 25.5208 31.5486 28.5347 28.5347C31.5486 25.5208 33.0556 21.8426 33.0556 17.5C33.0556 13.1574 31.5486 9.47917 28.5347 6.46528C25.5208 3.45139 21.8426 1.94444 17.5 1.94444C13.1574 1.94444 9.47917 3.45139 6.46528 6.46528C3.45139 9.47917 1.94444 13.1574 1.94444 17.5C1.94444 21.8426 3.45139 25.5208 6.46528 28.5347C9.47917 31.5486 13.1574 33.0556 17.5 33.0556Z" fill="#ECD4C7"/>
</svg>
