<svg width="112" height="258" viewBox="0 0 112 258" fill="none" xmlns="http://www.w3.org/2000/svg">
<g filter="url(#filter0_bd_913_67)">
<path d="M39.5893 183.063L-2.12889 207.492C-4.76188 209.034 -4.7685 212.838 -2.14089 214.389L39.5774 239.014C40.8194 239.747 42.3599 239.754 43.6092 239.034L86.3021 214.409C88.976 212.867 88.9693 209.005 86.2901 207.472L43.5971 183.043C42.3539 182.332 40.8253 182.339 39.5893 183.063Z" fill="url(#paint0_linear_913_67)" fill-opacity="0.8" shape-rendering="crispEdges"/>
<path d="M39.5893 183.063L-2.12889 207.492C-4.76188 209.034 -4.7685 212.838 -2.14089 214.389L39.5774 239.014C40.8194 239.747 42.3599 239.754 43.6092 239.034L86.3021 214.409C88.976 212.867 88.9693 209.005 86.2901 207.472L43.5971 183.043C42.3539 182.332 40.8253 182.339 39.5893 183.063Z" stroke="#745545" stroke-width="0.1" shape-rendering="crispEdges"/>
</g>
<g filter="url(#filter1_b_913_67)">
<path d="M39.5893 181.17L-2.12889 205.599C-4.76188 207.141 -4.7685 210.945 -2.14089 212.496L39.5774 237.12C40.8194 237.854 42.3599 237.861 43.6092 237.141L86.3021 212.516C88.976 210.974 88.9693 207.112 86.2901 205.579L43.5971 181.15C42.3539 180.439 40.8253 180.446 39.5893 181.17Z" fill="url(#paint1_linear_913_67)" fill-opacity="0.5"/>
<path d="M39.5893 181.17L-2.12889 205.599C-4.76188 207.141 -4.7685 210.945 -2.14089 212.496L39.5774 237.12C40.8194 237.854 42.3599 237.861 43.6092 237.141L86.3021 212.516C88.976 210.974 88.9693 207.112 86.2901 205.579L43.5971 181.15C42.3539 180.439 40.8253 180.446 39.5893 181.17Z" stroke="#745545" stroke-width="0.1"/>
</g>
<g filter="url(#filter2_bd_913_67)">
<path d="M-53.0282 28.1701L-176.129 100.255C-178.762 101.797 -178.769 105.601 -176.141 107.152L-53.04 179.814C-51.798 180.547 -50.2575 180.554 -49.0082 179.834L76.9687 107.172C79.6426 105.63 79.636 101.768 76.9568 100.235L-49.0203 28.15C-50.2635 27.4386 -51.7921 27.4463 -53.0282 28.1701Z" fill="url(#paint2_linear_913_67)" fill-opacity="0.8" shape-rendering="crispEdges"/>
<path d="M-53.0282 28.1701L-176.129 100.255C-178.762 101.797 -178.769 105.601 -176.141 107.152L-53.04 179.814C-51.798 180.547 -50.2575 180.554 -49.0082 179.834L76.9687 107.172C79.6426 105.63 79.636 101.768 76.9568 100.235L-49.0203 28.15C-50.2635 27.4386 -51.7921 27.4463 -53.0282 28.1701Z" stroke="#745545" stroke-width="0.1" shape-rendering="crispEdges"/>
</g>
<g filter="url(#filter3_b_913_67)">
<path d="M-53.0282 23.1701L-176.129 95.2552C-178.762 96.7971 -178.769 100.601 -176.141 102.152L-53.04 174.814C-51.798 175.547 -50.2575 175.554 -49.0082 174.834L76.9687 102.172C79.6426 100.63 79.636 96.7683 76.9568 95.2352L-49.0203 23.15C-50.2635 22.4386 -51.7922 22.4463 -53.0282 23.1701Z" fill="url(#paint3_linear_913_67)" fill-opacity="0.5"/>
<path d="M-53.0282 23.1701L-176.129 95.2552C-178.762 96.7971 -178.769 100.601 -176.141 102.152L-53.04 174.814C-51.798 175.547 -50.2575 175.554 -49.0082 174.834L76.9687 102.172C79.6426 100.63 79.636 96.7683 76.9568 95.2352L-49.0203 23.15C-50.2635 22.4386 -51.7922 22.4463 -53.0282 23.1701Z" stroke="#745545" stroke-width="0.1"/>
</g>
<g filter="url(#filter4_bd_913_67)">
<path d="M-45.9342 60.3666L-107.401 96.5153C-113.962 100.374 -113.979 109.856 -107.431 113.737L-45.9639 150.175C-42.8508 152.021 -38.9836 152.04 -35.8521 150.226L27.0511 113.788C33.7144 109.929 33.6978 100.302 27.0212 96.465L-35.8823 60.3161C-38.9985 58.5253 -42.8361 58.5446 -45.9342 60.3666Z" fill="url(#paint4_linear_913_67)" fill-opacity="0.5" shape-rendering="crispEdges"/>
<path d="M-45.9342 60.3666L-107.401 96.5153C-113.962 100.374 -113.979 109.856 -107.431 113.737L-45.9639 150.175C-42.8508 152.021 -38.9836 152.04 -35.8521 150.226L27.0511 113.788C33.7144 109.929 33.6978 100.302 27.0212 96.465L-35.8823 60.3161C-38.9985 58.5253 -42.8361 58.5446 -45.9342 60.3666Z" stroke="url(#paint5_linear_913_67)" stroke-width="0.3" shape-rendering="crispEdges"/>
</g>
<g filter="url(#filter5_b_913_67)">
<path d="M-45.9342 56.9471L-107.401 93.0958C-113.962 96.9543 -113.979 106.436 -107.431 110.318L-45.9639 146.756C-42.8508 148.601 -38.9836 148.621 -35.8521 146.807L27.0511 110.369C33.7144 106.509 33.6978 96.8825 27.0212 93.0456L-35.8823 56.8967C-38.9985 55.1059 -42.8361 55.1251 -45.9342 56.9471Z" fill="url(#paint6_linear_913_67)" fill-opacity="0.5"/>
<path d="M-45.9342 56.9471L-107.401 93.0958C-113.962 96.9543 -113.979 106.436 -107.431 110.318L-45.9639 146.756C-42.8508 148.601 -38.9836 148.621 -35.8521 146.807L27.0511 110.369C33.7144 106.509 33.6978 96.8825 27.0212 93.0456L-35.8823 56.8967C-38.9985 55.1059 -42.8361 55.1251 -45.9342 56.9471Z" stroke="url(#paint7_linear_913_67)" stroke-width="0.3"/>
</g>
<defs>
<filter id="filter0_bd_913_67" x="-14.1576" y="176.465" width="112.511" height="77.1538" filterUnits="userSpaceOnUse" color-interpolation-filters="sRGB">
<feFlood flood-opacity="0" result="BackgroundImageFix"/>
<feGaussianBlur in="BackgroundImageFix" stdDeviation="2"/>
<feComposite in2="SourceAlpha" operator="in" result="effect1_backgroundBlur_913_67"/>
<feColorMatrix in="SourceAlpha" type="matrix" values="0 0 0 0 0 0 0 0 0 0 0 0 0 0 0 0 0 0 127 0" result="hardAlpha"/>
<feOffset dy="4"/>
<feGaussianBlur stdDeviation="5"/>
<feComposite in2="hardAlpha" operator="out"/>
<feColorMatrix type="matrix" values="0 0 0 0 0.619608 0 0 0 0 0.478431 0 0 0 0 0.407843 0 0 0 0.5 0"/>
<feBlend mode="normal" in2="effect1_backgroundBlur_913_67" result="effect2_dropShadow_913_67"/>
<feBlend mode="normal" in="SourceGraphic" in2="effect2_dropShadow_913_67" result="shape"/>
</filter>
<filter id="filter1_b_913_67" x="-9.15762" y="175.572" width="102.511" height="67.1538" filterUnits="userSpaceOnUse" color-interpolation-filters="sRGB">
<feFlood flood-opacity="0" result="BackgroundImageFix"/>
<feGaussianBlur in="BackgroundImageFix" stdDeviation="2.5"/>
<feComposite in2="SourceAlpha" operator="in" result="effect1_backgroundBlur_913_67"/>
<feBlend mode="normal" in="SourceGraphic" in2="effect1_backgroundBlur_913_67" result="shape"/>
</filter>
<filter id="filter2_bd_913_67" x="-188.158" y="21.5718" width="277.178" height="172.847" filterUnits="userSpaceOnUse" color-interpolation-filters="sRGB">
<feFlood flood-opacity="0" result="BackgroundImageFix"/>
<feGaussianBlur in="BackgroundImageFix" stdDeviation="2"/>
<feComposite in2="SourceAlpha" operator="in" result="effect1_backgroundBlur_913_67"/>
<feColorMatrix in="SourceAlpha" type="matrix" values="0 0 0 0 0 0 0 0 0 0 0 0 0 0 0 0 0 0 127 0" result="hardAlpha"/>
<feOffset dy="4"/>
<feGaussianBlur stdDeviation="5"/>
<feComposite in2="hardAlpha" operator="out"/>
<feColorMatrix type="matrix" values="0 0 0 0 0.619608 0 0 0 0 0.478431 0 0 0 0 0.407843 0 0 0 0.5 0"/>
<feBlend mode="normal" in2="effect1_backgroundBlur_913_67" result="effect2_dropShadow_913_67"/>
<feBlend mode="normal" in="SourceGraphic" in2="effect2_dropShadow_913_67" result="shape"/>
</filter>
<filter id="filter3_b_913_67" x="-183.158" y="17.5718" width="267.178" height="162.847" filterUnits="userSpaceOnUse" color-interpolation-filters="sRGB">
<feFlood flood-opacity="0" result="BackgroundImageFix"/>
<feGaussianBlur in="BackgroundImageFix" stdDeviation="2.5"/>
<feComposite in2="SourceAlpha" operator="in" result="effect1_backgroundBlur_913_67"/>
<feBlend mode="normal" in="SourceGraphic" in2="effect1_backgroundBlur_913_67" result="shape"/>
</filter>
<filter id="filter4_bd_913_67" x="-122.482" y="52.8364" width="164.67" height="112.887" filterUnits="userSpaceOnUse" color-interpolation-filters="sRGB">
<feFlood flood-opacity="0" result="BackgroundImageFix"/>
<feGaussianBlur in="BackgroundImageFix" stdDeviation="2"/>
<feComposite in2="SourceAlpha" operator="in" result="effect1_backgroundBlur_913_67"/>
<feColorMatrix in="SourceAlpha" type="matrix" values="0 0 0 0 0 0 0 0 0 0 0 0 0 0 0 0 0 0 127 0" result="hardAlpha"/>
<feOffset dy="4"/>
<feGaussianBlur stdDeviation="5"/>
<feComposite in2="hardAlpha" operator="out"/>
<feColorMatrix type="matrix" values="0 0 0 0 0.520833 0 0 0 0 0.520833 0 0 0 0 0.520833 0 0 0 0.25 0"/>
<feBlend mode="normal" in2="effect1_backgroundBlur_913_67" result="effect2_dropShadow_913_67"/>
<feBlend mode="normal" in="SourceGraphic" in2="effect2_dropShadow_913_67" result="shape"/>
</filter>
<filter id="filter5_b_913_67" x="-117.482" y="50.417" width="154.67" height="102.887" filterUnits="userSpaceOnUse" color-interpolation-filters="sRGB">
<feFlood flood-opacity="0" result="BackgroundImageFix"/>
<feGaussianBlur in="BackgroundImageFix" stdDeviation="2.5"/>
<feComposite in2="SourceAlpha" operator="in" result="effect1_backgroundBlur_913_67"/>
<feBlend mode="normal" in="SourceGraphic" in2="effect1_backgroundBlur_913_67" result="shape"/>
</filter>
<linearGradient id="paint0_linear_913_67" x1="42.1667" y1="181.893" x2="42.1667" y2="240.2" gradientUnits="userSpaceOnUse">
<stop stop-color="#643B27"/>
<stop offset="1" stop-color="#C1A090"/>
</linearGradient>
<linearGradient id="paint1_linear_913_67" x1="42.1667" y1="180" x2="42.1667" y2="238.307" gradientUnits="userSpaceOnUse">
<stop stop-color="#ECECEC" stop-opacity="0.5"/>
<stop offset="1" stop-color="white" stop-opacity="0.5"/>
</linearGradient>
<linearGradient id="paint2_linear_913_67" x1="-49.5" y1="27" x2="-49.5" y2="181" gradientUnits="userSpaceOnUse">
<stop stop-color="#643B27"/>
<stop offset="1" stop-color="#C1A090"/>
</linearGradient>
<linearGradient id="paint3_linear_913_67" x1="-49.5" y1="22" x2="-49.5" y2="176" gradientUnits="userSpaceOnUse">
<stop stop-color="#DEB689" stop-opacity="0.5"/>
<stop offset="1" stop-color="white" stop-opacity="0.5"/>
</linearGradient>
<linearGradient id="paint4_linear_913_67" x1="-39.9758" y1="57.4194" x2="-39.9758" y2="153.164" gradientUnits="userSpaceOnUse">
<stop stop-color="#D9D9D9"/>
<stop offset="1" stop-color="#F5F5F5"/>
</linearGradient>
<linearGradient id="paint5_linear_913_67" x1="-39.9758" y1="57.4194" x2="-39.9758" y2="153.164" gradientUnits="userSpaceOnUse">
<stop stop-color="white" stop-opacity="0.435"/>
<stop offset="0.52" stop-color="white"/>
<stop offset="1" stop-color="white" stop-opacity="0"/>
</linearGradient>
<linearGradient id="paint6_linear_913_67" x1="-39.9758" y1="54" x2="-39.9758" y2="149.744" gradientUnits="userSpaceOnUse">
<stop stop-color="#ECECEC" stop-opacity="0.5"/>
<stop offset="1" stop-color="white" stop-opacity="0.5"/>
</linearGradient>
<linearGradient id="paint7_linear_913_67" x1="-39.9758" y1="54" x2="-39.9758" y2="149.744" gradientUnits="userSpaceOnUse">
<stop stop-color="white" stop-opacity="0.435"/>
<stop offset="0.52" stop-color="white"/>
<stop offset="1" stop-color="white" stop-opacity="0"/>
</linearGradient>
</defs>
</svg>
