<svg width="177" height="190" viewBox="0 0 177 190" fill="none" xmlns="http://www.w3.org/2000/svg">
<g filter="url(#filter0_bd_911_64)">
<path d="M135.972 7.17006L12.8711 79.2552C10.2381 80.7971 10.2315 84.6007 12.8591 86.1516L135.96 158.814C137.202 159.547 138.742 159.554 139.992 158.834L265.969 86.172C268.643 84.6297 268.636 80.7683 265.957 79.2352L139.98 7.14999C138.737 6.43863 137.208 6.44628 135.972 7.17006Z" fill="url(#paint0_linear_911_64)" fill-opacity="0.5" shape-rendering="crispEdges"/>
<path d="M135.972 7.17006L12.8711 79.2552C10.2381 80.7971 10.2315 84.6007 12.8591 86.1516L135.96 158.814C137.202 159.547 138.742 159.554 139.992 158.834L265.969 86.172C268.643 84.6297 268.636 80.7683 265.957 79.2352L139.98 7.14999C138.737 6.43863 137.208 6.44628 135.972 7.17006Z" stroke="#745545" stroke-width="0.1" shape-rendering="crispEdges"/>
</g>
<g filter="url(#filter1_b_911_64)">
<path d="M135.972 2.17006L12.8711 74.2552C10.2381 75.7971 10.2315 79.6007 12.8591 81.1516L135.96 153.814C137.202 154.547 138.742 154.554 139.992 153.834L265.969 81.172C268.643 79.6297 268.636 75.7683 265.957 74.2352L139.98 2.14999C138.737 1.43863 137.208 1.44628 135.972 2.17006Z" fill="url(#paint1_linear_911_64)" fill-opacity="0.5"/>
<path d="M135.972 2.17006L12.8711 74.2552C10.2381 75.7971 10.2315 79.6007 12.8591 81.1516L135.96 153.814C137.202 154.547 138.742 154.554 139.992 153.834L265.969 81.172C268.643 79.6297 268.636 75.7683 265.957 74.2352L139.98 2.14999C138.737 1.43863 137.208 1.44628 135.972 2.17006Z" stroke="white" stroke-width="0.1"/>
</g>
<g filter="url(#filter2_bd_911_64)">
<path d="M204.974 24.6946L89.7422 92.1717C84.4762 95.2554 84.463 102.863 89.7182 105.965L204.95 173.982C207.434 175.448 210.515 175.463 213.014 174.022L330.937 106.005C336.285 102.921 336.272 95.1979 330.914 92.1318L212.989 24.6545C210.503 23.2317 207.446 23.2471 204.974 24.6946Z" fill="url(#paint2_linear_911_64)" fill-opacity="0.5" shape-rendering="crispEdges"/>
<path d="M204.974 24.6946L89.7422 92.1717C84.4762 95.2554 84.463 102.863 89.7182 105.965L204.95 173.982C207.434 175.448 210.515 175.463 213.014 174.022L330.937 106.005C336.285 102.921 336.272 95.1979 330.914 92.1318L212.989 24.6545C210.503 23.2317 207.446 23.2471 204.974 24.6946Z" stroke="url(#paint3_linear_911_64)" stroke-width="0.3" shape-rendering="crispEdges"/>
</g>
<g filter="url(#filter3_b_911_64)">
<path d="M204.974 19.6946L89.7422 87.1717C84.4762 90.2554 84.463 97.8626 89.7182 100.965L204.95 168.982C207.434 170.448 210.515 170.463 213.014 169.022L330.937 101.005C336.285 97.9207 336.272 90.1979 330.914 87.1318L212.989 19.6545C210.503 18.2317 207.446 18.2471 204.974 19.6946Z" fill="url(#paint4_linear_911_64)" fill-opacity="0.5"/>
<path d="M204.974 19.6946L89.7422 87.1717C84.4762 90.2554 84.463 97.8626 89.7182 100.965L204.95 168.982C207.434 170.448 210.515 170.463 213.014 169.022L330.937 101.005C336.285 97.9207 336.272 90.1979 330.914 87.1318L212.989 19.6545C210.503 18.2317 207.446 18.2471 204.974 19.6946Z" stroke="url(#paint5_linear_911_64)" stroke-width="0.3"/>
</g>
<g filter="url(#filter4_bd_911_64)">
<path d="M242.783 30.5858L141.763 89.6574C136.491 92.74 136.478 100.354 141.739 103.455L242.759 163C245.241 164.463 248.318 164.478 250.815 163.04L354.195 103.496C359.548 100.412 359.535 92.6826 354.171 89.6175L250.79 30.5458C248.306 29.1263 245.253 29.1416 242.783 30.5858Z" fill="url(#paint6_linear_911_64)" fill-opacity="0.5" shape-rendering="crispEdges"/>
<path d="M242.783 30.5858L141.763 89.6574C136.491 92.74 136.478 100.354 141.739 103.455L242.759 163C245.241 164.463 248.318 164.478 250.815 163.04L354.195 103.496C359.548 100.412 359.535 92.6826 354.171 89.6175L250.79 30.5458C248.306 29.1263 245.253 29.1416 242.783 30.5858Z" stroke="url(#paint7_linear_911_64)" stroke-width="0.3" shape-rendering="crispEdges"/>
</g>
<g filter="url(#filter5_b_911_64)">
<path d="M242.783 25.6888L141.763 84.7605C136.491 87.8431 136.478 95.4574 141.739 98.5583L242.759 158.103C245.241 159.566 248.318 159.581 250.815 158.143L354.195 98.5989C359.548 95.5155 359.535 87.7856 354.171 84.7206L250.79 25.6488C248.306 24.2293 245.253 24.2446 242.783 25.6888Z" fill="url(#paint8_linear_911_64)" fill-opacity="0.5"/>
<path d="M242.783 25.6888L141.763 84.7605C136.491 87.8431 136.478 95.4574 141.739 98.5583L242.759 158.103C245.241 159.566 248.318 159.581 250.815 158.143L354.195 98.5989C359.548 95.5155 359.535 87.7856 354.171 84.7206L250.79 25.6488C248.306 24.2293 245.253 24.2446 242.783 25.6888Z" stroke="url(#paint9_linear_911_64)" stroke-width="0.3"/>
</g>
<g filter="url(#filter6_bd_911_64)">
<path d="M236.066 45.3666L174.599 81.5153C168.038 85.3737 168.021 94.8559 174.569 98.7372L236.036 135.175C239.149 137.021 243.016 137.04 246.148 135.226L309.051 98.7884C315.714 94.9285 315.698 85.3019 309.021 81.465L246.118 45.3161C243.001 43.5253 239.164 43.5446 236.066 45.3666Z" fill="url(#paint10_linear_911_64)" fill-opacity="0.5" shape-rendering="crispEdges"/>
<path d="M236.066 45.3666L174.599 81.5153C168.038 85.3737 168.021 94.8559 174.569 98.7372L236.036 135.175C239.149 137.021 243.016 137.04 246.148 135.226L309.051 98.7884C315.714 94.9285 315.698 85.3019 309.021 81.465L246.118 45.3161C243.001 43.5253 239.164 43.5446 236.066 45.3666Z" stroke="url(#paint11_linear_911_64)" stroke-width="0.3" shape-rendering="crispEdges"/>
</g>
<g filter="url(#filter7_b_911_64)">
<path d="M236.066 41.9471L174.599 78.0958C168.038 81.9543 168.021 91.4365 174.569 95.3178L236.036 131.756C239.149 133.601 243.016 133.621 246.148 131.807L309.051 95.3689C315.714 91.5091 315.698 81.8825 309.021 78.0456L246.118 41.8967C243.001 40.1059 239.164 40.1251 236.066 41.9471Z" fill="url(#paint12_linear_911_64)" fill-opacity="0.5"/>
<path d="M236.066 41.9471L174.599 78.0958C168.038 81.9543 168.021 91.4365 174.569 95.3178L236.036 131.756C239.149 133.601 243.016 133.621 246.148 131.807L309.051 95.3689C315.714 91.5091 315.698 81.8825 309.021 78.0456L246.118 41.8967C243.001 40.1059 239.164 40.1251 236.066 41.9471Z" stroke="url(#paint13_linear_911_64)" stroke-width="0.3"/>
</g>
<defs>
<filter id="filter0_bd_911_64" x="0.842407" y="0.571777" width="277.178" height="172.847" filterUnits="userSpaceOnUse" color-interpolation-filters="sRGB">
<feFlood flood-opacity="0" result="BackgroundImageFix"/>
<feGaussianBlur in="BackgroundImageFix" stdDeviation="2"/>
<feComposite in2="SourceAlpha" operator="in" result="effect1_backgroundBlur_911_64"/>
<feColorMatrix in="SourceAlpha" type="matrix" values="0 0 0 0 0 0 0 0 0 0 0 0 0 0 0 0 0 0 127 0" result="hardAlpha"/>
<feOffset dy="4"/>
<feGaussianBlur stdDeviation="5"/>
<feComposite in2="hardAlpha" operator="out"/>
<feColorMatrix type="matrix" values="0 0 0 0 0.619608 0 0 0 0 0.478431 0 0 0 0 0.407843 0 0 0 0.5 0"/>
<feBlend mode="normal" in2="effect1_backgroundBlur_911_64" result="effect2_dropShadow_911_64"/>
<feBlend mode="normal" in="SourceGraphic" in2="effect2_dropShadow_911_64" result="shape"/>
</filter>
<filter id="filter1_b_911_64" x="5.84241" y="-3.42822" width="267.178" height="162.847" filterUnits="userSpaceOnUse" color-interpolation-filters="sRGB">
<feFlood flood-opacity="0" result="BackgroundImageFix"/>
<feGaussianBlur in="BackgroundImageFix" stdDeviation="2.5"/>
<feComposite in2="SourceAlpha" operator="in" result="effect1_backgroundBlur_911_64"/>
<feBlend mode="normal" in="SourceGraphic" in2="effect1_backgroundBlur_911_64" result="shape"/>
</filter>
<filter id="filter2_bd_911_64" x="75.6348" y="17.4482" width="269.456" height="171.794" filterUnits="userSpaceOnUse" color-interpolation-filters="sRGB">
<feFlood flood-opacity="0" result="BackgroundImageFix"/>
<feGaussianBlur in="BackgroundImageFix" stdDeviation="2"/>
<feComposite in2="SourceAlpha" operator="in" result="effect1_backgroundBlur_911_64"/>
<feColorMatrix in="SourceAlpha" type="matrix" values="0 0 0 0 0 0 0 0 0 0 0 0 0 0 0 0 0 0 127 0" result="hardAlpha"/>
<feOffset dy="4"/>
<feGaussianBlur stdDeviation="5"/>
<feComposite in2="hardAlpha" operator="out"/>
<feColorMatrix type="matrix" values="0 0 0 0 0.520833 0 0 0 0 0.520833 0 0 0 0 0.520833 0 0 0 0.25 0"/>
<feBlend mode="normal" in2="effect1_backgroundBlur_911_64" result="effect2_dropShadow_911_64"/>
<feBlend mode="normal" in="SourceGraphic" in2="effect2_dropShadow_911_64" result="shape"/>
</filter>
<filter id="filter3_b_911_64" x="80.6348" y="13.4482" width="259.456" height="161.794" filterUnits="userSpaceOnUse" color-interpolation-filters="sRGB">
<feFlood flood-opacity="0" result="BackgroundImageFix"/>
<feGaussianBlur in="BackgroundImageFix" stdDeviation="2.5"/>
<feComposite in2="SourceAlpha" operator="in" result="effect1_backgroundBlur_911_64"/>
<feBlend mode="normal" in="SourceGraphic" in2="effect1_backgroundBlur_911_64" result="shape"/>
</filter>
<filter id="filter4_bd_911_64" x="127.651" y="23.3418" width="240.701" height="154.916" filterUnits="userSpaceOnUse" color-interpolation-filters="sRGB">
<feFlood flood-opacity="0" result="BackgroundImageFix"/>
<feGaussianBlur in="BackgroundImageFix" stdDeviation="2"/>
<feComposite in2="SourceAlpha" operator="in" result="effect1_backgroundBlur_911_64"/>
<feColorMatrix in="SourceAlpha" type="matrix" values="0 0 0 0 0 0 0 0 0 0 0 0 0 0 0 0 0 0 127 0" result="hardAlpha"/>
<feOffset dy="4"/>
<feGaussianBlur stdDeviation="5"/>
<feComposite in2="hardAlpha" operator="out"/>
<feColorMatrix type="matrix" values="0 0 0 0 0.520833 0 0 0 0 0.520833 0 0 0 0 0.520833 0 0 0 0.25 0"/>
<feBlend mode="normal" in2="effect1_backgroundBlur_911_64" result="effect2_dropShadow_911_64"/>
<feBlend mode="normal" in="SourceGraphic" in2="effect2_dropShadow_911_64" result="shape"/>
</filter>
<filter id="filter5_b_911_64" x="132.651" y="19.4448" width="230.701" height="144.916" filterUnits="userSpaceOnUse" color-interpolation-filters="sRGB">
<feFlood flood-opacity="0" result="BackgroundImageFix"/>
<feGaussianBlur in="BackgroundImageFix" stdDeviation="2.5"/>
<feComposite in2="SourceAlpha" operator="in" result="effect1_backgroundBlur_911_64"/>
<feBlend mode="normal" in="SourceGraphic" in2="effect1_backgroundBlur_911_64" result="shape"/>
</filter>
<filter id="filter6_bd_911_64" x="159.518" y="37.8364" width="164.67" height="112.887" filterUnits="userSpaceOnUse" color-interpolation-filters="sRGB">
<feFlood flood-opacity="0" result="BackgroundImageFix"/>
<feGaussianBlur in="BackgroundImageFix" stdDeviation="2"/>
<feComposite in2="SourceAlpha" operator="in" result="effect1_backgroundBlur_911_64"/>
<feColorMatrix in="SourceAlpha" type="matrix" values="0 0 0 0 0 0 0 0 0 0 0 0 0 0 0 0 0 0 127 0" result="hardAlpha"/>
<feOffset dy="4"/>
<feGaussianBlur stdDeviation="5"/>
<feComposite in2="hardAlpha" operator="out"/>
<feColorMatrix type="matrix" values="0 0 0 0 0.520833 0 0 0 0 0.520833 0 0 0 0 0.520833 0 0 0 0.25 0"/>
<feBlend mode="normal" in2="effect1_backgroundBlur_911_64" result="effect2_dropShadow_911_64"/>
<feBlend mode="normal" in="SourceGraphic" in2="effect2_dropShadow_911_64" result="shape"/>
</filter>
<filter id="filter7_b_911_64" x="164.518" y="35.417" width="154.67" height="102.887" filterUnits="userSpaceOnUse" color-interpolation-filters="sRGB">
<feFlood flood-opacity="0" result="BackgroundImageFix"/>
<feGaussianBlur in="BackgroundImageFix" stdDeviation="2.5"/>
<feComposite in2="SourceAlpha" operator="in" result="effect1_backgroundBlur_911_64"/>
<feBlend mode="normal" in="SourceGraphic" in2="effect1_backgroundBlur_911_64" result="shape"/>
</filter>
<linearGradient id="paint0_linear_911_64" x1="139.5" y1="6" x2="139.5" y2="160" gradientUnits="userSpaceOnUse">
<stop stop-color="#643B27"/>
<stop offset="1" stop-color="#C1A090"/>
</linearGradient>
<linearGradient id="paint1_linear_911_64" x1="17.5" y1="89.5" x2="135" y2="50.5" gradientUnits="userSpaceOnUse">
<stop stop-color="#DEB689" stop-opacity="0.5"/>
<stop offset="1" stop-color="white" stop-opacity="0.5"/>
</linearGradient>
<linearGradient id="paint2_linear_911_64" x1="210.5" y1="22.3545" x2="210.5" y2="176.354" gradientUnits="userSpaceOnUse">
<stop stop-color="#D9D9D9"/>
<stop offset="1" stop-color="#F5F5F5"/>
</linearGradient>
<linearGradient id="paint3_linear_911_64" x1="210.5" y1="22.3545" x2="210.5" y2="176.354" gradientUnits="userSpaceOnUse">
<stop stop-color="white" stop-opacity="0.435"/>
<stop offset="0.52" stop-color="white"/>
<stop offset="1" stop-color="white" stop-opacity="0"/>
</linearGradient>
<linearGradient id="paint4_linear_911_64" x1="210.5" y1="17.3545" x2="210.5" y2="171.354" gradientUnits="userSpaceOnUse">
<stop stop-color="#ECECEC" stop-opacity="0.5"/>
<stop offset="1" stop-color="white" stop-opacity="0.5"/>
</linearGradient>
<linearGradient id="paint5_linear_911_64" x1="210.5" y1="17.3545" x2="210.5" y2="171.354" gradientUnits="userSpaceOnUse">
<stop stop-color="white" stop-opacity="0.435"/>
<stop offset="0.52" stop-color="white"/>
<stop offset="1" stop-color="white" stop-opacity="0"/>
</linearGradient>
<linearGradient id="paint6_linear_911_64" x1="248.139" y1="28.2515" x2="248.139" y2="165.367" gradientUnits="userSpaceOnUse">
<stop stop-color="#D9D9D9"/>
<stop offset="1" stop-color="#F5F5F5"/>
</linearGradient>
<linearGradient id="paint7_linear_911_64" x1="248.139" y1="28.2515" x2="248.139" y2="165.367" gradientUnits="userSpaceOnUse">
<stop stop-color="white" stop-opacity="0.435"/>
<stop offset="0.52" stop-color="white"/>
<stop offset="1" stop-color="white" stop-opacity="0"/>
</linearGradient>
<linearGradient id="paint8_linear_911_64" x1="248.139" y1="23.3545" x2="248.139" y2="160.47" gradientUnits="userSpaceOnUse">
<stop stop-color="#ECECEC" stop-opacity="0.5"/>
<stop offset="1" stop-color="white" stop-opacity="0.5"/>
</linearGradient>
<linearGradient id="paint9_linear_911_64" x1="248.139" y1="23.3545" x2="248.139" y2="160.47" gradientUnits="userSpaceOnUse">
<stop stop-color="white" stop-opacity="0.435"/>
<stop offset="0.52" stop-color="white"/>
<stop offset="1" stop-color="white" stop-opacity="0"/>
</linearGradient>
<linearGradient id="paint10_linear_911_64" x1="242.024" y1="42.4194" x2="242.024" y2="138.164" gradientUnits="userSpaceOnUse">
<stop stop-color="#D9D9D9"/>
<stop offset="1" stop-color="#F5F5F5"/>
</linearGradient>
<linearGradient id="paint11_linear_911_64" x1="242.024" y1="42.4194" x2="242.024" y2="138.164" gradientUnits="userSpaceOnUse">
<stop stop-color="white" stop-opacity="0.435"/>
<stop offset="0.52" stop-color="white"/>
<stop offset="1" stop-color="white" stop-opacity="0"/>
</linearGradient>
<linearGradient id="paint12_linear_911_64" x1="242.024" y1="39" x2="242.024" y2="134.744" gradientUnits="userSpaceOnUse">
<stop stop-color="#ECECEC" stop-opacity="0.5"/>
<stop offset="1" stop-color="white" stop-opacity="0.5"/>
</linearGradient>
<linearGradient id="paint13_linear_911_64" x1="242.024" y1="39" x2="242.024" y2="134.744" gradientUnits="userSpaceOnUse">
<stop stop-color="white" stop-opacity="0.435"/>
<stop offset="0.52" stop-color="white"/>
<stop offset="1" stop-color="white" stop-opacity="0"/>
</linearGradient>
</defs>
</svg>
