<svg width="501" height="407" viewBox="0 0 501 407" fill="none" xmlns="http://www.w3.org/2000/svg">
<g filter="url(#filter0_bd_911_63)">
<path d="M254.332 101.174L33.8569 230.528C31.2278 232.07 31.2212 235.869 33.8449 237.421L254.32 367.81C255.563 368.545 257.107 368.553 258.357 367.83L483.983 237.441C486.653 235.898 486.647 232.042 483.971 230.508L258.345 101.154C257.101 100.44 255.569 100.448 254.332 101.174Z" fill="url(#paint0_linear_911_63)" fill-opacity="0.5" shape-rendering="crispEdges"/>
<path d="M254.332 101.174L33.8569 230.528C31.2278 232.07 31.2212 235.869 33.8449 237.421L254.32 367.81C255.563 368.545 257.107 368.553 258.357 367.83L483.983 237.441C486.653 235.898 486.647 232.042 483.971 230.508L258.345 101.154C257.101 100.44 255.569 100.448 254.332 101.174Z" stroke="#ECD4C7" stroke-width="0.1" shape-rendering="crispEdges"/>
</g>
<g filter="url(#filter1_b_911_63)">
<path d="M254.337 93.1664L33.8844 222.027C31.2478 223.568 31.2412 227.376 33.8724 228.926L254.325 358.817C255.566 359.548 257.104 359.556 258.352 358.838L483.955 228.946C486.633 227.405 486.626 223.539 483.943 222.007L258.34 93.1464C257.098 92.4371 255.572 92.4447 254.337 93.1664Z" fill="url(#paint1_linear_911_63)" fill-opacity="0.5"/>
<path d="M254.337 93.1664L33.8844 222.027C31.2478 223.568 31.2412 227.376 33.8724 228.926L254.325 358.817C255.566 359.548 257.104 359.556 258.352 358.838L483.955 228.946C486.633 227.405 486.626 223.539 483.943 222.007L258.34 93.1464C257.098 92.4371 255.572 92.4447 254.337 93.1664Z" stroke="#ECD4C7" stroke-width="0.1"/>
</g>
<g filter="url(#filter2_bd_911_63)">
<path d="M319.32 86.3632L106.659 211.596C101.416 214.684 101.403 222.263 106.635 225.369L319.296 351.604C321.788 353.083 324.886 353.099 327.393 351.645L545.022 225.41C550.347 222.321 550.334 214.626 544.998 211.556L327.369 86.3228C324.874 84.887 321.8 84.9025 319.32 86.3632Z" fill="url(#paint2_linear_911_63)" fill-opacity="0.5" shape-rendering="crispEdges"/>
<path d="M319.32 86.3632L106.659 211.596C101.416 214.684 101.403 222.263 106.635 225.369L319.296 351.604C321.788 353.083 324.886 353.099 327.393 351.645L545.022 225.41C550.347 222.321 550.334 214.626 544.998 211.556L327.369 86.3228C324.874 84.887 321.8 84.9025 319.32 86.3632Z" stroke="url(#paint3_linear_911_63)" stroke-width="0.3" shape-rendering="crispEdges"/>
</g>
<g filter="url(#filter3_b_911_63)">
<path d="M319.32 77.3632L106.659 202.596C101.416 205.684 101.403 213.263 106.635 216.369L319.296 342.604C321.788 344.083 324.886 344.099 327.393 342.645L545.022 216.41C550.347 213.321 550.334 205.626 544.998 202.556L327.369 77.3228C324.874 75.887 321.8 75.9025 319.32 77.3632Z" fill="url(#paint4_linear_911_63)" fill-opacity="0.5"/>
<path d="M319.32 77.3632L106.659 202.596C101.416 205.684 101.403 213.263 106.635 216.369L319.296 342.604C321.788 344.083 324.886 344.099 327.393 342.645L545.022 216.41C550.347 213.321 550.334 205.626 544.998 202.556L327.369 77.3228C324.874 75.887 321.8 75.9025 319.32 77.3632Z" stroke="url(#paint5_linear_911_63)" stroke-width="0.3"/>
</g>
<g filter="url(#filter4_bd_911_63)">
<path d="M317.842 65.9994L129.591 176.08C124.319 179.162 124.306 186.777 129.567 189.878L317.819 300.839C320.301 302.302 323.377 302.317 325.874 300.879L518.524 189.918C523.877 186.835 523.864 179.105 518.5 176.04L325.85 65.9593C323.365 64.5398 320.312 64.5551 317.842 65.9994Z" fill="url(#paint6_linear_911_63)" fill-opacity="0.5" shape-rendering="crispEdges"/>
<path d="M317.842 65.9994L129.591 176.08C124.319 179.162 124.306 186.777 129.567 189.878L317.819 300.839C320.301 302.302 323.377 302.317 325.874 300.879L518.524 189.918C523.877 186.835 523.864 179.105 518.5 176.04L325.85 65.9593C323.365 64.5398 320.312 64.5551 317.842 65.9994Z" stroke="url(#paint7_linear_911_63)" stroke-width="0.3" shape-rendering="crispEdges"/>
</g>
<g filter="url(#filter5_b_911_63)">
<path d="M317.842 57.4442L129.591 167.525C124.319 170.607 124.306 178.222 129.567 181.322L317.819 292.284C320.301 293.747 323.377 293.762 325.874 292.324L518.524 181.363C523.877 178.28 523.864 170.55 518.5 167.485L325.85 57.4042C323.365 55.9847 320.312 55.9999 317.842 57.4442Z" fill="url(#paint8_linear_911_63)" fill-opacity="0.5"/>
<path d="M317.842 57.4442L129.591 167.525C124.319 170.607 124.306 178.222 129.567 181.322L317.819 292.284C320.301 293.747 323.377 293.762 325.874 292.324L518.524 181.363C523.877 178.28 523.864 170.55 518.5 167.485L325.85 57.4042C323.365 55.9847 320.312 55.9999 317.842 57.4442Z" stroke="url(#paint9_linear_911_63)" stroke-width="0.3"/>
</g>
<g filter="url(#filter6_bd_911_63)">
<path d="M318.621 46.9213L196.589 118.688C190.028 122.547 190.012 132.029 196.559 135.91L318.592 208.251C321.705 210.097 325.572 210.116 328.703 208.302L453.587 135.961C460.25 132.101 460.233 122.475 453.557 118.638L328.673 46.8708C325.557 45.08 321.719 45.0993 318.621 46.9213Z" fill="url(#paint10_linear_911_63)" fill-opacity="0.5" shape-rendering="crispEdges"/>
<path d="M318.621 46.9213L196.589 118.688C190.028 122.547 190.012 132.029 196.559 135.91L318.592 208.251C321.705 210.097 325.572 210.116 328.703 208.302L453.587 135.961C460.25 132.101 460.233 122.475 453.557 118.638L328.673 46.8708C325.557 45.08 321.719 45.0993 318.621 46.9213Z" stroke="url(#paint11_linear_911_63)" stroke-width="0.3" shape-rendering="crispEdges"/>
</g>
<g filter="url(#filter7_b_911_63)">
<path d="M318.621 40.9471L196.589 112.714C190.028 116.573 190.012 126.055 196.559 129.936L318.592 202.277C321.705 204.123 325.572 204.142 328.703 202.328L453.587 129.987C460.25 126.127 460.233 116.501 453.557 112.664L328.673 40.8967C325.557 39.1059 321.719 39.1251 318.621 40.9471Z" fill="url(#paint12_linear_911_63)" fill-opacity="0.5"/>
<path d="M318.621 40.9471L196.589 112.714C190.028 116.573 190.012 126.055 196.559 129.936L318.592 202.277C321.705 204.123 325.572 204.142 328.703 202.328L453.587 129.987C460.25 126.127 460.233 116.501 453.557 112.664L328.673 40.8967C325.557 39.1059 321.719 39.1251 318.621 40.9471Z" stroke="url(#paint13_linear_911_63)" stroke-width="0.3"/>
</g>
<defs>
<filter id="filter0_bd_911_63" x="21.8311" y="94.5742" width="474.201" height="287.842" filterUnits="userSpaceOnUse" color-interpolation-filters="sRGB">
<feFlood flood-opacity="0" result="BackgroundImageFix"/>
<feGaussianBlur in="BackgroundImageFix" stdDeviation="2"/>
<feComposite in2="SourceAlpha" operator="in" result="effect1_backgroundBlur_911_63"/>
<feColorMatrix in="SourceAlpha" type="matrix" values="0 0 0 0 0 0 0 0 0 0 0 0 0 0 0 0 0 0 127 0" result="hardAlpha"/>
<feOffset dy="4"/>
<feGaussianBlur stdDeviation="5"/>
<feComposite in2="hardAlpha" operator="out"/>
<feColorMatrix type="matrix" values="0 0 0 0 0.619608 0 0 0 0 0.478431 0 0 0 0 0.407843 0 0 0 0.5 0"/>
<feBlend mode="normal" in2="effect1_backgroundBlur_911_63" result="effect2_dropShadow_911_63"/>
<feBlend mode="normal" in="SourceGraphic" in2="effect2_dropShadow_911_63" result="shape"/>
</filter>
<filter id="filter1_b_911_63" x="26.853" y="87.5698" width="464.156" height="276.851" filterUnits="userSpaceOnUse" color-interpolation-filters="sRGB">
<feFlood flood-opacity="0" result="BackgroundImageFix"/>
<feGaussianBlur in="BackgroundImageFix" stdDeviation="2.5"/>
<feComposite in2="SourceAlpha" operator="in" result="effect1_backgroundBlur_911_63"/>
<feBlend mode="normal" in="SourceGraphic" in2="effect1_backgroundBlur_911_63" result="shape"/>
</filter>
<filter id="filter2_bd_911_63" x="92.5689" y="79.1069" width="466.589" height="287.768" filterUnits="userSpaceOnUse" color-interpolation-filters="sRGB">
<feFlood flood-opacity="0" result="BackgroundImageFix"/>
<feGaussianBlur in="BackgroundImageFix" stdDeviation="2"/>
<feComposite in2="SourceAlpha" operator="in" result="effect1_backgroundBlur_911_63"/>
<feColorMatrix in="SourceAlpha" type="matrix" values="0 0 0 0 0 0 0 0 0 0 0 0 0 0 0 0 0 0 127 0" result="hardAlpha"/>
<feOffset dy="4"/>
<feGaussianBlur stdDeviation="5"/>
<feComposite in2="hardAlpha" operator="out"/>
<feColorMatrix type="matrix" values="0 0 0 0 0.520833 0 0 0 0 0.520833 0 0 0 0 0.520833 0 0 0 0.25 0"/>
<feBlend mode="normal" in2="effect1_backgroundBlur_911_63" result="effect2_dropShadow_911_63"/>
<feBlend mode="normal" in="SourceGraphic" in2="effect2_dropShadow_911_63" result="shape"/>
</filter>
<filter id="filter3_b_911_63" x="97.5689" y="71.1069" width="456.589" height="277.768" filterUnits="userSpaceOnUse" color-interpolation-filters="sRGB">
<feFlood flood-opacity="0" result="BackgroundImageFix"/>
<feGaussianBlur in="BackgroundImageFix" stdDeviation="2.5"/>
<feComposite in2="SourceAlpha" operator="in" result="effect1_backgroundBlur_911_63"/>
<feBlend mode="normal" in="SourceGraphic" in2="effect1_backgroundBlur_911_63" result="shape"/>
</filter>
<filter id="filter4_bd_911_63" x="115.479" y="58.7554" width="417.202" height="257.342" filterUnits="userSpaceOnUse" color-interpolation-filters="sRGB">
<feFlood flood-opacity="0" result="BackgroundImageFix"/>
<feGaussianBlur in="BackgroundImageFix" stdDeviation="2"/>
<feComposite in2="SourceAlpha" operator="in" result="effect1_backgroundBlur_911_63"/>
<feColorMatrix in="SourceAlpha" type="matrix" values="0 0 0 0 0 0 0 0 0 0 0 0 0 0 0 0 0 0 127 0" result="hardAlpha"/>
<feOffset dy="4"/>
<feGaussianBlur stdDeviation="5"/>
<feComposite in2="hardAlpha" operator="out"/>
<feColorMatrix type="matrix" values="0 0 0 0 0.520833 0 0 0 0 0.520833 0 0 0 0 0.520833 0 0 0 0.25 0"/>
<feBlend mode="normal" in2="effect1_backgroundBlur_911_63" result="effect2_dropShadow_911_63"/>
<feBlend mode="normal" in="SourceGraphic" in2="effect2_dropShadow_911_63" result="shape"/>
</filter>
<filter id="filter5_b_911_63" x="120.479" y="51.2002" width="407.202" height="247.342" filterUnits="userSpaceOnUse" color-interpolation-filters="sRGB">
<feFlood flood-opacity="0" result="BackgroundImageFix"/>
<feGaussianBlur in="BackgroundImageFix" stdDeviation="2.5"/>
<feComposite in2="SourceAlpha" operator="in" result="effect1_backgroundBlur_911_63"/>
<feBlend mode="normal" in="SourceGraphic" in2="effect1_backgroundBlur_911_63" result="shape"/>
</filter>
<filter id="filter6_bd_911_63" x="181.509" y="39.3911" width="287.216" height="184.408" filterUnits="userSpaceOnUse" color-interpolation-filters="sRGB">
<feFlood flood-opacity="0" result="BackgroundImageFix"/>
<feGaussianBlur in="BackgroundImageFix" stdDeviation="2"/>
<feComposite in2="SourceAlpha" operator="in" result="effect1_backgroundBlur_911_63"/>
<feColorMatrix in="SourceAlpha" type="matrix" values="0 0 0 0 0 0 0 0 0 0 0 0 0 0 0 0 0 0 127 0" result="hardAlpha"/>
<feOffset dy="4"/>
<feGaussianBlur stdDeviation="5"/>
<feComposite in2="hardAlpha" operator="out"/>
<feColorMatrix type="matrix" values="0 0 0 0 0.520833 0 0 0 0 0.520833 0 0 0 0 0.520833 0 0 0 0.25 0"/>
<feBlend mode="normal" in2="effect1_backgroundBlur_911_63" result="effect2_dropShadow_911_63"/>
<feBlend mode="normal" in="SourceGraphic" in2="effect2_dropShadow_911_63" result="shape"/>
</filter>
<filter id="filter7_b_911_63" x="186.509" y="34.417" width="277.216" height="174.408" filterUnits="userSpaceOnUse" color-interpolation-filters="sRGB">
<feFlood flood-opacity="0" result="BackgroundImageFix"/>
<feGaussianBlur in="BackgroundImageFix" stdDeviation="2.5"/>
<feComposite in2="SourceAlpha" operator="in" result="effect1_backgroundBlur_911_63"/>
<feBlend mode="normal" in="SourceGraphic" in2="effect1_backgroundBlur_911_63" result="shape"/>
</filter>
<linearGradient id="paint0_linear_911_63" x1="259" y1="100" x2="259" y2="369" gradientUnits="userSpaceOnUse">
<stop stop-color="#643B27"/>
<stop offset="1" stop-color="#9E7A68"/>
</linearGradient>
<linearGradient id="paint1_linear_911_63" x1="259" y1="92" x2="259" y2="360" gradientUnits="userSpaceOnUse">
<stop stop-color="#DEB689" stop-opacity="0.5"/>
<stop offset="1" stop-color="white" stop-opacity="0.5"/>
</linearGradient>
<linearGradient id="paint2_linear_911_63" x1="326" y1="84" x2="326" y2="354" gradientUnits="userSpaceOnUse">
<stop stop-color="#ECD4C7"/>
<stop offset="1" stop-color="#F5F5F5"/>
</linearGradient>
<linearGradient id="paint3_linear_911_63" x1="326" y1="84" x2="326" y2="354" gradientUnits="userSpaceOnUse">
<stop stop-color="white" stop-opacity="0.435"/>
<stop offset="0.52" stop-color="white"/>
<stop offset="1" stop-color="white" stop-opacity="0"/>
</linearGradient>
<linearGradient id="paint4_linear_911_63" x1="326" y1="75" x2="326" y2="345" gradientUnits="userSpaceOnUse">
<stop stop-color="#ECECEC" stop-opacity="0.5"/>
<stop offset="1" stop-color="white" stop-opacity="0.5"/>
</linearGradient>
<linearGradient id="paint5_linear_911_63" x1="326" y1="75" x2="326" y2="345" gradientUnits="userSpaceOnUse">
<stop stop-color="white" stop-opacity="0.435"/>
<stop offset="0.52" stop-color="white"/>
<stop offset="1" stop-color="white" stop-opacity="0"/>
</linearGradient>
<linearGradient id="paint6_linear_911_63" x1="324.218" y1="63.665" x2="324.218" y2="303.206" gradientUnits="userSpaceOnUse">
<stop stop-color="#ECD4C7"/>
<stop offset="1" stop-color="#F5F5F5"/>
</linearGradient>
<linearGradient id="paint7_linear_911_63" x1="324.218" y1="63.665" x2="324.218" y2="303.206" gradientUnits="userSpaceOnUse">
<stop stop-color="white" stop-opacity="0.435"/>
<stop offset="0.52" stop-color="white"/>
<stop offset="1" stop-color="white" stop-opacity="0"/>
</linearGradient>
<linearGradient id="paint8_linear_911_63" x1="324.218" y1="55.1099" x2="324.218" y2="294.651" gradientUnits="userSpaceOnUse">
<stop stop-color="#ECECEC" stop-opacity="0.5"/>
<stop offset="1" stop-color="white" stop-opacity="0.5"/>
</linearGradient>
<linearGradient id="paint9_linear_911_63" x1="324.218" y1="55.1099" x2="324.218" y2="294.651" gradientUnits="userSpaceOnUse">
<stop stop-color="white" stop-opacity="0.435"/>
<stop offset="0.52" stop-color="white"/>
<stop offset="1" stop-color="white" stop-opacity="0"/>
</linearGradient>
<linearGradient id="paint10_linear_911_63" x1="325.287" y1="43.9741" x2="325.287" y2="211.24" gradientUnits="userSpaceOnUse">
<stop stop-color="#ECD4C7"/>
<stop offset="1" stop-color="#F5F5F5"/>
</linearGradient>
<linearGradient id="paint11_linear_911_63" x1="325.287" y1="43.9741" x2="325.287" y2="211.24" gradientUnits="userSpaceOnUse">
<stop stop-color="white" stop-opacity="0.435"/>
<stop offset="0.52" stop-color="white"/>
<stop offset="1" stop-color="white" stop-opacity="0"/>
</linearGradient>
<linearGradient id="paint12_linear_911_63" x1="325.287" y1="38" x2="325.287" y2="205.266" gradientUnits="userSpaceOnUse">
<stop stop-color="#ECECEC" stop-opacity="0.5"/>
<stop offset="1" stop-color="white" stop-opacity="0.5"/>
</linearGradient>
<linearGradient id="paint13_linear_911_63" x1="325.287" y1="38" x2="325.287" y2="205.266" gradientUnits="userSpaceOnUse">
<stop stop-color="white" stop-opacity="0.435"/>
<stop offset="0.52" stop-color="white"/>
<stop offset="1" stop-color="white" stop-opacity="0"/>
</linearGradient>
</defs>
</svg>
