<svg width="567" height="402" viewBox="0 0 567 402" fill="none" xmlns="http://www.w3.org/2000/svg">
<path opacity="0.35" d="M365 0.637231C293.8 -6.16277 245.333 43.1372 230 68.6372C210.167 100.804 182.4 189.737 230 288.137C289.5 411.137 386 378.637 425.5 370.137C465 361.637 589 304.637 563.5 182.637C538 60.6372 454 9.13723 365 0.637231Z" fill="#1C2E41"/>
<path d="M213.619 68.6364C114.019 55.4364 54.1189 108.47 36.6189 136.636C-70.3811 295.137 79.6189 408.636 198.119 401.136C316.619 393.636 408.119 328.636 408.119 251.136C408.119 173.636 338.119 85.1364 213.619 68.6364Z" fill="black"/>
</svg>
