<svg width="1440" height="612" viewBox="0 0 1440 612" fill="none" xmlns="http://www.w3.org/2000/svg">
<mask id="mask0_918_53" style="mask-type:alpha" maskUnits="userSpaceOnUse" x="0" y="0" width="1440" height="612">
<path d="M0 81.8662C74.589 101.002 297.69 136.876 593.382 127.292C951.149 115.696 1149.81 72.296 1268.17 46.4378C1272.09 45.5814 1275.92 44.7443 1279.67 43.9282C1373.17 23.5615 1425.52 6.15661 1440 0V612C1364.73 584.674 1326.7 573.436 1234.22 546.112C1230.25 544.938 1226.18 543.735 1222 542.5C1107.29 508.595 913.615 460.48 544 448.5C262.232 439.367 134.725 483.507 17.3447 524.142C11.5442 526.15 5.76844 528.15 0 530.134V81.8662Z" fill="#011AA1"/>
</mask>
<g mask="url(#mask0_918_53)">
<g filter="url(#filter0_f_918_53)">
<path d="M858 391C792.5 646.5 613.456 765 334 765C54.5439 765 -172 538.456 -172 259C-172 -20.4561 54.5439 -247 334 -247C613.456 -247 923.5 135.5 858 391Z" fill="#745545" fill-opacity="0.5"/>
</g>
<g filter="url(#filter1_f_918_53)">
<path d="M1612 259C1612 538.456 1385.46 765 1106 765C826.544 765 566 477.5 590.5 208.5C615 -60.5 826.544 -247 1106 -247C1385.46 -247 1612 -20.4561 1612 259Z" fill="#465667" fill-opacity="0.25"/>
</g>
</g>
<defs>
<filter id="filter0_f_918_53" x="-177" y="-252" width="1048.86" height="1022" filterUnits="userSpaceOnUse" color-interpolation-filters="sRGB">
<feFlood flood-opacity="0" result="BackgroundImageFix"/>
<feBlend mode="normal" in="SourceGraphic" in2="BackgroundImageFix" result="shape"/>
<feGaussianBlur stdDeviation="2.5" result="effect1_foregroundBlur_918_53"/>
</filter>
<filter id="filter1_f_918_53" x="583.899" y="-252" width="1033.1" height="1022" filterUnits="userSpaceOnUse" color-interpolation-filters="sRGB">
<feFlood flood-opacity="0" result="BackgroundImageFix"/>
<feBlend mode="normal" in="SourceGraphic" in2="BackgroundImageFix" result="shape"/>
<feGaussianBlur stdDeviation="2.5" result="effect1_foregroundBlur_918_53"/>
</filter>
</defs>
</svg>
