<svg width="399" height="70" viewBox="0 0 399 70" fill="none" xmlns="http://www.w3.org/2000/svg">
<mask id="path-1-outside-1_919_58" maskUnits="userSpaceOnUse" x="16" y="10" width="368" height="50" fill="black">
<rect fill="white" x="16" y="10" width="368" height="50"/>
<path d="M16.5597 58V11.4545H46.3778V18.5227H24.9915V31.1591H44.3324V38.2273H24.9915V58H16.5597ZM54.0597 58V11.4545H71.5142C75.09 11.4545 78.09 12.0758 80.5142 13.3182C82.9536 14.5606 84.7945 16.303 86.0369 18.5455C87.2945 20.7727 87.9233 23.3712 87.9233 26.3409C87.9233 29.3258 87.2869 31.9167 86.0142 34.1136C84.7566 36.2955 82.9006 37.9848 80.446 39.1818C77.9915 40.3636 74.9763 40.9545 71.4006 40.9545H58.9688V33.9545H70.2642C72.3551 33.9545 74.0672 33.6667 75.4006 33.0909C76.7339 32.5 77.7188 31.6439 78.3551 30.5227C79.0066 29.3864 79.3324 27.9924 79.3324 26.3409C79.3324 24.6894 79.0066 23.2803 78.3551 22.1136C77.7036 20.9318 76.7112 20.0379 75.3778 19.4318C74.0445 18.8106 72.3248 18.5 70.2188 18.5H62.4915V58H54.0597ZM78.1051 36.9091L89.6278 58H80.2188L68.9006 36.9091H78.1051ZM95.6847 58V11.4545H125.957V18.5227H104.116V31.1591H124.389V38.2273H104.116V50.9318H126.139V58H95.6847ZM134.56 58V11.4545H164.832V18.5227H142.991V31.1591H163.264V38.2273H142.991V50.9318H165.014V58H134.56ZM173.435 58V11.4545H181.866V50.9318H202.366V58H173.435ZM217.412 58H208.412L224.798 11.4545H235.207L251.616 58H242.616L230.185 21H229.821L217.412 58ZM217.707 39.75H242.253V46.5227H217.707V39.75ZM295.997 11.4545V58H288.497L266.565 26.2955H266.179V58H257.747V11.4545H265.293L287.202 43.1818H287.611V11.4545H295.997ZM345.026 27.1591H336.526C336.283 25.7652 335.836 24.5303 335.185 23.4545C334.533 22.3636 333.723 21.4394 332.753 20.6818C331.783 19.9242 330.677 19.3561 329.435 18.9773C328.207 18.5833 326.882 18.3864 325.457 18.3864C322.927 18.3864 320.685 19.0227 318.73 20.2955C316.776 21.553 315.245 23.4015 314.139 25.8409C313.033 28.2652 312.48 31.2273 312.48 34.7273C312.48 38.2879 313.033 41.2879 314.139 43.7273C315.26 46.1515 316.791 47.9848 318.73 49.2273C320.685 50.4545 322.92 51.0682 325.435 51.0682C326.829 51.0682 328.132 50.8864 329.344 50.5227C330.571 50.1439 331.67 49.5909 332.639 48.8636C333.624 48.1364 334.45 47.2424 335.116 46.1818C335.798 45.1212 336.268 43.9091 336.526 42.5455L345.026 42.5909C344.707 44.803 344.018 46.8788 342.957 48.8182C341.912 50.7576 340.541 52.4697 338.844 53.9545C337.147 55.4242 335.162 56.5758 332.889 57.4091C330.616 58.2273 328.094 58.6364 325.321 58.6364C321.23 58.6364 317.579 57.6894 314.366 55.7955C311.154 53.9015 308.624 51.1667 306.776 47.5909C304.927 44.0152 304.003 39.7273 304.003 34.7273C304.003 29.7121 304.935 25.4242 306.798 21.8636C308.662 18.2879 311.2 15.553 314.412 13.6591C317.624 11.7651 321.26 10.8182 325.321 10.8182C327.912 10.8182 330.321 11.1818 332.548 11.9091C334.776 12.6364 336.76 13.7045 338.503 15.1136C340.245 16.5076 341.677 18.2197 342.798 20.25C343.935 22.2652 344.677 24.5682 345.026 27.1591ZM352.747 58V11.4545H383.02V18.5227H361.179V31.1591H381.452V38.2273H361.179V50.9318H383.202V58H352.747Z"/>
</mask>
<path d="M16.5597 58H16.0597V58.5H16.5597V58ZM16.5597 11.4545V10.9545H16.0597V11.4545H16.5597ZM46.3778 11.4545H46.8778V10.9545H46.3778V11.4545ZM46.3778 18.5227V19.0227H46.8778V18.5227H46.3778ZM24.9915 18.5227V18.0227H24.4915V18.5227H24.9915ZM24.9915 31.1591H24.4915V31.6591H24.9915V31.1591ZM44.3324 31.1591H44.8324V30.6591H44.3324V31.1591ZM44.3324 38.2273V38.7273H44.8324V38.2273H44.3324ZM24.9915 38.2273V37.7273H24.4915V38.2273H24.9915ZM24.9915 58V58.5H25.4915V58H24.9915ZM17.0597 58V11.4545H16.0597V58H17.0597ZM16.5597 11.9545H46.3778V10.9545H16.5597V11.9545ZM45.8778 11.4545V18.5227H46.8778V11.4545H45.8778ZM46.3778 18.0227H24.9915V19.0227H46.3778V18.0227ZM24.4915 18.5227V31.1591H25.4915V18.5227H24.4915ZM24.9915 31.6591H44.3324V30.6591H24.9915V31.6591ZM43.8324 31.1591V38.2273H44.8324V31.1591H43.8324ZM44.3324 37.7273H24.9915V38.7273H44.3324V37.7273ZM24.4915 38.2273V58H25.4915V38.2273H24.4915ZM24.9915 57.5H16.5597V58.5H24.9915V57.5ZM54.0597 58H53.5597V58.5H54.0597V58ZM54.0597 11.4545V10.9545H53.5597V11.4545H54.0597ZM80.5142 13.3182L80.2862 13.7631L80.2873 13.7637L80.5142 13.3182ZM86.0369 18.5455L85.5996 18.7878L85.6015 18.7913L86.0369 18.5455ZM86.0142 34.1136L85.5816 33.863L85.581 33.8639L86.0142 34.1136ZM80.446 39.1818L80.6629 39.6323L80.6652 39.6312L80.446 39.1818ZM58.9688 40.9545H58.4688V41.4545H58.9688V40.9545ZM58.9688 33.9545V33.4545H58.4688V33.9545H58.9688ZM75.4006 33.0909L75.5988 33.55L75.6032 33.548L75.4006 33.0909ZM78.3551 30.5227L77.9213 30.274L77.9203 30.2759L78.3551 30.5227ZM78.3551 22.1136L77.9172 22.355L77.9186 22.3574L78.3551 22.1136ZM75.3778 19.4318L75.1667 19.8851L75.1709 19.887L75.3778 19.4318ZM62.4915 18.5V18H61.9915V18.5H62.4915ZM62.4915 58V58.5H62.9915V58H62.4915ZM78.1051 36.9091L78.5439 36.6694L78.4017 36.4091H78.1051V36.9091ZM89.6278 58V58.5H90.4708L90.0666 57.7603L89.6278 58ZM80.2188 58L79.7782 58.2364L79.9196 58.5H80.2188V58ZM68.9006 36.9091V36.4091H68.0648L68.46 37.1455L68.9006 36.9091ZM54.5597 58V11.4545H53.5597V58H54.5597ZM54.0597 11.9545H71.5142V10.9545H54.0597V11.9545ZM71.5142 11.9545C75.0345 11.9545 77.951 12.5664 80.2862 13.7631L80.7422 12.8732C78.2289 11.5851 75.1454 10.9545 71.5142 10.9545V11.9545ZM80.2873 13.7637C82.6442 14.9641 84.4088 16.6386 85.5996 18.7878L86.4743 18.3031C85.1802 15.9675 83.263 14.1571 80.7411 12.8726L80.2873 13.7637ZM85.6015 18.7913C86.8104 20.9322 87.4233 23.4434 87.4233 26.3409H88.4233C88.4233 23.2991 87.7786 20.6132 86.4723 18.2996L85.6015 18.7913ZM87.4233 26.3409C87.4233 29.2533 86.803 31.7546 85.5816 33.863L86.4469 34.3643C87.7709 32.0787 88.4233 29.3982 88.4233 26.3409H87.4233ZM85.581 33.8639C84.3775 35.952 82.5997 37.5753 80.2269 38.7324L80.6652 39.6312C83.2015 38.3944 85.1358 36.6389 86.4474 34.3633L85.581 33.8639ZM80.2291 38.7313C77.8599 39.872 74.9237 40.4545 71.4006 40.4545V41.4545C75.0289 41.4545 78.123 40.8552 80.6629 39.6323L80.2291 38.7313ZM71.4006 40.4545H58.9688V41.4545H71.4006V40.4545ZM59.4688 40.9545V33.9545H58.4688V40.9545H59.4688ZM58.9688 34.4545H70.2642V33.4545H58.9688V34.4545ZM70.2642 34.4545C72.3957 34.4545 74.1817 34.1619 75.5988 33.5499L75.2023 32.6319C73.9528 33.1715 72.3146 33.4545 70.2642 33.4545V34.4545ZM75.6032 33.548C77.021 32.9197 78.0939 31.9959 78.79 30.7695L77.9203 30.2759C77.3436 31.2919 76.4468 32.0803 75.198 32.6338L75.6032 33.548ZM78.7889 30.7714C79.4937 29.542 79.8324 28.0573 79.8324 26.3409H78.8324C78.8324 27.9276 78.5195 29.2307 77.9213 30.274L78.7889 30.7714ZM79.8324 26.3409C79.8324 24.624 79.4935 23.1267 78.7917 21.8699L77.9186 22.3574C78.5197 23.4339 78.8324 24.7548 78.8324 26.3409H79.8324ZM78.793 21.8722C78.085 20.588 77.0072 19.6232 75.5847 18.9766L75.1709 19.887C76.4151 20.4525 77.3222 21.2756 77.9172 22.355L78.793 21.8722ZM75.589 18.9786C74.1674 18.3162 72.3686 18 70.2188 18V19C72.2811 19 73.9216 19.305 75.1667 19.885L75.589 18.9786ZM70.2188 18H62.4915V19H70.2188V18ZM61.9915 18.5V58H62.9915V18.5H61.9915ZM62.4915 57.5H54.0597V58.5H62.4915V57.5ZM77.6663 37.1488L89.1891 58.2397L90.0666 57.7603L78.5439 36.6694L77.6663 37.1488ZM89.6278 57.5H80.2188V58.5H89.6278V57.5ZM80.6593 57.7636L69.3411 36.6727L68.46 37.1455L79.7782 58.2364L80.6593 57.7636ZM68.9006 37.4091H78.1051V36.4091H68.9006V37.4091ZM95.6847 58H95.1847V58.5H95.6847V58ZM95.6847 11.4545V10.9545H95.1847V11.4545H95.6847ZM125.957 11.4545H126.457V10.9545H125.957V11.4545ZM125.957 18.5227V19.0227H126.457V18.5227H125.957ZM104.116 18.5227V18.0227H103.616V18.5227H104.116ZM104.116 31.1591H103.616V31.6591H104.116V31.1591ZM124.389 31.1591H124.889V30.6591H124.389V31.1591ZM124.389 38.2273V38.7273H124.889V38.2273H124.389ZM104.116 38.2273V37.7273H103.616V38.2273H104.116ZM104.116 50.9318H103.616V51.4318H104.116V50.9318ZM126.139 50.9318H126.639V50.4318H126.139V50.9318ZM126.139 58V58.5H126.639V58H126.139ZM96.1847 58V11.4545H95.1847V58H96.1847ZM95.6847 11.9545H125.957V10.9545H95.6847V11.9545ZM125.457 11.4545V18.5227H126.457V11.4545H125.457ZM125.957 18.0227H104.116V19.0227H125.957V18.0227ZM103.616 18.5227V31.1591H104.616V18.5227H103.616ZM104.116 31.6591H124.389V30.6591H104.116V31.6591ZM123.889 31.1591V38.2273H124.889V31.1591H123.889ZM124.389 37.7273H104.116V38.7273H124.389V37.7273ZM103.616 38.2273V50.9318H104.616V38.2273H103.616ZM104.116 51.4318H126.139V50.4318H104.116V51.4318ZM125.639 50.9318V58H126.639V50.9318H125.639ZM126.139 57.5H95.6847V58.5H126.139V57.5ZM134.56 58H134.06V58.5H134.56V58ZM134.56 11.4545V10.9545H134.06V11.4545H134.56ZM164.832 11.4545H165.332V10.9545H164.832V11.4545ZM164.832 18.5227V19.0227H165.332V18.5227H164.832ZM142.991 18.5227V18.0227H142.491V18.5227H142.991ZM142.991 31.1591H142.491V31.6591H142.991V31.1591ZM163.264 31.1591H163.764V30.6591H163.264V31.1591ZM163.264 38.2273V38.7273H163.764V38.2273H163.264ZM142.991 38.2273V37.7273H142.491V38.2273H142.991ZM142.991 50.9318H142.491V51.4318H142.991V50.9318ZM165.014 50.9318H165.514V50.4318H165.014V50.9318ZM165.014 58V58.5H165.514V58H165.014ZM135.06 58V11.4545H134.06V58H135.06ZM134.56 11.9545H164.832V10.9545H134.56V11.9545ZM164.332 11.4545V18.5227H165.332V11.4545H164.332ZM164.832 18.0227H142.991V19.0227H164.832V18.0227ZM142.491 18.5227V31.1591H143.491V18.5227H142.491ZM142.991 31.6591H163.264V30.6591H142.991V31.6591ZM162.764 31.1591V38.2273H163.764V31.1591H162.764ZM163.264 37.7273H142.991V38.7273H163.264V37.7273ZM142.491 38.2273V50.9318H143.491V38.2273H142.491ZM142.991 51.4318H165.014V50.4318H142.991V51.4318ZM164.514 50.9318V58H165.514V50.9318H164.514ZM165.014 57.5H134.56V58.5H165.014V57.5ZM173.435 58H172.935V58.5H173.435V58ZM173.435 11.4545V10.9545H172.935V11.4545H173.435ZM181.866 11.4545H182.366V10.9545H181.866V11.4545ZM181.866 50.9318H181.366V51.4318H181.866V50.9318ZM202.366 50.9318H202.866V50.4318H202.366V50.9318ZM202.366 58V58.5H202.866V58H202.366ZM173.935 58V11.4545H172.935V58H173.935ZM173.435 11.9545H181.866V10.9545H173.435V11.9545ZM181.366 11.4545V50.9318H182.366V11.4545H181.366ZM181.866 51.4318H202.366V50.4318H181.866V51.4318ZM201.866 50.9318V58H202.866V50.9318H201.866ZM202.366 57.5H173.435V58.5H202.366V57.5ZM217.412 58V58.5H217.772L217.886 58.159L217.412 58ZM208.412 58L207.94 57.834L207.706 58.5H208.412V58ZM224.798 11.4545V10.9545H224.444L224.327 11.2885L224.798 11.4545ZM235.207 11.4545L235.679 11.2883L235.561 10.9545H235.207V11.4545ZM251.616 58V58.5H252.323L252.088 57.8338L251.616 58ZM242.616 58L242.143 58.1592L242.257 58.5H242.616V58ZM230.185 21L230.659 20.8408L230.544 20.5H230.185V21ZM229.821 21V20.5H229.461L229.347 20.841L229.821 21ZM217.707 39.75V39.25H217.207V39.75H217.707ZM242.253 39.75H242.753V39.25H242.253V39.75ZM242.253 46.5227V47.0227H242.753V46.5227H242.253ZM217.707 46.5227H217.207V47.0227H217.707V46.5227ZM217.412 57.5H208.412V58.5H217.412V57.5ZM208.884 58.166L225.27 11.6206L224.327 11.2885L207.94 57.834L208.884 58.166ZM224.798 11.9545H235.207V10.9545H224.798V11.9545ZM234.736 11.6208L251.145 58.1662L252.088 57.8338L235.679 11.2883L234.736 11.6208ZM251.616 57.5H242.616V58.5H251.616V57.5ZM243.09 57.8408L230.659 20.8408L229.711 21.1592L242.143 58.1592L243.09 57.8408ZM230.185 20.5H229.821V21.5H230.185V20.5ZM229.347 20.841L216.938 57.841L217.886 58.159L230.295 21.159L229.347 20.841ZM217.707 40.25H242.253V39.25H217.707V40.25ZM241.753 39.75V46.5227H242.753V39.75H241.753ZM242.253 46.0227H217.707V47.0227H242.253V46.0227ZM218.207 46.5227V39.75H217.207V46.5227H218.207ZM295.997 11.4545H296.497V10.9545H295.997V11.4545ZM295.997 58V58.5H296.497V58H295.997ZM288.497 58L288.086 58.2845L288.235 58.5H288.497V58ZM266.565 26.2955L266.977 26.011L266.827 25.7955H266.565V26.2955ZM266.179 26.2955V25.7955H265.679V26.2955H266.179ZM266.179 58V58.5H266.679V58H266.179ZM257.747 58H257.247V58.5H257.747V58ZM257.747 11.4545V10.9545H257.247V11.4545H257.747ZM265.293 11.4545L265.704 11.1704L265.555 10.9545H265.293V11.4545ZM287.202 43.1818L286.79 43.4659L286.939 43.6818H287.202V43.1818ZM287.611 43.1818V43.6818H288.111V43.1818H287.611ZM287.611 11.4545V10.9545H287.111V11.4545H287.611ZM295.497 11.4545V58H296.497V11.4545H295.497ZM295.997 57.5H288.497V58.5H295.997V57.5ZM288.908 57.7155L266.977 26.011L266.154 26.5799L288.086 58.2845L288.908 57.7155ZM266.565 25.7955H266.179V26.7955H266.565V25.7955ZM265.679 26.2955V58H266.679V26.2955H265.679ZM266.179 57.5H257.747V58.5H266.179V57.5ZM258.247 58V11.4545H257.247V58H258.247ZM257.747 11.9545H265.293V10.9545H257.747V11.9545ZM264.881 11.7387L286.79 43.4659L287.613 42.8977L265.704 11.1704L264.881 11.7387ZM287.202 43.6818H287.611V42.6818H287.202V43.6818ZM288.111 43.1818V11.4545H287.111V43.1818H288.111ZM287.611 11.9545H295.997V10.9545H287.611V11.9545ZM345.026 27.1591V27.6591H345.597L345.521 27.0924L345.026 27.1591ZM336.526 27.1591L336.033 27.2448L336.105 27.6591H336.526V27.1591ZM335.185 23.4545L334.755 23.7109L334.757 23.7136L335.185 23.4545ZM332.753 20.6818L333.061 20.2878L332.753 20.6818ZM329.435 18.9773L329.282 19.4534L329.289 19.4555L329.435 18.9773ZM318.73 20.2955L319.001 20.7159L319.003 20.7145L318.73 20.2955ZM314.139 25.8409L314.594 26.0485L314.595 26.0474L314.139 25.8409ZM314.139 43.7273L313.684 43.9338L313.685 43.9372L314.139 43.7273ZM318.73 49.2273L318.46 49.6483L318.464 49.6507L318.73 49.2273ZM329.344 50.5227L329.487 51.0017L329.491 51.0005L329.344 50.5227ZM332.639 48.8636L332.342 48.4614L332.339 48.4636L332.639 48.8636ZM335.116 46.1818L334.696 45.9114L334.693 45.9157L335.116 46.1818ZM336.526 42.5455L336.528 42.0455L336.112 42.0432L336.034 42.4527L336.526 42.5455ZM345.026 42.5909L345.52 42.6621L345.602 42.094L345.028 42.0909L345.026 42.5909ZM342.957 48.8182L342.519 48.5783L342.517 48.5809L342.957 48.8182ZM338.844 53.9545L339.171 54.3325L339.173 54.3308L338.844 53.9545ZM332.889 57.4091L333.059 57.8795L333.061 57.8785L332.889 57.4091ZM314.366 55.7955L314.62 55.3647L314.366 55.7955ZM306.776 47.5909L306.331 47.8205L306.776 47.5909ZM306.798 21.8636L307.241 22.0955L307.242 22.0947L306.798 21.8636ZM314.412 13.6591L314.158 13.2284L314.412 13.6591ZM332.548 11.9091L332.703 11.4338L332.548 11.9091ZM338.503 15.1136L338.188 15.5024L338.19 15.5041L338.503 15.1136ZM342.798 20.25L342.361 20.4917L342.363 20.4956L342.798 20.25ZM345.026 26.6591H336.526V27.6591H345.026V26.6591ZM337.018 27.0734C336.766 25.6258 336.3 24.3308 335.612 23.1955L334.757 23.7136C335.372 24.7298 335.8 25.9045 336.033 27.2448L337.018 27.0734ZM335.614 23.1982C334.932 22.056 334.081 21.0846 333.061 20.2878L332.445 21.0758C333.365 21.7942 334.134 22.6712 334.755 23.7109L335.614 23.1982ZM333.061 20.2878C332.04 19.4904 330.878 18.8947 329.58 18.499L329.289 19.4555C330.476 19.8174 331.526 20.3581 332.445 21.0758L333.061 20.2878ZM329.587 18.5012C328.306 18.0898 326.928 17.8864 325.457 17.8864V18.8864C326.835 18.8864 328.109 19.0768 329.282 19.4533L329.587 18.5012ZM325.457 17.8864C322.839 17.8864 320.5 18.5464 318.457 19.8765L319.003 20.7145C320.869 19.4991 323.015 18.8864 325.457 18.8864V17.8864ZM318.46 19.875C316.412 21.1922 314.823 23.1211 313.684 25.6344L314.595 26.0474C315.667 23.6819 317.139 21.9139 319.001 20.7159L318.46 19.875ZM313.684 25.6334C312.541 28.1398 311.98 31.1771 311.98 34.7273H312.98C312.98 31.2774 313.526 28.3905 314.594 26.0485L313.684 25.6334ZM311.98 34.7273C311.98 38.3368 312.54 41.4119 313.684 43.9337L314.595 43.5208C313.526 41.1639 312.98 38.239 312.98 34.7273H311.98ZM313.685 43.9372C314.84 46.4338 316.429 48.3467 318.46 49.6483L319 48.8063C317.153 47.623 315.681 45.8692 314.593 43.5174L313.685 43.9372ZM318.464 49.6507C320.506 50.9325 322.834 51.5682 325.435 51.5682V50.5682C323.005 50.5682 320.864 49.9766 318.996 48.8038L318.464 49.6507ZM325.435 51.5682C326.872 51.5682 328.224 51.3806 329.487 51.0016L329.2 50.0438C328.039 50.3921 326.785 50.5682 325.435 50.5682V51.5682ZM329.491 51.0005C330.77 50.6058 331.921 50.0274 332.939 49.2636L332.339 48.4636C331.418 49.1544 330.372 49.6821 329.196 50.045L329.491 51.0005ZM332.936 49.2659C333.972 48.5006 334.841 47.5601 335.54 46.4479L334.693 45.9157C334.059 46.9247 333.276 47.7721 332.342 48.4614L332.936 49.2659ZM335.537 46.4522C336.257 45.3323 336.749 44.0587 337.017 42.6383L336.034 42.4527C335.787 43.7595 335.34 44.9101 334.696 45.9114L335.537 46.4522ZM336.523 43.0454L345.023 43.0909L345.028 42.0909L336.528 42.0455L336.523 43.0454ZM344.531 42.5197C344.221 44.6734 343.55 46.6919 342.519 48.5783L343.396 49.0581C344.486 47.0657 345.194 44.9327 345.52 42.6621L344.531 42.5197ZM342.517 48.5809C341.501 50.4665 340.168 52.1318 338.514 53.5783L339.173 54.3308C340.914 52.8076 342.323 51.0487 343.398 49.0554L342.517 48.5809ZM338.516 53.5766C336.869 55.0036 334.937 56.1255 332.717 56.9397L333.061 57.8785C335.386 57.026 337.425 55.8448 339.171 54.3325L338.516 53.5766ZM332.72 56.9386C330.509 57.7346 328.044 58.1364 325.321 58.1364V59.1364C328.143 59.1364 330.724 58.7199 333.059 57.8795L332.72 56.9386ZM325.321 58.1364C321.311 58.1364 317.748 57.209 314.62 55.3647L314.113 56.2262C317.409 58.1698 321.15 59.1364 325.321 59.1364V58.1364ZM314.62 55.3647C311.496 53.5224 309.029 50.8604 307.22 47.3613L306.331 47.8205C308.22 51.473 310.813 54.2806 314.113 56.2262L314.62 55.3647ZM307.22 47.3613C305.416 43.8717 304.503 39.6664 304.503 34.7273H303.503C303.503 39.7882 304.438 44.1586 306.331 47.8205L307.22 47.3613ZM304.503 34.7273C304.503 29.7732 305.423 25.569 307.241 22.0955L306.355 21.6318C304.446 25.2795 303.503 29.651 303.503 34.7273H304.503ZM307.242 22.0947C309.066 18.5949 311.541 15.9324 314.666 14.0898L314.158 13.2284C310.859 15.1737 308.258 17.9809 306.355 21.6325L307.242 22.0947ZM314.666 14.0898C317.794 12.2452 321.342 11.3182 325.321 11.3182V10.3182C321.179 10.3182 317.454 11.2851 314.158 13.2284L314.666 14.0898ZM325.321 11.3182C327.865 11.3182 330.221 11.6751 332.393 12.3844L332.703 11.4338C330.421 10.6885 327.959 10.3182 325.321 10.3182V11.3182ZM332.393 12.3844C334.565 13.0936 336.496 14.1334 338.188 15.5024L338.817 14.7249C337.025 13.2757 334.986 12.1791 332.703 11.4338L332.393 12.3844ZM338.19 15.5041C339.88 16.8555 341.27 18.5164 342.361 20.4917L343.236 20.0083C342.084 17.923 340.611 16.1596 338.815 14.7232L338.19 15.5041ZM342.363 20.4956C343.464 22.4487 344.189 24.6896 344.53 27.2257L345.521 27.0924C345.165 24.4467 344.405 22.0816 343.234 20.0044L342.363 20.4956ZM352.747 58H352.247V58.5H352.747V58ZM352.747 11.4545V10.9545H352.247V11.4545H352.747ZM383.02 11.4545H383.52V10.9545H383.02V11.4545ZM383.02 18.5227V19.0227H383.52V18.5227H383.02ZM361.179 18.5227V18.0227H360.679V18.5227H361.179ZM361.179 31.1591H360.679V31.6591H361.179V31.1591ZM381.452 31.1591H381.952V30.6591H381.452V31.1591ZM381.452 38.2273V38.7273H381.952V38.2273H381.452ZM361.179 38.2273V37.7273H360.679V38.2273H361.179ZM361.179 50.9318H360.679V51.4318H361.179V50.9318ZM383.202 50.9318H383.702V50.4318H383.202V50.9318ZM383.202 58V58.5H383.702V58H383.202ZM353.247 58V11.4545H352.247V58H353.247ZM352.747 11.9545H383.02V10.9545H352.747V11.9545ZM382.52 11.4545V18.5227H383.52V11.4545H382.52ZM383.02 18.0227H361.179V19.0227H383.02V18.0227ZM360.679 18.5227V31.1591H361.679V18.5227H360.679ZM361.179 31.6591H381.452V30.6591H361.179V31.6591ZM380.952 31.1591V38.2273H381.952V31.1591H380.952ZM381.452 37.7273H361.179V38.7273H381.452V37.7273ZM360.679 38.2273V50.9318H361.679V38.2273H360.679ZM361.179 51.4318H383.202V50.4318H361.179V51.4318ZM382.702 50.9318V58H383.702V50.9318H382.702ZM383.202 57.5H352.747V58.5H383.202V57.5Z" fill="white" fill-opacity="0.75" mask="url(#path-1-outside-1_919_58)"/>
</svg>
