<svg width="339" height="70" viewBox="0 0 339 70" fill="none" xmlns="http://www.w3.org/2000/svg">
<g clip-path="url(#clip0_919_57)">
<mask id="path-1-outside-1_919_57" maskUnits="userSpaceOnUse" x="8" y="10" width="323" height="50" fill="black">
<rect fill="white" x="8" y="10" width="323" height="50"/>
<path d="M9.34091 58V11.4545H39.1591V18.5227H17.7727V31.1591H37.1136V38.2273H17.7727V58H9.34091ZM76.1818 11.4545H84.6136V41.8636C84.6136 45.197 83.8258 48.1288 82.25 50.6591C80.6894 53.1894 78.4924 55.1667 75.6591 56.5909C72.8258 58 69.5152 58.7045 65.7273 58.7045C61.9242 58.7045 58.6061 58 55.7727 56.5909C52.9394 55.1667 50.7424 53.1894 49.1818 50.6591C47.6212 48.1288 46.8409 45.197 46.8409 41.8636V11.4545H55.2727V41.1591C55.2727 43.0985 55.697 44.8258 56.5455 46.3409C57.4091 47.8561 58.6212 49.0455 60.1818 49.9091C61.7424 50.7576 63.5909 51.1818 65.7273 51.1818C67.8636 51.1818 69.7121 50.7576 71.2727 49.9091C72.8485 49.0455 74.0606 47.8561 74.9091 46.3409C75.7576 44.8258 76.1818 43.0985 76.1818 41.1591V11.4545ZM93.7784 58V11.4545H102.21V50.9318H122.71V58H93.7784ZM130.028 58V11.4545H138.46V50.9318H158.96V58H130.028ZM180.108 18.5227V11.4545H217.244V18.5227H202.858V58H194.494V18.5227H180.108ZM232.835 11.4545V58H224.403V11.4545H232.835ZM241.966 11.4545H252.284L266.102 45.1818H266.648L280.466 11.4545H290.784V58H282.693V26.0227H282.261L269.398 57.8636H263.352L250.489 25.9545H250.057V58H241.966V11.4545ZM299.966 58V11.4545H330.239V18.5227H308.398V31.1591H328.67V38.2273H308.398V50.9318H330.42V58H299.966Z"/>
</mask>
<path d="M9.34091 58H8.84091V58.5H9.34091V58ZM9.34091 11.4545V10.9545H8.84091V11.4545H9.34091ZM39.1591 11.4545H39.6591V10.9545H39.1591V11.4545ZM39.1591 18.5227V19.0227H39.6591V18.5227H39.1591ZM17.7727 18.5227V18.0227H17.2727V18.5227H17.7727ZM17.7727 31.1591H17.2727V31.6591H17.7727V31.1591ZM37.1136 31.1591H37.6136V30.6591H37.1136V31.1591ZM37.1136 38.2273V38.7273H37.6136V38.2273H37.1136ZM17.7727 38.2273V37.7273H17.2727V38.2273H17.7727ZM17.7727 58V58.5H18.2727V58H17.7727ZM9.84091 58V11.4545H8.84091V58H9.84091ZM9.34091 11.9545H39.1591V10.9545H9.34091V11.9545ZM38.6591 11.4545V18.5227H39.6591V11.4545H38.6591ZM39.1591 18.0227H17.7727V19.0227H39.1591V18.0227ZM17.2727 18.5227V31.1591H18.2727V18.5227H17.2727ZM17.7727 31.6591H37.1136V30.6591H17.7727V31.6591ZM36.6136 31.1591V38.2273H37.6136V31.1591H36.6136ZM37.1136 37.7273H17.7727V38.7273H37.1136V37.7273ZM17.2727 38.2273V58H18.2727V38.2273H17.2727ZM17.7727 57.5H9.34091V58.5H17.7727V57.5ZM76.1818 11.4545V10.9545H75.6818V11.4545H76.1818ZM84.6136 11.4545H85.1136V10.9545H84.6136V11.4545ZM82.25 50.6591L81.8256 50.3948L81.8244 50.3966L82.25 50.6591ZM75.6591 56.5909L75.8817 57.0386L75.8837 57.0376L75.6591 56.5909ZM55.7727 56.5909L55.5482 57.0376L55.5501 57.0386L55.7727 56.5909ZM49.1818 50.6591L49.6074 50.3966L49.1818 50.6591ZM46.8409 11.4545V10.9545H46.3409V11.4545H46.8409ZM55.2727 11.4545H55.7727V10.9545H55.2727V11.4545ZM56.5455 46.3409L56.1092 46.5852L56.1111 46.5885L56.5455 46.3409ZM60.1818 49.9091L59.9397 50.3466L59.943 50.3484L60.1818 49.9091ZM71.2727 49.9091L71.5116 50.3484L71.513 50.3476L71.2727 49.9091ZM74.9091 46.3409L75.3454 46.5852V46.5852L74.9091 46.3409ZM76.1818 11.9545H84.6136V10.9545H76.1818V11.9545ZM84.1136 11.4545V41.8636H85.1136V11.4545H84.1136ZM84.1136 41.8636C84.1136 45.1149 83.3463 47.9529 81.8256 50.3948L82.6744 50.9234C84.3053 48.3047 85.1136 45.279 85.1136 41.8636H84.1136ZM81.8244 50.3966C80.3157 52.8428 78.1908 54.7587 75.4345 56.1442L75.8837 57.0376C78.794 55.5747 81.063 53.536 82.6756 50.9216L81.8244 50.3966ZM75.4364 56.1432C72.6846 57.5118 69.453 58.2045 65.7273 58.2045V59.2045C69.5773 59.2045 72.9669 58.4882 75.8817 57.0386L75.4364 56.1432ZM65.7273 58.2045C61.9861 58.2045 58.7469 57.5116 55.9954 56.1432L55.5501 57.0386C58.4652 58.4884 61.8624 59.2045 65.7273 59.2045V58.2045ZM55.9973 56.1442C53.241 54.7587 51.1161 52.8428 49.6074 50.3966L48.7562 50.9216C50.3688 53.536 52.6378 55.5747 55.5482 57.0376L55.9973 56.1442ZM49.6074 50.3966C48.1012 47.9545 47.3409 45.1158 47.3409 41.8636H46.3409C46.3409 45.2781 47.1413 48.3031 48.7562 50.9216L49.6074 50.3966ZM47.3409 41.8636V11.4545H46.3409V41.8636H47.3409ZM46.8409 11.9545H55.2727V10.9545H46.8409V11.9545ZM54.7727 11.4545V41.1591H55.7727V11.4545H54.7727ZM54.7727 41.1591C54.7727 43.1738 55.2142 44.987 56.1092 46.5852L56.9817 46.0966C56.1797 44.6645 55.7727 43.0231 55.7727 41.1591H54.7727ZM56.1111 46.5885C57.0212 48.1853 58.3007 49.4396 59.9397 50.3466L60.4239 49.4716C58.9417 48.6514 57.797 47.5268 56.9798 46.0933L56.1111 46.5885ZM59.943 50.3484C61.5904 51.244 63.5243 51.6818 65.7273 51.6818V50.6818C63.6575 50.6818 61.8945 50.2711 60.4206 49.4698L59.943 50.3484ZM65.7273 51.6818C67.9302 51.6818 69.8642 51.244 71.5116 50.3484L71.0339 49.4698C69.5601 50.2711 67.797 50.6818 65.7273 50.6818V51.6818ZM71.513 50.3476C73.168 49.4405 74.4494 48.1851 75.3454 46.5852L74.4728 46.0966C73.6718 47.527 72.5289 48.6504 71.0324 49.4706L71.513 50.3476ZM75.3454 46.5852C76.2403 44.987 76.6818 43.1738 76.6818 41.1591H75.6818C75.6818 43.0231 75.2748 44.6645 74.4728 46.0966L75.3454 46.5852ZM76.6818 41.1591V11.4545H75.6818V41.1591H76.6818ZM93.7784 58H93.2784V58.5H93.7784V58ZM93.7784 11.4545V10.9545H93.2784V11.4545H93.7784ZM102.21 11.4545H102.71V10.9545H102.21V11.4545ZM102.21 50.9318H101.71V51.4318H102.21V50.9318ZM122.71 50.9318H123.21V50.4318H122.71V50.9318ZM122.71 58V58.5H123.21V58H122.71ZM94.2784 58V11.4545H93.2784V58H94.2784ZM93.7784 11.9545H102.21V10.9545H93.7784V11.9545ZM101.71 11.4545V50.9318H102.71V11.4545H101.71ZM102.21 51.4318H122.71V50.4318H102.21V51.4318ZM122.21 50.9318V58H123.21V50.9318H122.21ZM122.71 57.5H93.7784V58.5H122.71V57.5ZM130.028 58H129.528V58.5H130.028V58ZM130.028 11.4545V10.9545H129.528V11.4545H130.028ZM138.46 11.4545H138.96V10.9545H138.46V11.4545ZM138.46 50.9318H137.96V51.4318H138.46V50.9318ZM158.96 50.9318H159.46V50.4318H158.96V50.9318ZM158.96 58V58.5H159.46V58H158.96ZM130.528 58V11.4545H129.528V58H130.528ZM130.028 11.9545H138.46V10.9545H130.028V11.9545ZM137.96 11.4545V50.9318H138.96V11.4545H137.96ZM138.46 51.4318H158.96V50.4318H138.46V51.4318ZM158.46 50.9318V58H159.46V50.9318H158.46ZM158.96 57.5H130.028V58.5H158.96V57.5ZM180.108 18.5227H179.608V19.0227H180.108V18.5227ZM180.108 11.4545V10.9545H179.608V11.4545H180.108ZM217.244 11.4545H217.744V10.9545H217.244V11.4545ZM217.244 18.5227V19.0227H217.744V18.5227H217.244ZM202.858 18.5227V18.0227H202.358V18.5227H202.858ZM202.858 58V58.5H203.358V58H202.858ZM194.494 58H193.994V58.5H194.494V58ZM194.494 18.5227H194.994V18.0227H194.494V18.5227ZM180.608 18.5227V11.4545H179.608V18.5227H180.608ZM180.108 11.9545H217.244V10.9545H180.108V11.9545ZM216.744 11.4545V18.5227H217.744V11.4545H216.744ZM217.244 18.0227H202.858V19.0227H217.244V18.0227ZM202.358 18.5227V58H203.358V18.5227H202.358ZM202.858 57.5H194.494V58.5H202.858V57.5ZM194.994 58V18.5227H193.994V58H194.994ZM194.494 18.0227H180.108V19.0227H194.494V18.0227ZM232.835 11.4545H233.335V10.9545H232.835V11.4545ZM232.835 58V58.5H233.335V58H232.835ZM224.403 58H223.903V58.5H224.403V58ZM224.403 11.4545V10.9545H223.903V11.4545H224.403ZM232.335 11.4545V58H233.335V11.4545H232.335ZM232.835 57.5H224.403V58.5H232.835V57.5ZM224.903 58V11.4545H223.903V58H224.903ZM224.403 11.9545H232.835V10.9545H224.403V11.9545ZM241.966 11.4545V10.9545H241.466V11.4545H241.966ZM252.284 11.4545L252.747 11.265L252.62 10.9545H252.284V11.4545ZM266.102 45.1818L265.64 45.3714L265.767 45.6818H266.102V45.1818ZM266.648 45.1818V45.6818H266.983L267.11 45.3714L266.648 45.1818ZM280.466 11.4545V10.9545H280.13L280.003 11.265L280.466 11.4545ZM290.784 11.4545H291.284V10.9545H290.784V11.4545ZM290.784 58V58.5H291.284V58H290.784ZM282.693 58H282.193V58.5H282.693V58ZM282.693 26.0227H283.193V25.5227H282.693V26.0227ZM282.261 26.0227V25.5227H281.924L281.798 25.8354L282.261 26.0227ZM269.398 57.8636V58.3636H269.735L269.861 58.0509L269.398 57.8636ZM263.352 57.8636L262.889 58.0506L263.015 58.3636H263.352V57.8636ZM250.489 25.9545L250.952 25.7676L250.826 25.4545H250.489V25.9545ZM250.057 25.9545V25.4545H249.557V25.9545H250.057ZM250.057 58V58.5H250.557V58H250.057ZM241.966 58H241.466V58.5H241.966V58ZM241.966 11.9545H252.284V10.9545H241.966V11.9545ZM251.821 11.6441L265.64 45.3714L266.565 44.9923L252.747 11.265L251.821 11.6441ZM266.102 45.6818H266.648V44.6818H266.102V45.6818ZM267.11 45.3714L280.929 11.6441L280.003 11.265L266.185 44.9923L267.11 45.3714ZM280.466 11.9545H290.784V10.9545H280.466V11.9545ZM290.284 11.4545V58H291.284V11.4545H290.284ZM290.784 57.5H282.693V58.5H290.784V57.5ZM283.193 58V26.0227H282.193V58H283.193ZM282.693 25.5227H282.261V26.5227H282.693V25.5227ZM281.798 25.8354L268.934 57.6763L269.861 58.0509L282.725 26.21L281.798 25.8354ZM269.398 57.3636H263.352V58.3636H269.398V57.3636ZM263.816 57.6767L250.952 25.7676L250.025 26.1415L262.889 58.0506L263.816 57.6767ZM250.489 25.4545H250.057V26.4545H250.489V25.4545ZM249.557 25.9545V58H250.557V25.9545H249.557ZM250.057 57.5H241.966V58.5H250.057V57.5ZM242.466 58V11.4545H241.466V58H242.466ZM299.966 58H299.466V58.5H299.966V58ZM299.966 11.4545V10.9545H299.466V11.4545H299.966ZM330.239 11.4545H330.739V10.9545H330.239V11.4545ZM330.239 18.5227V19.0227H330.739V18.5227H330.239ZM308.398 18.5227V18.0227H307.898V18.5227H308.398ZM308.398 31.1591H307.898V31.6591H308.398V31.1591ZM328.67 31.1591H329.17V30.6591H328.67V31.1591ZM328.67 38.2273V38.7273H329.17V38.2273H328.67ZM308.398 38.2273V37.7273H307.898V38.2273H308.398ZM308.398 50.9318H307.898V51.4318H308.398V50.9318ZM330.42 50.9318H330.92V50.4318H330.42V50.9318ZM330.42 58V58.5H330.92V58H330.42ZM300.466 58V11.4545H299.466V58H300.466ZM299.966 11.9545H330.239V10.9545H299.966V11.9545ZM329.739 11.4545V18.5227H330.739V11.4545H329.739ZM330.239 18.0227H308.398V19.0227H330.239V18.0227ZM307.898 18.5227V31.1591H308.898V18.5227H307.898ZM308.398 31.6591H328.67V30.6591H308.398V31.6591ZM328.17 31.1591V38.2273H329.17V31.1591H328.17ZM328.67 37.7273H308.398V38.7273H328.67V37.7273ZM307.898 38.2273V50.9318H308.898V38.2273H307.898ZM308.398 51.4318H330.42V50.4318H308.398V51.4318ZM329.92 50.9318V58H330.92V50.9318H329.92ZM330.42 57.5H299.966V58.5H330.42V57.5Z" fill="white" fill-opacity="0.75" mask="url(#path-1-outside-1_919_57)"/>
</g>
<defs>
<clipPath id="clip0_919_57">
<rect width="339" height="70" fill="white"/>
</clipPath>
</defs>
</svg>
