<svg width="453" height="102" viewBox="0 0 453 102" fill="none" xmlns="http://www.w3.org/2000/svg">
<g clip-path="url(#clip0_908_53)">
<g filter="url(#filter0_i_908_53)">
<path d="M45.3636 4.90909H64.8182V69.8182C64.8182 75.8182 63.4697 81.0303 60.7727 85.4545C58.1061 89.8788 54.3939 93.2879 49.6364 95.6818C44.8788 98.0758 39.3485 99.2727 33.0455 99.2727C27.4394 99.2727 22.3485 98.2879 17.7727 96.3182C13.2273 94.3182 9.62121 91.2879 6.95455 87.2273C4.28788 83.1364 2.9697 78 3 71.8182H22.5909C22.6515 74.2727 23.1515 76.3788 24.0909 78.1364C25.0606 79.8636 26.3788 81.197 28.0455 82.1364C29.7424 83.0455 31.7424 83.5 34.0455 83.5C36.4697 83.5 38.5152 82.9848 40.1818 81.9545C41.8788 80.8939 43.1667 79.3485 44.0455 77.3182C44.9242 75.2879 45.3636 72.7879 45.3636 69.8182V4.90909ZM112.273 99.3636C105.212 99.3636 99.1061 97.8636 93.9545 94.8636C88.8333 91.8333 84.8788 87.6212 82.0909 82.2273C79.303 76.803 77.9091 70.5152 77.9091 63.3636C77.9091 56.1515 79.303 49.8485 82.0909 44.4545C84.8788 39.0303 88.8333 34.8182 93.9545 31.8182C99.1061 28.7879 105.212 27.2727 112.273 27.2727C119.333 27.2727 125.424 28.7879 130.545 31.8182C135.697 34.8182 139.667 39.0303 142.455 44.4545C145.242 49.8485 146.636 56.1515 146.636 63.3636C146.636 70.5152 145.242 76.803 142.455 82.2273C139.667 87.6212 135.697 91.8333 130.545 94.8636C125.424 97.8636 119.333 99.3636 112.273 99.3636ZM112.364 84.3636C115.576 84.3636 118.258 83.4545 120.409 81.6364C122.561 79.7879 124.182 77.2727 125.273 74.0909C126.394 70.9091 126.955 67.2879 126.955 63.2273C126.955 59.1667 126.394 55.5455 125.273 52.3636C124.182 49.1818 122.561 46.6667 120.409 44.8182C118.258 42.9697 115.576 42.0455 112.364 42.0455C109.121 42.0455 106.394 42.9697 104.182 44.8182C102 46.6667 100.348 49.1818 99.2273 52.3636C98.1364 55.5455 97.5909 59.1667 97.5909 63.2273C97.5909 67.2879 98.1364 70.9091 99.2273 74.0909C100.348 77.2727 102 79.7879 104.182 81.6364C106.394 83.4545 109.121 84.3636 112.364 84.3636ZM217.318 48.0909L199.591 49.1818C199.288 47.6667 198.636 46.303 197.636 45.0909C196.636 43.8485 195.318 42.8636 193.682 42.1364C192.076 41.3788 190.152 41 187.909 41C184.909 41 182.379 41.6364 180.318 42.9091C178.258 44.1515 177.227 45.8182 177.227 47.9091C177.227 49.5758 177.894 50.9848 179.227 52.1364C180.561 53.2879 182.848 54.2121 186.091 54.9091L198.727 57.4545C205.515 58.8485 210.576 61.0909 213.909 64.1818C217.242 67.2727 218.909 71.3333 218.909 76.3636C218.909 80.9394 217.561 84.9545 214.864 88.4091C212.197 91.8636 208.53 94.5606 203.864 96.5C199.227 98.4091 193.879 99.3636 187.818 99.3636C178.576 99.3636 171.212 97.4394 165.727 93.5909C160.273 89.7121 157.076 84.4394 156.136 77.7727L175.182 76.7727C175.758 79.5909 177.152 81.7424 179.364 83.2273C181.576 84.6818 184.409 85.4091 187.864 85.4091C191.258 85.4091 193.985 84.7576 196.045 83.4545C198.136 82.1212 199.197 80.4091 199.227 78.3182C199.197 76.5606 198.455 75.1212 197 74C195.545 72.8485 193.303 71.9697 190.273 71.3636L178.182 68.9545C171.364 67.5909 166.288 65.2273 162.955 61.8636C159.652 58.5 158 54.2121 158 49C158 44.5151 159.212 40.6515 161.636 37.4091C164.091 34.1667 167.53 31.6667 171.955 29.9091C176.409 28.1515 181.621 27.2727 187.591 27.2727C196.409 27.2727 203.348 29.1364 208.409 32.8636C213.5 36.5909 216.47 41.6667 217.318 48.0909ZM262.648 99.3636C255.496 99.3636 249.345 97.8485 244.193 94.8182C239.072 91.7576 235.133 87.5152 232.375 82.0909C229.648 76.6667 228.284 70.4242 228.284 63.3636C228.284 56.2121 229.663 49.9394 232.42 44.5455C235.208 39.1212 239.163 34.8939 244.284 31.8636C249.405 28.803 255.496 27.2727 262.557 27.2727C268.648 27.2727 273.981 28.3788 278.557 30.5909C283.133 32.803 286.754 35.9091 289.42 39.9091C292.087 43.9091 293.557 48.6061 293.83 54H275.557C275.042 50.5151 273.678 47.7121 271.466 45.5909C269.284 43.4394 266.42 42.3636 262.875 42.3636C259.875 42.3636 257.254 43.1818 255.011 44.8182C252.799 46.4242 251.072 48.7727 249.83 51.8636C248.587 54.9545 247.966 58.697 247.966 63.0909C247.966 67.5455 248.572 71.3333 249.784 74.4545C251.027 77.5758 252.769 79.9545 255.011 81.5909C257.254 83.2273 259.875 84.0455 262.875 84.0455C265.087 84.0455 267.072 83.5909 268.83 82.6818C270.617 81.7727 272.087 80.4545 273.239 78.7273C274.42 76.9697 275.193 74.8636 275.557 72.4091H293.83C293.527 77.7424 292.072 82.4394 289.466 86.5C286.89 90.5303 283.33 93.6818 278.784 95.9545C274.239 98.2273 268.86 99.3636 262.648 99.3636ZM325.591 57.6364V98H306.227V4.90909H325.045V40.5H325.864C327.439 36.3788 329.985 33.1515 333.5 30.8182C337.015 28.4545 341.424 27.2727 346.727 27.2727C351.576 27.2727 355.803 28.3333 359.409 30.4545C363.045 32.5455 365.864 35.5606 367.864 39.5C369.894 43.4091 370.894 48.0909 370.864 53.5455V98H351.5V57C351.53 52.697 350.439 49.3485 348.227 46.9545C346.045 44.5606 342.985 43.3636 339.045 43.3636C336.409 43.3636 334.076 43.9242 332.045 45.0455C330.045 46.1667 328.47 47.803 327.318 49.9545C326.197 52.0758 325.621 54.6364 325.591 57.6364ZM406.011 99.3182C401.557 99.3182 397.587 98.5455 394.102 97C390.617 95.4242 387.86 93.1061 385.83 90.0455C383.83 86.9545 382.83 83.1061 382.83 78.5C382.83 74.6212 383.542 71.3636 384.966 68.7273C386.39 66.0909 388.33 63.9697 390.784 62.3636C393.239 60.7576 396.027 59.5455 399.148 58.7273C402.299 57.9091 405.602 57.3333 409.057 57C413.117 56.5758 416.39 56.1818 418.875 55.8182C421.36 55.4242 423.163 54.8485 424.284 54.0909C425.405 53.3333 425.966 52.2121 425.966 50.7273V50.4545C425.966 47.5758 425.057 45.3485 423.239 43.7727C421.451 42.197 418.905 41.4091 415.602 41.4091C412.117 41.4091 409.345 42.1818 407.284 43.7273C405.223 45.2424 403.86 47.1515 403.193 49.4545L385.284 48C386.193 43.7576 387.981 40.0909 390.648 37C393.314 33.8788 396.754 31.4848 400.966 29.8182C405.208 28.1212 410.117 27.2727 415.693 27.2727C419.572 27.2727 423.284 27.7273 426.83 28.6364C430.405 29.5455 433.572 30.9545 436.33 32.8636C439.117 34.7727 441.314 37.2273 442.92 40.2273C444.527 43.197 445.33 46.7576 445.33 50.9091V98H426.966V88.3182H426.42C425.299 90.5 423.799 92.4242 421.92 94.0909C420.042 95.7273 417.784 97.0152 415.148 97.9545C412.511 98.8636 409.466 99.3182 406.011 99.3182ZM411.557 85.9545C414.405 85.9545 416.92 85.3939 419.102 84.2727C421.284 83.1212 422.996 81.5758 424.239 79.6364C425.481 77.697 426.102 75.5 426.102 73.0455V65.6364C425.496 66.0303 424.663 66.3939 423.602 66.7273C422.572 67.0303 421.405 67.3182 420.102 67.5909C418.799 67.8333 417.496 68.0606 416.193 68.2727C414.89 68.4545 413.708 68.6212 412.648 68.7727C410.375 69.1061 408.39 69.6364 406.693 70.3636C404.996 71.0909 403.678 72.0758 402.739 73.3182C401.799 74.5303 401.33 76.0455 401.33 77.8636C401.33 80.5 402.284 82.5152 404.193 83.9091C406.133 85.2727 408.587 85.9545 411.557 85.9545Z" fill="url(#paint0_linear_908_53)"/>
</g>
</g>
<defs>
<filter id="filter0_i_908_53" x="2.95456" y="4.90918" width="442.375" height="96.4546" filterUnits="userSpaceOnUse" color-interpolation-filters="sRGB">
<feFlood flood-opacity="0" result="BackgroundImageFix"/>
<feBlend mode="normal" in="SourceGraphic" in2="BackgroundImageFix" result="shape"/>
<feColorMatrix in="SourceAlpha" type="matrix" values="0 0 0 0 0 0 0 0 0 0 0 0 0 0 0 0 0 0 127 0" result="hardAlpha"/>
<feOffset dy="2"/>
<feGaussianBlur stdDeviation="5"/>
<feComposite in2="hardAlpha" operator="arithmetic" k2="-1" k3="1"/>
<feColorMatrix type="matrix" values="0 0 0 0 0 0 0 0 0 0 0 0 0 0 0 0 0 0 0.35 0"/>
<feBlend mode="normal" in2="shape" result="effect1_innerShadow_908_53"/>
</filter>
<linearGradient id="paint0_linear_908_53" x1="1.39802e-06" y1="102" x2="721" y2="-67" gradientUnits="userSpaceOnUse">
<stop stop-color="#AD7561"/>
<stop offset="0.424895" stop-color="#ECC7B8"/>
<stop offset="1" stop-color="#F1F1E6"/>
</linearGradient>
<clipPath id="clip0_908_53">
<rect width="453" height="102" fill="white"/>
</clipPath>
</defs>
</svg>
