<svg width="30" height="28" viewBox="0 0 30 28" fill="none" xmlns="http://www.w3.org/2000/svg">
<path d="M4.5001 20.9999C4.22392 21 4 20.7761 4 20.4999V19.1673C4 18.8912 4.22379 18.6674 4.4999 18.6673L25.4999 18.663C25.7761 18.6629 26 18.8868 26 19.163V20.4955C26 20.7716 25.7762 20.9955 25.5001 20.9955L4.5001 20.9999ZM6.50285 15.164C6.2267 15.164 6.00284 14.9402 6.00284 14.664V13.3314C6.00284 13.0553 6.2267 12.8314 6.50284 12.8314H25.5C25.7761 12.8314 26 13.0553 26 13.3314V14.664C26 14.9402 25.7761 15.164 25.5 15.164H6.50285ZM4.5 9.33257C4.22386 9.33257 4 9.10872 4 8.83257V7.5C4 7.22386 4.22386 7 4.5 7H25.5C25.7761 7 26 7.22386 26 7.5V8.83257C26 9.10872 25.7761 9.33257 25.5 9.33257H4.5Z" fill="#98775A"/>
</svg>
