<svg width="30" height="28" viewBox="0 0 30 28" fill="none" xmlns="http://www.w3.org/2000/svg">
<path d="M9.00068 21.4137C8.80542 21.6089 8.48883 21.6089 8.29357 21.4137L7.58646 20.7066C7.3912 20.5113 7.3912 20.1947 7.58646 19.9995L20.9994 6.58654C21.1947 6.39128 21.5112 6.39128 21.7065 6.58654L22.4136 7.29365C22.6089 7.48891 22.6089 7.80549 22.4136 8.00076L9.00068 21.4137Z" fill="#98775A"/>
<path d="M20.9993 21.4137C21.1946 21.6089 21.5112 21.6089 21.7064 21.4137L22.4135 20.7066C22.6088 20.5113 22.6088 20.1947 22.4135 19.9995L9.00061 6.58654C8.80534 6.39128 8.48876 6.39128 8.2935 6.58654L7.58639 7.29365C7.39113 7.48891 7.39113 7.80549 7.58639 8.00076L20.9993 21.4137Z" fill="#98775A"/>
</svg>
