<svg width="20" height="19" viewBox="0 0 20 19" fill="none" xmlns="http://www.w3.org/2000/svg">
<path d="M8.43653 18.9756C8.62855 18.9649 8.85863 18.8687 9.00344 18.7346L9.1431 18.6029L9.98397 16.2073C10.4455 14.8844 10.83 13.8091 10.8376 13.8117C10.8491 13.8157 11.5601 14.6313 12.4263 15.629C13.2888 16.6255 14.0402 17.485 14.0997 17.5356C14.3543 17.7649 14.859 17.8151 15.1234 17.6323C15.4302 17.4256 17.2977 15.7618 17.385 15.6206C17.527 15.3955 17.5509 15.091 17.4525 14.8557C17.3927 14.7193 16.8955 14.1147 15.7666 12.812C14.8814 11.7948 14.1631 10.951 14.1684 10.9357C14.1737 10.9204 15.2597 10.7003 16.5841 10.4468C18.2765 10.1192 19.0409 9.95071 19.1722 9.88041C19.4799 9.70828 19.636 9.36808 19.5842 8.97315C19.5149 8.43079 19.0736 6.29031 19.0034 6.15896C18.8696 5.88992 18.4933 5.67846 18.1898 5.7021C18.1118 5.70511 16.99 5.91718 15.6963 6.16838C14.3988 6.41826 13.336 6.62072 13.3245 6.61676C13.3169 6.61411 13.6784 5.5309 14.131 4.20922L14.9502 1.80182L14.9142 1.59657C14.8924 1.48622 14.8189 1.31514 14.7534 1.21969L14.6249 1.04673L13.1034 0.520839L11.5819 -0.00505416L11.374 0.0516206C11.2636 0.086291 11.1001 0.175452 11.0148 0.248804L10.8597 0.387991L10.0175 2.78746C9.55736 4.1065 9.17286 5.18178 9.16139 5.17782C9.15374 5.17517 8.43895 4.35829 7.57651 3.36186C6.71407 2.36542 5.96266 1.50589 5.90311 1.45532C5.65622 1.2286 5.1156 1.18312 4.86537 1.36226C4.51709 1.61462 2.69737 3.23921 2.61785 3.37025C2.47584 3.59536 2.45191 3.89985 2.5528 4.14037C2.60883 4.27541 3.10101 4.86968 4.24004 6.18022C5.12012 7.19989 5.83845 8.0437 5.83448 8.05518C5.83051 8.06666 4.74312 8.29062 3.41872 8.54406C1.56606 8.90196 0.96841 9.03385 0.828009 9.11813C0.597484 9.25267 0.441221 9.49428 0.411404 9.75389C0.392899 9.91887 0.834415 12.3807 0.948109 12.7328C1.04312 13.0398 1.47115 13.312 1.81299 13.2888C1.89106 13.2858 3.01286 13.0737 4.30653 12.8225C5.6002 12.5713 6.66687 12.3702 6.67451 12.3728C6.68598 12.3768 6.32442 13.46 5.87055 14.7855L5.05262 17.1891L5.08867 17.3943C5.11044 17.5047 5.18397 17.6757 5.24941 17.7712L5.37793 17.9442L6.85092 18.4618C7.77091 18.7841 8.36743 18.9774 8.43653 18.9756Z" fill="#AD7561"/>
</svg>
