<svg width="440" height="142" viewBox="0 0 440 142" fill="none" xmlns="http://www.w3.org/2000/svg">
<g clip-path="url(#clip0_818_316)">
<g filter="url(#filter0_di_818_316)">
<path d="M117.784 106L97.8068 36.1818H113.932L125.489 84.6932H126.068L138.818 36.1818H152.625L165.341 84.7955H165.955L177.511 36.1818H193.636L173.659 106H159.273L145.977 60.3523H145.432L132.17 106H117.784ZM219.298 107.023C214.003 107.023 209.423 105.898 205.56 103.648C201.719 101.375 198.753 98.2159 196.662 94.1705C194.571 90.1023 193.526 85.3864 193.526 80.0227C193.526 74.6136 194.571 69.8864 196.662 65.8409C198.753 61.7727 201.719 58.6136 205.56 56.3636C209.423 54.0909 214.003 52.9545 219.298 52.9545C224.594 52.9545 229.162 54.0909 233.003 56.3636C236.866 58.6136 239.844 61.7727 241.935 65.8409C244.026 69.8864 245.071 74.6136 245.071 80.0227C245.071 85.3864 244.026 90.1023 241.935 94.1705C239.844 98.2159 236.866 101.375 233.003 103.648C229.162 105.898 224.594 107.023 219.298 107.023ZM219.366 95.7727C221.776 95.7727 223.787 95.0909 225.401 93.7273C227.014 92.3409 228.23 90.4545 229.048 88.0682C229.889 85.6818 230.31 82.9659 230.31 79.9205C230.31 76.875 229.889 74.1591 229.048 71.7727C228.23 69.3864 227.014 67.5 225.401 66.1136C223.787 64.7273 221.776 64.0341 219.366 64.0341C216.935 64.0341 214.889 64.7273 213.23 66.1136C211.594 67.5 210.355 69.3864 209.514 71.7727C208.696 74.1591 208.287 76.875 208.287 79.9205C208.287 82.9659 208.696 85.6818 209.514 88.0682C210.355 90.4545 211.594 92.3409 213.23 93.7273C214.889 95.0909 216.935 95.7727 219.366 95.7727ZM254.514 106V53.6364H268.594V62.7727H269.139C270.094 59.5227 271.696 57.0682 273.946 55.4091C276.196 53.7273 278.787 52.8864 281.719 52.8864C282.446 52.8864 283.23 52.9318 284.071 53.0227C284.912 53.1136 285.651 53.2386 286.287 53.3977V66.2841C285.605 66.0795 284.662 65.8977 283.457 65.7386C282.253 65.5795 281.151 65.5 280.151 65.5C278.014 65.5 276.105 65.9659 274.423 66.8977C272.764 67.8068 271.446 69.0795 270.469 70.7159C269.514 72.3523 269.037 74.2386 269.037 76.375V106H254.514ZM306.955 90.9318L306.989 73.5114H309.102L325.875 53.6364H342.545L320.011 79.9545H316.568L306.955 90.9318ZM293.795 106V36.1818H308.318V106H293.795ZM326.523 106L311.114 83.1932L320.795 72.9318L343.534 106H326.523Z" fill="url(#paint0_linear_818_316)"/>
</g>
</g>
<defs>
<filter id="filter0_di_818_316" x="-152.193" y="-209.818" width="745.727" height="570.841" filterUnits="userSpaceOnUse" color-interpolation-filters="sRGB">
<feFlood flood-opacity="0" result="BackgroundImageFix"/>
<feColorMatrix in="SourceAlpha" type="matrix" values="0 0 0 0 0 0 0 0 0 0 0 0 0 0 0 0 0 0 127 0" result="hardAlpha"/>
<feOffset dy="4"/>
<feGaussianBlur stdDeviation="125"/>
<feComposite in2="hardAlpha" operator="out"/>
<feColorMatrix type="matrix" values="0 0 0 0 0.054902 0 0 0 0 0.211765 0 0 0 0 1 0 0 0 0.25 0"/>
<feBlend mode="normal" in2="BackgroundImageFix" result="effect1_dropShadow_818_316"/>
<feBlend mode="normal" in="SourceGraphic" in2="effect1_dropShadow_818_316" result="shape"/>
<feColorMatrix in="SourceAlpha" type="matrix" values="0 0 0 0 0 0 0 0 0 0 0 0 0 0 0 0 0 0 127 0" result="hardAlpha"/>
<feOffset dy="2"/>
<feGaussianBlur stdDeviation="5"/>
<feComposite in2="hardAlpha" operator="arithmetic" k2="-1" k3="1"/>
<feColorMatrix type="matrix" values="0 0 0 0 0 0 0 0 0 0 0 0 0 0 0 0 0 0 0.25 0"/>
<feBlend mode="normal" in2="shape" result="effect2_innerShadow_818_316"/>
</filter>
<linearGradient id="paint0_linear_818_316" x1="96" y1="110" x2="501.002" y2="42.0378" gradientUnits="userSpaceOnUse">
<stop stop-color="#AD7561"/>
<stop offset="0.424895" stop-color="#ECC7B8"/>
<stop offset="1" stop-color="#F1F1E6"/>
</linearGradient>
<clipPath id="clip0_818_316">
<rect width="440" height="142" fill="white"/>
</clipPath>
</defs>
</svg>
